<svg width="200" height="100" viewBox="0 0 200 100" fill="none" xmlns="http://www.w3.org/2000/svg">
<path d="M12.8246 45.328L11.8802 44.9989L11.8759 45.0118L12.8246 45.328ZM14.4806 40.576V39.576H13.7701L13.5363 40.2469L14.4806 40.576ZM26.9366 40.576L27.8831 40.2533L27.6522 39.576H26.9366V40.576ZM30.1766 50.08L29.23 50.4027L29.2339 50.4136L30.1766 50.08ZM28.3046 56.488L28.2215 55.4915L28.1983 55.4934L28.1753 55.4964L28.3046 56.488ZM26.6486 56.704L26.5193 55.7124L25.7841 55.8083L25.6622 56.5396L26.6486 56.704ZM26.4326 58L25.4462 57.8356L25.2521 59H26.4326V58ZM50.9126 58V59H52.0299L51.9065 57.8896L50.9126 58ZM50.7686 56.704L51.7625 56.5936L51.6779 55.8321L50.9207 55.7156L50.7686 56.704ZM48.8966 56.416L49.0487 55.4276L49.0396 55.4262L49.0305 55.425L48.8966 56.416ZM42.2726 48.64L41.3307 48.976L41.3328 48.9817L42.2726 48.64ZM29.0966 11.704L30.0385 11.368L29.8016 10.704H29.0966V11.704ZM27.3686 11.704V10.704H26.7172L26.4539 11.2998L27.3686 11.704ZM19.1606 17.968L18.8954 17.0038L17.9595 17.2612L18.1889 18.2043L19.1606 17.968ZM19.8086 20.632L20.7485 20.9735L20.8517 20.6894L20.7803 20.3956L19.8086 20.632ZM11.3846 43.816L12.32 44.1698L12.3245 44.1575L11.3846 43.816ZM2.09659 56.488L2.26099 57.4744L2.26599 57.4735L2.09659 56.488ZM0.800594 56.704L0.636195 55.7176L-0.0683723 55.835L-0.1858 56.5396L0.800594 56.704ZM0.584594 58L-0.4018 57.8356L-0.595867 59H0.584594V58ZM16.7846 58V59H17.9651L17.771 57.8356L16.7846 58ZM16.5686 56.704L17.555 56.5396L17.4347 55.8176L16.71 55.7141L16.5686 56.704ZM15.0566 56.488L15.198 55.498L15.1928 55.4973L15.0566 56.488ZM20.9606 23.08L21.9067 22.756L21.6751 22.08H20.9606V23.08ZM26.3606 38.848V39.848H27.7601L27.3067 38.524L26.3606 38.848ZM15.1286 38.848L14.1852 38.5163L13.717 39.848H15.1286V38.848ZM20.6726 23.08V22.08H19.9642L19.7292 22.7483L20.6726 23.08ZM13.7689 45.6571L15.4249 40.9051L13.5363 40.2469L11.8803 44.9989L13.7689 45.6571ZM14.4806 41.576H26.9366V39.576H14.4806V41.576ZM25.9901 40.8987L29.2301 50.4027L31.1231 49.7573L27.8831 40.2533L25.9901 40.8987ZM29.2339 50.4136C29.6449 51.5752 29.9331 52.4934 30.0912 53.2261C30.2526 53.9739 30.2534 54.4223 30.1869 54.6906C30.1372 54.8913 30.0477 55.0184 29.8179 55.1407C29.5319 55.293 29.0422 55.4231 28.2215 55.4915L28.3876 57.4845C29.295 57.4089 30.1102 57.251 30.758 56.906C31.462 56.5311 31.935 55.9517 32.1283 55.1714C32.3048 54.4587 32.2291 53.6516 32.0462 52.8042C31.8601 51.9416 31.5363 50.9248 31.1193 49.7464L29.2339 50.4136ZM28.1753 55.4964L26.5193 55.7124L26.7779 57.6956L28.4339 57.4796L28.1753 55.4964ZM25.6622 56.5396L25.4462 57.8356L27.419 58.1644L27.635 56.8684L25.6622 56.5396ZM26.4326 59H50.9126V57H26.4326V59ZM51.9065 57.8896L51.7625 56.5936L49.7747 56.8144L49.9187 58.1104L51.9065 57.8896ZM50.9207 55.7156L49.0487 55.4276L48.7445 57.4044L50.6165 57.6924L50.9207 55.7156ZM49.0305 55.425C47.8368 55.2637 47.0051 54.9685 46.1801 54.086C45.2905 53.1346 44.3559 51.443 43.2124 48.2983L41.3328 48.9817C42.4933 52.173 43.5387 54.1894 44.7191 55.452C45.9641 56.7835 47.2924 57.2083 48.7627 57.407L49.0305 55.425ZM43.2145 48.304L30.0385 11.368L28.1547 12.04L41.3307 48.976L43.2145 48.304ZM29.0966 10.704H27.3686V12.704H29.0966V10.704ZM26.4539 11.2998C25.8692 12.6231 24.6914 13.8631 23.2526 14.8846C21.822 15.9005 20.2175 16.6402 18.8954 17.0038L19.4258 18.9322C20.9837 18.5038 22.7992 17.6595 24.4105 16.5154C26.0138 15.3769 27.5 13.8809 28.2833 12.1082L26.4539 11.2998ZM18.1889 18.2043L18.8369 20.8683L20.7803 20.3956L20.1323 17.7316L18.1889 18.2043ZM18.8687 20.2905L10.4447 43.4745L12.3245 44.1575L20.7485 20.9735L18.8687 20.2905ZM10.4493 43.4622C9.38576 46.2742 8.57004 48.3996 7.8704 50.0285C7.16767 51.6644 6.60692 52.7387 6.0678 53.4775C5.5486 54.189 5.05835 54.577 4.47618 54.8451C3.85403 55.1316 3.08236 55.3039 1.9272 55.5025L2.26599 57.4735C3.41483 57.2761 4.42516 57.0704 5.31275 56.6617C6.24034 56.2345 6.98759 55.61 7.68338 54.6565C8.35927 53.7303 8.99102 52.4871 9.70804 50.8178C10.4281 49.1414 11.2594 46.9738 12.3199 44.1698L10.4493 43.4622ZM1.93219 55.5016L0.636195 55.7176L0.964993 57.6904L2.26099 57.4744L1.93219 55.5016ZM-0.1858 56.5396L-0.4018 57.8356L1.57099 58.1644L1.78699 56.8684L-0.1858 56.5396ZM0.584594 59H16.7846V57H0.584594V59ZM17.771 57.8356L17.555 56.5396L15.5822 56.8684L15.7982 58.1644L17.771 57.8356ZM16.71 55.7141L15.198 55.4981L14.9152 57.478L16.4272 57.694L16.71 55.7141ZM15.1928 55.4973C13.7442 55.2981 12.8438 55.0967 12.2869 54.8204C12.0285 54.6923 11.8857 54.5669 11.799 54.4529C11.7154 54.3427 11.6447 54.1918 11.609 53.9485C11.5294 53.4076 11.6378 52.5552 12.0222 51.141C12.3988 49.7554 12.9948 47.9796 13.7733 45.6442L11.8759 45.0118C11.1064 47.3204 10.4874 49.1626 10.0922 50.6165C9.70484 52.0418 9.48478 53.2504 9.63023 54.2395C9.70696 54.7612 9.88719 55.2425 10.2066 55.6628C10.5229 56.0792 10.9353 56.3825 11.3981 56.6121C12.2834 57.0513 13.489 57.2819 14.9204 57.4787L15.1928 55.4973ZM20.0145 23.404L25.4145 39.172L27.3067 38.524L21.9067 22.756L20.0145 23.404ZM26.3606 37.848H15.1286V39.848H26.3606V37.848ZM16.072 39.1797L21.616 23.4117L19.7292 22.7483L14.1852 38.5163L16.072 39.1797ZM20.6726 24.08H20.9606V22.08H20.6726V24.08ZM64.9301 51.592H63.9301V51.8896L64.0928 52.1388L64.9301 51.592ZM64.9301 33.448L64.3104 32.6631L63.9301 32.9634V33.448H64.9301ZM54.5621 59.584H53.5621V60.584H54.5621V59.584ZM55.2101 59.584V60.584H55.4407L55.6481 60.483L55.2101 59.584ZM60.8261 56.848V55.848H60.5955L60.3881 55.949L60.8261 56.848ZM60.8981 56.848L61.2382 55.9076L61.0734 55.848H60.8981V56.848ZM65.2901 31.936L64.9187 32.8645L65.6328 33.1501L66.0921 32.5333L65.2901 31.936ZM64.9301 31.792H63.9301V32.469L64.5587 32.7205L64.9301 31.792ZM64.9301 9.04H65.9301V7.73634L64.671 8.07416L64.9301 9.04ZM50.1701 13L49.911 12.0342L49.2273 12.2176L49.173 12.9233L50.1701 13ZM50.0981 13.936L49.101 13.8593L49.0439 14.602L49.7391 14.8693L50.0981 13.936ZM51.9701 14.656L51.6111 15.5893L51.6569 15.6069L51.7042 15.62L51.9701 14.656ZM72.0581 56.496C71.287 56.496 70.3067 56.0745 69.1696 55.1058C68.0507 54.1527 66.8869 52.7595 65.7674 51.0452L64.0928 52.1388C65.2773 53.9525 66.5615 55.5113 67.8726 56.6282C69.1654 57.7295 70.5972 58.496 72.0581 58.496V56.496ZM65.9301 51.592V33.448H63.9301V51.592H65.9301ZM65.5497 34.2329C66.8361 33.2173 68.2036 32.432 70.1141 32.432V30.432C67.5605 30.432 65.7601 31.5187 64.3104 32.6631L65.5497 34.2329ZM70.1141 32.432C72.11 32.432 73.7982 33.4841 75.033 35.4776C76.2833 37.496 77.0341 40.4467 77.0341 44.032H79.0341C79.0341 40.2013 78.2369 36.852 76.7332 34.4244C75.214 31.9718 72.9422 30.432 70.1141 30.432V32.432ZM77.0341 44.032C77.0341 47.8392 76.4676 51.0571 75.5052 53.2832C74.5245 55.5516 73.2863 56.496 72.0581 56.496V58.496C74.5018 58.496 76.2517 56.5964 77.341 54.0768C78.4486 51.5149 79.0341 48.0008 79.0341 44.032H77.0341ZM53.5621 19.552V59.584H55.5621V19.552H53.5621ZM54.5621 60.584H55.2101V58.584H54.5621V60.584ZM55.6481 60.483L61.2641 57.747L60.3881 55.949L54.7721 58.685L55.6481 60.483ZM60.8261 57.848H60.8981V55.848H60.8261V57.848ZM60.558 57.7884C63.9723 59.0233 67.3446 60.008 71.0501 60.008V58.008C67.6996 58.008 64.5919 57.1207 61.2382 55.9076L60.558 57.7884ZM71.0501 60.008C80.4783 60.008 90.3381 53.2687 90.3381 41.152H88.3381C88.3381 51.9313 79.6219 58.008 71.0501 58.008V60.008ZM90.3381 41.152C90.3381 31.8971 84.1282 24.6 76.2341 24.6V26.6C82.74 26.6 88.3381 32.6949 88.3381 41.152H90.3381ZM76.2341 24.6C71.4043 24.6 67.1097 27.8182 64.4881 31.3387L66.0921 32.5333C68.5105 29.2858 72.2799 26.6 76.2341 26.6V24.6ZM65.6615 31.0075L65.3015 30.8635L64.5587 32.7205L64.9187 32.8645L65.6615 31.0075ZM65.9301 31.792V9.04H63.9301V31.792H65.9301ZM64.671 8.07416L49.911 12.0342L50.4292 13.9658L65.1892 10.0058L64.671 8.07416ZM49.173 12.9233L49.101 13.8593L51.0951 14.0127L51.1671 13.0767L49.173 12.9233ZM49.7391 14.8693L51.6111 15.5893L52.3291 13.7227L50.4571 13.0027L49.7391 14.8693ZM51.7042 15.62C52.692 15.8925 52.9917 16.1232 53.1734 16.4528C53.4194 16.8991 53.5621 17.7261 53.5621 19.552H55.5621C55.5621 17.7779 55.4528 16.4449 54.9248 15.4872C54.3325 14.4128 53.3362 13.9955 52.236 13.692L51.7042 15.62ZM107.235 56.272L106.489 56.938L106.508 56.9591L106.528 56.9791L107.235 56.272ZM114.075 28.192L114.782 27.4849V27.4849L114.075 28.192ZM110.619 56.496C109.429 56.496 108.565 56.1875 107.942 55.5649L106.528 56.9791C107.633 58.0845 109.073 58.496 110.619 58.496V56.496ZM107.981 55.606C106.443 53.8828 104.995 50.0377 104.995 41.44H102.995C102.995 50.1223 104.428 54.6292 106.489 56.938L107.981 55.606ZM104.995 41.44C104.995 37.0365 105.567 33.5844 106.624 31.2715C107.665 28.9929 109.086 27.968 110.835 27.968V25.968C108.048 25.968 106.05 27.7151 104.805 30.4405C103.575 33.1316 102.995 36.9155 102.995 41.44H104.995ZM110.835 27.968C111.453 27.968 111.902 28.0337 112.277 28.1693C112.641 28.3011 112.987 28.5185 113.368 28.8991L114.782 27.4849C114.227 26.9295 113.637 26.5349 112.958 26.2887C112.288 26.0463 111.586 25.968 110.835 25.968V27.968ZM113.368 28.8991C115.001 30.5322 116.387 34.2549 116.387 42.808H118.387C118.387 34.2251 117.037 29.7398 114.782 27.4849L113.368 28.8991ZM116.387 42.808C116.387 47.0579 115.8 50.5743 114.735 52.9885C113.669 55.4053 112.248 56.496 110.619 56.496V58.496C113.382 58.496 115.345 56.5627 116.565 53.7955C117.787 51.0257 118.387 47.1981 118.387 42.808H116.387ZM110.331 60.008C121.853 60.008 129.763 52.0454 129.763 41.944H127.763C127.763 50.8506 120.841 58.008 110.331 58.008V60.008ZM129.763 41.944C129.763 37.2024 128.054 32.7845 124.847 29.5491C121.635 26.3079 116.978 24.312 111.195 24.312V26.312C116.5 26.312 120.627 28.1321 123.427 30.9569C126.232 33.7875 127.763 37.6856 127.763 41.944H129.763ZM111.195 24.312C99.7535 24.312 91.7632 32.2666 91.7632 42.232H93.7632C93.7632 33.4774 100.749 26.312 111.195 26.312V24.312ZM91.7632 42.232C91.7632 47.0385 93.4496 51.493 96.6488 54.7498C99.8541 58.0128 104.513 60.008 110.331 60.008V58.008C104.989 58.008 100.864 56.1872 98.0755 53.3482C95.2807 50.503 93.7632 46.5695 93.7632 42.232H91.7632ZM156.04 52.672L157.04 52.6942L157.063 51.672H156.04V52.672ZM155.896 59.152L154.897 59.1298L154.868 60.4307L156.132 60.1238L155.896 59.152ZM170.728 55.552L170.964 56.5238L171.606 56.368L171.715 55.7164L170.728 55.552ZM170.872 54.688L171.859 54.8524L172.011 53.9418L171.115 53.7179L170.872 54.688ZM168.856 54.184L168.591 55.148L168.602 55.1512L168.614 55.1541L168.856 54.184ZM166.336 26.392H167.336V25.392H166.336V26.392ZM151.144 26.392V25.392H149.882L150.171 26.621L151.144 26.392ZM151.432 27.616L150.459 27.845L150.628 28.5646L151.366 28.6138L151.432 27.616ZM152.512 27.688L152.585 26.6906L152.579 26.6902L152.512 27.688ZM155.968 51.016L156.459 51.8876L156.968 51.6008V51.016H155.968ZM145.672 45.688L146.672 45.7017L146.672 45.6992L145.672 45.688ZM145.888 26.392L146.888 26.4032L146.9 25.392H145.888V26.392ZM130.48 26.392V25.392H129.289L129.496 26.5658L130.48 26.392ZM130.696 27.616L129.712 27.7898L129.848 28.5616L130.63 28.6138L130.696 27.616ZM131.776 27.688L131.887 26.6941L131.865 26.6917L131.843 26.6902L131.776 27.688ZM135.376 28.696L136.376 28.7036V28.696H135.376ZM135.232 47.704L136.231 47.7616L136.232 47.7366L136.232 47.7116L135.232 47.704ZM137.608 56.344L136.887 57.0365L136.901 57.0513L136.916 57.0654L137.608 56.344ZM155.824 52.672V51.672H155.445L155.161 51.9238L155.824 52.672ZM155.041 52.6498L154.897 59.1298L156.896 59.1742L157.04 52.6942L155.041 52.6498ZM156.132 60.1238L170.964 56.5238L170.493 54.5802L155.661 58.1802L156.132 60.1238ZM171.715 55.7164L171.859 54.8524L169.886 54.5236L169.742 55.3876L171.715 55.7164ZM171.115 53.7179L169.099 53.2139L168.614 55.1541L170.63 55.6581L171.115 53.7179ZM169.122 53.22C168.176 52.959 167.881 52.7069 167.703 52.3599C167.46 51.8848 167.336 51.0434 167.336 49.288H165.336C165.336 50.9886 165.429 52.3072 165.924 53.2721C166.484 54.3651 167.449 54.833 168.591 55.148L169.122 53.22ZM167.336 49.288V26.392H165.336V49.288H167.336ZM166.336 25.392H151.144V27.392H166.336V25.392ZM150.171 26.621L150.459 27.845L152.406 27.387L152.118 26.163L150.171 26.621ZM151.366 28.6138L152.446 28.6858L152.579 26.6902L151.499 26.6182L151.366 28.6138ZM152.439 28.6853C153.963 28.7968 154.684 28.8831 155.036 28.9984C155.188 29.0479 155.117 29.0572 155.035 28.9448C154.949 28.8265 154.968 28.7355 154.968 28.84H156.968C156.968 28.5485 156.925 28.1425 156.652 27.7677C156.383 27.3988 156.002 27.2101 155.659 27.0976C155.021 26.8889 154.014 26.7952 152.585 26.6907L152.439 28.6853ZM154.968 28.84V39.352H156.968V28.84H154.968ZM154.968 39.352V51.016H156.968V39.352H154.968ZM155.478 50.1444C154.344 50.7826 153.027 51.456 151.36 51.456V53.456C153.582 53.456 155.289 52.5454 156.459 51.8876L155.478 50.1444ZM151.36 51.456C149.715 51.456 148.605 51.1004 147.889 50.3518C147.163 49.5926 146.638 48.2178 146.672 45.7017L144.673 45.6743C144.635 48.4142 145.19 50.4234 146.444 51.7342C147.708 53.0556 149.478 53.456 151.36 53.456V51.456ZM146.672 45.6992L146.888 26.4032L144.889 26.3808L144.673 45.6768L146.672 45.6992ZM145.888 25.392H130.48V27.392H145.888V25.392ZM129.496 26.5658L129.712 27.7898L131.681 27.4422L131.465 26.2182L129.496 26.5658ZM130.63 28.6138L131.71 28.6858L131.843 26.6902L130.763 26.6182L130.63 28.6138ZM131.666 28.6819C133.291 28.8624 134.095 29.0164 134.48 29.1424C134.679 29.2073 134.648 29.2291 134.567 29.1491C134.425 29.0089 134.376 28.8184 134.376 28.696H136.376C136.376 28.3936 136.283 28.0321 135.972 27.7254C135.722 27.4789 135.399 27.3387 135.103 27.2416C134.498 27.0436 133.502 26.8736 131.887 26.6941L131.666 28.6819ZM134.376 28.6884L134.232 47.6964L136.232 47.7116L136.376 28.7036L134.376 28.6884ZM134.234 47.6464C134.01 51.5339 134.89 54.9561 136.887 57.0365L138.33 55.6515C136.871 54.1319 136.023 51.3621 136.231 47.7616L134.234 47.6464ZM136.916 57.0654C137.833 57.9454 138.711 58.6957 139.728 59.2148C140.768 59.7456 141.9 60.008 143.296 60.008V58.008C142.173 58.008 141.361 57.8024 140.637 57.4332C139.89 57.0523 139.184 56.4706 138.301 55.6226L136.916 57.0654ZM143.296 60.008C148.243 60.008 152.672 56.8039 156.488 53.4202L155.161 51.9238C151.345 55.3081 147.422 58.008 143.296 58.008V60.008ZM155.824 53.672H156.04V51.672H155.824V53.672ZM198.056 52.672L198.791 53.3497L199.181 52.9271L199.012 52.3779L198.056 52.672ZM197.768 51.736L198.724 51.4419L198.294 50.0464L197.148 50.9511L197.768 51.736ZM186.32 46.192L185.32 46.1777L185.32 46.1793L186.32 46.192ZM186.536 31.072V30.072H185.55L185.536 31.0577L186.536 31.072ZM196.688 31.072V32.072H197.5L197.667 31.2772L196.688 31.072ZM197.624 26.608L198.603 26.8132L198.855 25.608H197.624V26.608ZM186.608 26.608L185.608 26.5995L185.599 27.608H186.608V26.608ZM186.68 18.184L187.68 18.1925L187.688 17.2288L186.725 17.185L186.68 18.184ZM185.096 18.112L185.141 17.113L184.776 17.0964L184.487 17.319L185.096 18.112ZM179.192 22.648L179.793 23.447L179.801 23.441L179.192 22.648ZM172.784 27.472L172.182 26.6731L172.001 26.8095L171.897 27.0106L172.784 27.472ZM170.912 31.072L170.025 30.6106L169.296 32.0128L170.875 32.0713L170.912 31.072ZM176.744 31.288L177.744 31.3049L177.76 30.325L176.781 30.2887L176.744 31.288ZM176.456 48.28L177.456 48.3004L177.456 48.2969L176.456 48.28ZM186.032 59.864C191.401 59.864 195.32 57.1164 198.791 53.3497L197.32 51.9943C194.024 55.5716 190.599 57.864 186.032 57.864V59.864ZM199.012 52.3779L198.724 51.4419L196.812 52.0301L197.1 52.9661L199.012 52.3779ZM197.148 50.9511C195.939 51.9055 194.282 52.68 191.936 52.68V54.68C194.774 54.68 196.86 53.7265 198.387 52.5209L197.148 50.9511ZM191.936 52.68C190.17 52.68 189.113 52.2654 188.448 51.4414C187.738 50.56 187.285 48.9856 187.32 46.2047L185.32 46.1793C185.283 49.0864 185.73 51.256 186.891 52.6966C188.099 54.1946 189.886 54.68 191.936 54.68V52.68ZM187.32 46.2063L187.536 31.0863L185.536 31.0577L185.32 46.1777L187.32 46.2063ZM186.536 32.072H196.688V30.072H186.536V32.072ZM197.667 31.2772L198.603 26.8132L196.645 26.4028L195.709 30.8668L197.667 31.2772ZM197.624 25.608H186.608V27.608H197.624V25.608ZM187.608 26.6165L187.68 18.1925L185.68 18.1755L185.608 26.5995L187.608 26.6165ZM186.725 17.185L185.141 17.113L185.05 19.111L186.634 19.183L186.725 17.185ZM184.487 17.319L178.583 21.855L179.801 23.441L185.705 18.905L184.487 17.319ZM178.59 21.8491L172.182 26.6731L173.385 28.2709L179.793 23.4469L178.59 21.8491ZM171.897 27.0106L170.025 30.6106L171.799 31.5334L173.671 27.9334L171.897 27.0106ZM170.875 32.0713L176.707 32.2873L176.781 30.2887L170.949 30.0727L170.875 32.0713ZM175.744 31.2711L175.456 48.2631L177.456 48.2969L177.744 31.3049L175.744 31.2711ZM175.456 48.2596C175.381 51.9195 176.16 54.8605 177.991 56.8882C179.837 58.9322 182.583 59.864 186.032 59.864V57.864C182.928 57.864 180.815 57.0318 179.475 55.5478C178.12 54.0475 177.386 51.6965 177.456 48.3004L175.456 48.2596Z" fill="#344E41" fill-opacity="0.52"/>
<path d="M41.8831 63.552L42.9871 60.384H51.2911L53.4511 66.72C54.5551 69.84 54.5071 70.8 52.2031 70.992L51.0991 71.136L50.9551 72H67.2751L67.1791 71.136L65.9311 70.944C64.1551 70.704 63.0511 69.984 61.5151 65.76L52.7311 41.136H51.5791C50.6671 43.2 48.0271 44.784 46.1071 45.312L46.5391 47.088L40.9231 62.544C38.0911 70.032 37.8031 70.464 34.7311 70.992L33.8671 71.136L33.7231 72H44.5231L44.3791 71.136L43.3711 70.992C39.5311 70.464 39.8191 69.744 41.8831 63.552ZM47.3071 48.72L50.9071 59.232H43.4191L47.1151 48.72H47.3071ZM81.3721 71.664C79.8841 71.664 78.1561 70.08 76.6201 67.728V55.632C77.5321 54.912 78.5881 54.288 80.0761 54.288C83.2921 54.288 85.3561 57.744 85.3561 62.688C85.3561 67.872 83.8201 71.664 81.3721 71.664ZM69.7081 46.368V73.056H70.1401L73.8841 71.232H73.9321C76.1881 72.048 78.3481 72.672 80.7001 72.672C86.7001 72.672 92.8921 68.4 92.8921 60.768C92.8921 54.864 88.9561 50.4 84.1561 50.4C81.2281 50.4 78.5401 52.368 76.8601 54.624L76.6201 54.528V39.36L66.7801 42L66.7321 42.624L67.9801 43.104C69.3721 43.488 69.7081 43.968 69.7081 46.368ZM107.079 71.664C106.167 71.664 105.399 71.424 104.823 70.848C103.623 69.504 102.663 66.72 102.663 60.96C102.663 55.008 104.199 51.312 107.223 51.312C108.135 51.312 108.759 51.504 109.383 52.128C110.679 53.424 111.591 56.16 111.591 61.872C111.591 67.632 110.007 71.664 107.079 71.664ZM106.887 72.672C114.231 72.672 119.175 67.632 119.175 61.296C119.175 55.296 114.855 50.208 107.463 50.208C100.167 50.208 95.1754 55.248 95.1754 61.488C95.1754 67.584 99.4474 72.672 106.887 72.672ZM137.36 68.448L137.264 72.768L147.152 70.368L147.248 69.792L145.904 69.456C144.512 69.072 144.224 68.496 144.224 66.192V50.928H134.096L134.288 51.744L135.008 51.792C136.976 51.936 137.312 52.032 137.312 52.56V59.568V67.344C136.544 67.776 135.536 68.304 134.24 68.304C131.888 68.304 130.4 67.296 130.448 63.792L130.592 50.928H120.32L120.464 51.744L121.184 51.792C123.344 52.032 123.584 52.224 123.584 52.464L123.488 65.136C123.344 67.632 123.92 69.696 125.072 70.896C126.272 72.048 127.184 72.672 128.864 72.672C131.888 72.672 134.672 70.704 137.216 68.448H137.36ZM157.355 72.576C160.667 72.576 163.115 70.896 165.371 68.448L165.179 67.824C164.267 68.544 163.019 69.12 161.291 69.12C158.747 69.12 157.499 67.92 157.547 64.128L157.691 54.048H164.459L165.083 51.072H157.739L157.787 45.456L156.731 45.408L152.795 48.432L148.523 51.648L147.275 54.048L151.163 54.192L150.971 65.52C150.875 70.224 152.987 72.576 157.355 72.576Z" fill="#1E2C25"/>
</svg>
