<svg width="360" height="100" viewBox="0 0 360 100" fill="none" xmlns="http://www.w3.org/2000/svg">
<path d="M42.4046 56.344L42.4259 55.3442L42.2079 55.3396L42.0077 55.4261L42.4046 56.344ZM45.7886 56.416L45.7674 57.4158L46.6564 57.4347L46.7791 56.554L45.7886 56.416ZM47.8046 41.944L48.7951 42.082L48.9536 40.944H47.8046V41.944ZM45.3566 41.944V40.944H44.6927L44.435 41.5559L45.3566 41.944ZM43.7726 45.616L42.8664 45.1931L42.8618 45.2031L42.8573 45.2133L43.7726 45.616ZM42.1886 49.288L43.067 49.7659L43.1886 49.5424V49.288H42.1886ZM37.5806 15.592L38.4701 15.135L38.3249 14.8524L38.0432 14.7054L37.5806 15.592ZM44.2766 28.624L43.3872 29.081L43.6662 29.624H44.2766V28.624ZM46.5806 28.624V29.624H47.6134L47.5801 28.5918L46.5806 28.624ZM46.0766 13L47.0761 12.9678L47.0365 11.7406L45.8428 12.0277L46.0766 13ZM40.3886 14.368L39.9307 15.257L40.2611 15.4272L40.6225 15.3403L40.3886 14.368ZM28.6526 59.864C33.669 59.864 39.9982 58.4741 42.8015 57.2619L42.0077 55.4261C39.483 56.5179 33.4283 57.864 28.6526 57.864V59.864ZM42.3834 57.3438L45.7674 57.4158L45.8099 55.4162L42.4259 55.3442L42.3834 57.3438ZM46.7791 56.554L48.7951 42.082L46.8142 41.806L44.7982 56.278L46.7791 56.554ZM47.8046 40.944H45.3566V42.944H47.8046V40.944ZM44.435 41.5559C43.8536 42.9368 43.36 44.1355 42.8664 45.1931L44.6788 46.0389C45.1932 44.9365 45.7077 43.6872 46.2783 42.3321L44.435 41.5559ZM42.8573 45.2133C42.4617 46.1124 42.0646 47.015 41.7664 47.7017C41.6175 48.0445 41.4916 48.3376 41.4023 48.551C41.358 48.6567 41.3201 48.7492 41.2923 48.8207C41.2788 48.8553 41.264 48.8945 41.2512 48.9319C41.2452 48.9497 41.2356 48.9787 41.2263 49.0126C41.2217 49.0295 41.2145 49.0573 41.2078 49.0915C41.2031 49.1154 41.1886 49.1909 41.1886 49.288H43.1886C43.1886 49.3829 43.1745 49.4552 43.1706 49.4753C43.1647 49.5055 43.1586 49.5286 43.1556 49.5398C43.1493 49.5626 43.1443 49.5772 43.1442 49.5774C43.1434 49.5797 43.1464 49.5711 43.1561 49.546C43.1747 49.4983 43.2049 49.4243 43.2472 49.323C43.3312 49.1224 43.4528 48.8395 43.6009 48.4983C43.8967 47.817 44.2916 46.9196 44.6879 46.0187L42.8573 45.2133ZM41.3102 48.8101C38.8044 53.4153 34.8763 56.136 29.1566 56.136V58.136C35.677 58.136 40.2448 54.9527 43.067 49.7659L41.3102 48.8101ZM29.1566 56.136C25.429 56.136 22.2133 54.3059 19.8901 50.8294C17.5487 47.3258 16.1166 42.1386 16.1166 35.536H14.1166C14.1166 42.3974 15.6006 48.0102 18.2272 51.9406C20.8719 55.8981 24.6763 58.136 29.1566 58.136V56.136ZM16.1166 35.536C16.1166 29.2062 17.3927 24.0012 19.726 20.4121C22.0312 16.8662 25.3812 14.864 29.7326 14.864V12.864C24.6521 12.864 20.694 15.2538 18.0492 19.3219C15.4326 23.3468 14.1166 28.9778 14.1166 35.536H16.1166ZM29.7326 14.864C32.7485 14.864 35.6126 15.6931 37.1181 16.4786L38.0432 14.7054C36.2367 13.7629 33.0528 12.864 29.7326 12.864V14.864ZM36.6912 16.049L43.3872 29.081L45.1661 28.167L38.4701 15.135L36.6912 16.049ZM44.2766 29.624H46.5806V27.624H44.2766V29.624ZM47.5801 28.5918L47.0761 12.9678L45.0771 13.0322L45.5811 28.6562L47.5801 28.5918ZM45.8428 12.0277L40.1548 13.3957L40.6225 15.3403L46.3105 13.9723L45.8428 12.0277ZM40.8466 13.479C38.3059 12.1702 33.9679 11.064 29.3006 11.064V13.064C33.7054 13.064 37.7193 14.1178 39.9307 15.257L40.8466 13.479ZM29.3006 11.064C20.4835 11.064 13.4907 13.8348 8.69454 18.3953C3.89867 22.9556 1.37263 29.2375 1.37263 36.112H3.37263C3.37263 29.7385 5.70658 23.9964 10.0727 19.8447C14.4386 15.6932 20.9097 13.064 29.3006 13.064V11.064ZM1.37263 36.112C1.37263 42.8971 3.98456 48.8614 8.74379 53.1202C13.496 57.3727 20.3186 59.864 28.6526 59.864V57.864C20.7147 57.864 14.3972 55.4953 10.0775 51.6298C5.76469 47.7706 3.37263 42.3589 3.37263 36.112H1.37263ZM66.4031 56.272L65.6572 56.938L65.676 56.9591L65.696 56.9791L66.4031 56.272ZM73.2431 28.192L73.9502 27.4849L73.9502 27.4849L73.2431 28.192ZM69.7871 56.496C68.5969 56.496 67.7328 56.1875 67.1102 55.5649L65.696 56.9791C66.8015 58.0845 68.2413 58.496 69.7871 58.496V56.496ZM67.1491 55.606C65.6105 53.8828 64.1631 50.0377 64.1631 41.44H62.1631C62.1631 50.1223 63.5958 54.6292 65.6572 56.938L67.1491 55.606ZM64.1631 41.44C64.1631 37.0365 64.7351 33.5844 65.7917 31.2715C66.8327 28.9929 68.2541 27.968 70.0031 27.968V25.968C67.2162 25.968 65.2176 27.7151 63.9725 30.4405C62.7431 33.1316 62.1631 36.9155 62.1631 41.44H64.1631ZM70.0031 27.968C70.6205 27.968 71.0703 28.0337 71.4447 28.1693C71.8088 28.3011 72.1555 28.5185 72.536 28.8991L73.9502 27.4849C73.3948 26.9295 72.8054 26.5349 72.1256 26.2887C71.456 26.0463 70.7537 25.968 70.0031 25.968V27.968ZM72.536 28.8991C74.1691 30.5322 75.5551 34.2549 75.5551 42.808H77.5551C77.5551 34.2251 76.2051 29.7398 73.9502 27.4849L72.536 28.8991ZM75.5551 42.808C75.5551 47.0579 74.9677 50.5743 73.9031 52.9885C72.8374 55.4053 71.4162 56.496 69.7871 56.496V58.496C72.55 58.496 74.5128 56.5627 75.7331 53.7955C76.9545 51.0257 77.5551 47.1981 77.5551 42.808H75.5551ZM69.4991 60.008C81.0211 60.008 88.9311 52.0454 88.9311 41.944H86.9311C86.9311 50.8506 80.0091 58.008 69.4991 58.008V60.008ZM88.9311 41.944C88.9311 37.2024 87.222 32.7845 84.0154 29.5491C80.8031 26.3079 76.1464 24.312 70.3631 24.312V26.312C75.6679 26.312 79.7952 28.1321 82.5949 30.9569C85.4003 33.7875 86.9311 37.6856 86.9311 41.944H88.9311ZM70.3631 24.312C58.9215 24.312 50.9311 32.2666 50.9311 42.232H52.9311C52.9311 33.4774 59.9168 26.312 70.3631 26.312V24.312ZM50.9311 42.232C50.9311 47.0385 52.6176 51.493 55.8167 54.7498C59.022 58.0128 63.6812 60.008 69.4991 60.008V58.008C64.1571 58.008 60.0322 56.1872 57.2435 53.3482C54.4487 50.503 52.9311 46.5695 52.9311 42.232H50.9311ZM91.3044 56.776L91.2332 55.7785L90.4552 55.8341L90.3197 56.6022L91.3044 56.776ZM91.0884 58L90.1037 57.8262L89.8965 59H91.0884V58ZM109.736 58V59H110.861L110.73 57.8832L109.736 58ZM109.592 56.776L110.586 56.6592L110.488 55.83L109.655 55.7779L109.592 56.776ZM108.44 56.704L108.355 57.7003L108.367 57.7013L108.378 57.7021L108.44 56.704ZM105.632 33.304L105.066 32.48L104.632 32.778V33.304H105.632ZM113.84 56.704L113.903 57.7021L113.914 57.7013L113.926 57.7003L113.84 56.704ZM112.688 56.776L112.626 55.7779L111.84 55.827L111.704 56.6022L112.688 56.776ZM112.472 58L111.488 57.8262L111.281 59H112.472V58ZM131.192 58V59H132.384L132.177 57.8262L131.192 58ZM130.976 56.776L131.961 56.6022L131.828 55.8493L131.067 55.7801L130.976 56.776ZM130.184 56.704L130.027 57.6916L130.06 57.6969L130.094 57.6999L130.184 56.704ZM105.776 31.576V32.576H106.142L106.421 32.3405L105.776 31.576ZM105.632 31.576L104.633 31.5527L104.609 32.576H105.632V31.576ZM105.776 25.384L106.776 25.4072L106.808 24.0583L105.508 24.4207L105.776 25.384ZM90.8004 29.56L90.5318 28.5967L89.8571 28.7849L89.8034 29.4833L90.8004 29.56ZM90.7284 30.496L89.7314 30.4193L89.6666 31.2613L90.4859 31.4661L90.7284 30.496ZM92.1684 30.856L92.4506 29.8966L92.4309 29.8908L92.411 29.8859L92.1684 30.856ZM92.3124 56.704L92.3837 57.7015L92.3995 57.7003L92.4153 57.6987L92.3124 56.704ZM90.3197 56.6022L90.1037 57.8262L92.0732 58.1738L92.2892 56.9498L90.3197 56.6022ZM91.0884 59H109.736V57H91.0884V59ZM110.73 57.8832L110.586 56.6592L108.599 56.8928L108.743 58.1168L110.73 57.8832ZM109.655 55.7779L108.503 55.7059L108.378 57.7021L109.53 57.7741L109.655 55.7779ZM108.526 55.7077C107.24 55.5974 106.715 55.4771 106.513 55.3833C106.451 55.3545 106.53 55.3774 106.594 55.4956C106.648 55.594 106.632 55.6559 106.632 55.552H104.632C104.632 55.7721 104.653 56.113 104.839 56.4544C105.037 56.8156 105.345 57.0455 105.67 57.1967C106.242 57.4629 107.121 57.5946 108.355 57.7003L108.526 55.7077ZM106.632 55.552V44.968H104.632V55.552H106.632ZM106.632 44.968V33.304H104.632V44.968H106.632ZM106.199 34.128C107.193 33.4448 108.581 32.864 110.6 32.864V30.864C108.156 30.864 106.376 31.5792 105.066 32.48L106.199 34.128ZM110.6 32.864C112.184 32.864 113.275 33.188 113.997 33.9296C114.73 34.6825 115.288 36.076 115.288 38.704H117.288C117.288 35.86 116.695 33.8335 115.43 32.5344C114.154 31.224 112.401 30.864 110.6 30.864V32.864ZM115.288 38.704V55.48H117.288V38.704H115.288ZM115.288 55.48C115.288 55.6883 115.285 55.6622 115.293 55.6311C115.321 55.5229 115.393 55.4375 115.438 55.4066C115.441 55.4042 115.356 55.4604 115.062 55.528C114.779 55.5932 114.362 55.6556 113.755 55.7077L113.926 57.7003C114.579 57.6444 115.098 57.5718 115.51 57.4772C115.911 57.3851 116.281 57.2568 116.581 57.0474C116.923 56.8095 117.134 56.4946 117.228 56.1367C117.301 55.8558 117.288 55.5597 117.288 55.48H115.288ZM113.778 55.7059L112.626 55.7779L112.751 57.7741L113.903 57.7021L113.778 55.7059ZM111.704 56.6022L111.488 57.8262L113.457 58.1738L113.673 56.9498L111.704 56.6022ZM112.472 59H131.192V57H112.472V59ZM132.177 57.8262L131.961 56.6022L129.992 56.9498L130.208 58.1738L132.177 57.8262ZM131.067 55.7801L130.275 55.7081L130.094 57.6999L130.886 57.7719L131.067 55.7801ZM130.342 55.7164C128.734 55.4607 127.956 55.2935 127.58 55.1543C127.393 55.0852 127.444 55.0701 127.528 55.1694C127.578 55.2295 127.617 55.3026 127.638 55.3774C127.658 55.4435 127.656 55.4867 127.656 55.48H125.656C125.656 55.7384 125.707 56.1117 125.997 56.4566C126.247 56.7539 126.586 56.9188 126.885 57.0297C127.481 57.2505 128.466 57.4433 130.027 57.6916L130.342 55.7164ZM127.656 55.48V36.472H125.656V55.48H127.656ZM127.656 36.472C127.656 34.646 127.471 32.8455 127.047 31.2553C126.625 29.6752 125.949 28.2305 124.916 27.1969L123.501 28.6111C124.196 29.3055 124.744 30.3808 125.114 31.7707C125.482 33.1505 125.656 34.77 125.656 36.472H127.656ZM124.916 27.1969C123.107 25.3886 120.992 24.312 118.304 24.312V26.312C120.369 26.312 121.998 27.1074 123.501 28.6111L124.916 27.1969ZM118.304 24.312C115.804 24.312 113.419 25.1839 111.228 26.4104C109.037 27.6371 106.98 29.253 105.132 30.8115L106.421 32.3405C108.245 30.803 110.184 29.2869 112.205 28.1556C114.226 27.0241 116.269 26.312 118.304 26.312V24.312ZM105.776 30.576H105.632V32.576H105.776V30.576ZM106.632 31.5992L106.776 25.4072L104.777 25.3607L104.633 31.5527L106.632 31.5992ZM105.508 24.4207L90.5318 28.5967L91.069 30.5233L106.045 26.3473L105.508 24.4207ZM89.8034 29.4833L89.7314 30.4193L91.7255 30.5727L91.7975 29.6367L89.8034 29.4833ZM90.4859 31.4661L91.9259 31.8261L92.411 29.8859L90.971 29.5259L90.4859 31.4661ZM91.8863 31.8154C93.117 32.1774 93.496 32.4159 93.729 32.826C93.8654 33.0662 93.9893 33.4379 94.0729 34.066C94.1564 34.6927 94.1924 35.5134 94.1924 36.616H96.1924C96.1924 35.4866 96.1565 34.5613 96.0554 33.802C95.9545 33.0441 95.7814 32.3898 95.4679 31.838C94.8009 30.6641 93.6678 30.2546 92.4506 29.8966L91.8863 31.8154ZM94.1924 36.616V55.48H96.1924V36.616H94.1924ZM94.1924 55.48C94.1924 55.5366 94.1828 55.4741 94.2446 55.3941C94.2941 55.3301 94.3194 55.3484 94.1863 55.3979C93.8733 55.5145 93.2993 55.5966 92.2095 55.7093L92.4153 57.6987C93.4136 57.5954 94.2796 57.4975 94.8845 57.2721C95.2105 57.1506 95.5643 56.9574 95.8275 56.6166C96.103 56.2599 96.1924 55.8554 96.1924 55.48H94.1924ZM92.2412 55.7065L91.2332 55.7785L91.3757 57.7735L92.3837 57.7015L92.2412 55.7065ZM158.56 52.672L159.295 53.3497L159.685 52.9271L159.516 52.3779L158.56 52.672ZM158.272 51.736L159.228 51.4419L158.798 50.0464L157.652 50.9511L158.272 51.736ZM146.824 46.192L145.824 46.1777L145.824 46.1793L146.824 46.192ZM147.04 31.072V30.072H146.054L146.04 31.0577L147.04 31.072ZM157.192 31.072V32.072H158.004L158.17 31.2772L157.192 31.072ZM158.128 26.608L159.106 26.8132L159.359 25.608H158.128V26.608ZM147.112 26.608L146.112 26.5995L146.103 27.608H147.112V26.608ZM147.184 18.184L148.184 18.1925L148.192 17.2288L147.229 17.185L147.184 18.184ZM145.6 18.112L145.645 17.113L145.28 17.0964L144.991 17.319L145.6 18.112ZM139.696 22.648L140.297 23.447L140.305 23.441L139.696 22.648ZM133.288 27.472L132.686 26.6731L132.505 26.8095L132.401 27.0106L133.288 27.472ZM131.416 31.072L130.529 30.6106L129.799 32.0128L131.379 32.0713L131.416 31.072ZM137.248 31.288L138.248 31.3049L138.264 30.325L137.285 30.2887L137.248 31.288ZM136.96 48.28L137.96 48.3004L137.96 48.2969L136.96 48.28ZM146.536 59.864C151.905 59.864 155.824 57.1164 159.295 53.3497L157.824 51.9943C154.528 55.5716 151.103 57.864 146.536 57.864V59.864ZM159.516 52.3779L159.228 51.4419L157.316 52.0301L157.604 52.9661L159.516 52.3779ZM157.652 50.9511C156.443 51.9055 154.786 52.68 152.44 52.68V54.68C155.278 54.68 157.364 53.7265 158.891 52.5209L157.652 50.9511ZM152.44 52.68C150.674 52.68 149.617 52.2654 148.952 51.4414C148.242 50.56 147.788 48.9856 147.824 46.2047L145.824 46.1793C145.787 49.0864 146.234 51.256 147.395 52.6966C148.603 54.1946 150.39 54.68 152.44 54.68V52.68ZM147.824 46.2063L148.04 31.0863L146.04 31.0577L145.824 46.1777L147.824 46.2063ZM147.04 32.072H157.192V30.072H147.04V32.072ZM158.17 31.2772L159.106 26.8132L157.149 26.4028L156.213 30.8668L158.17 31.2772ZM158.128 25.608H147.112V27.608H158.128V25.608ZM148.112 26.6165L148.184 18.1925L146.184 18.1755L146.112 26.5995L148.112 26.6165ZM147.229 17.185L145.645 17.113L145.554 19.111L147.138 19.183L147.229 17.185ZM144.991 17.319L139.087 21.855L140.305 23.441L146.209 18.905L144.991 17.319ZM139.094 21.8491L132.686 26.6731L133.889 28.2709L140.297 23.4469L139.094 21.8491ZM132.401 27.0106L130.529 30.6106L132.303 31.5334L134.175 27.9334L132.401 27.0106ZM131.379 32.0713L137.211 32.2873L137.285 30.2887L131.453 30.0727L131.379 32.0713ZM136.248 31.2711L135.96 48.2631L137.96 48.2969L138.248 31.3049L136.248 31.2711ZM135.96 48.2596C135.885 51.9195 136.663 54.8605 138.495 56.8882C140.34 58.9322 143.087 59.864 146.536 59.864V57.864C143.432 57.864 141.319 57.0318 139.979 55.5478C138.624 54.0475 137.89 51.6965 137.96 48.3004L135.96 48.2596ZM178.015 40.36L179.014 40.4025L179.072 39.0364L177.753 39.395L178.015 40.36ZM177.583 50.512L178.339 51.1669L178.567 50.9032L178.582 50.5545L177.583 50.512ZM194.215 52.168L195.002 52.7849L195.523 52.1202L194.955 51.4953L194.215 52.168ZM193.495 51.376L194.235 50.7033L193.477 49.8697L192.739 50.7211L193.495 51.376ZM187.879 49.72L188.876 49.7967L188.877 49.7811L188.878 49.7654L187.879 49.72ZM188.455 37.048L189.454 37.0934L189.454 37.0828L188.455 37.048ZM178.015 36.904L177.016 36.8599L177.016 36.8683L178.015 36.904ZM177.943 38.92L178.203 39.8857L178.916 39.6939L178.942 38.9557L177.943 38.92ZM177.727 52.024L178.043 51.0753L177.398 50.8603L176.961 51.3811L177.727 52.024ZM177.943 52.096L178.937 51.9856L178.866 51.3497L178.259 51.1473L177.943 52.096ZM173.551 51.744C172.499 51.744 171.743 51.3872 171.238 50.8196C170.721 50.2379 170.375 49.3272 170.375 48.064H168.375C168.375 49.6808 168.821 51.1101 169.744 52.1484C170.679 53.2008 172.01 53.744 173.551 53.744V51.744ZM170.375 48.064C170.375 46.5645 170.797 45.3663 171.901 44.315C173.055 43.2155 175.026 42.2086 178.277 41.325L177.753 39.395C174.38 40.3114 172.031 41.4285 170.521 42.867C168.961 44.3537 168.375 46.1075 168.375 48.064H170.375ZM177.016 40.3175L176.584 50.4695L178.582 50.5545L179.014 40.4025L177.016 40.3175ZM176.827 49.8571C175.937 50.884 174.825 51.744 173.551 51.744V53.744C175.733 53.744 177.357 52.3 178.339 51.1669L176.827 49.8571ZM184.567 59.936C186.853 59.936 188.966 58.7396 190.698 57.3257C192.449 55.8969 193.942 54.1367 195.002 52.7849L193.428 51.5511C192.399 52.8633 191.013 54.4871 189.434 55.7763C187.836 57.0804 186.169 57.936 184.567 57.936V59.936ZM194.955 51.4953L194.235 50.7033L192.755 52.0487L193.475 52.8407L194.955 51.4953ZM192.739 50.7211C192.271 51.2612 191.818 51.7583 191.371 52.1201C190.908 52.4956 190.593 52.608 190.399 52.608V54.608C191.285 54.608 192.05 54.1444 192.631 53.6739C193.228 53.1897 193.783 52.5708 194.251 52.0309L192.739 50.7211ZM190.399 52.608C189.799 52.608 189.46 52.425 189.247 52.1302C188.997 51.7854 188.776 51.0942 188.876 49.7967L186.882 49.6433C186.766 51.1538 186.977 52.4066 187.627 53.3038C188.314 54.251 189.343 54.608 190.399 54.608V52.608ZM188.878 49.7654L189.454 37.0934L187.456 37.0026L186.88 49.6746L188.878 49.7654ZM189.454 37.0828C189.602 32.8258 188.782 29.5544 186.608 27.3696C184.44 25.1917 181.143 24.312 176.863 24.312V26.312C180.935 26.312 183.578 27.1602 185.19 28.7804C186.796 30.3936 187.595 32.9902 187.456 37.0132L189.454 37.0828ZM176.863 24.312C173.114 24.312 168.665 25.2993 165.129 26.9831C163.359 27.8258 161.768 28.8665 160.606 30.0911C159.441 31.3187 158.655 32.7902 158.655 34.456H160.655C160.655 33.4578 161.12 32.4543 162.056 31.4679C162.996 30.4785 164.356 29.5662 165.989 28.7889C169.257 27.2327 173.412 26.312 176.863 26.312V24.312ZM158.655 34.456C158.655 36.0375 159.348 37.3004 160.454 38.141C161.531 38.9606 162.948 39.344 164.407 39.344V37.344C163.274 37.344 162.314 37.0434 161.664 36.549C161.042 36.0756 160.655 35.3945 160.655 34.456H158.655ZM164.407 39.344C167.683 39.344 170.231 36.9613 170.231 34.096H168.231C168.231 35.6947 166.747 37.344 164.407 37.344V39.344ZM170.231 34.096C170.231 32.7121 169.481 31.498 168.888 30.6818C168.59 30.2729 168.263 29.8763 168.078 29.6363C167.973 29.5008 167.912 29.4154 167.88 29.3629C167.819 29.2617 167.927 29.3899 167.927 29.632H165.927C165.927 30.0001 166.107 30.2971 166.172 30.4028C166.266 30.5573 166.385 30.7172 166.496 30.8607C166.742 31.1786 166.992 31.4751 167.27 31.8582C167.829 32.626 168.231 33.3919 168.231 34.096H170.231ZM167.927 29.632C167.927 29.8246 167.765 29.7295 168.223 29.5369C168.668 29.3499 169.47 29.192 170.743 29.192V27.192C169.352 27.192 168.246 27.3581 167.448 27.6931C166.665 28.0225 165.927 28.6473 165.927 29.632H167.927ZM170.743 29.192C172.906 29.192 174.48 30.0218 175.51 31.3306C176.56 32.6643 177.116 34.5885 177.016 36.8599L179.014 36.9481C179.13 34.3235 178.498 31.8917 177.082 30.0934C175.646 28.2702 173.476 27.192 170.743 27.192V29.192ZM177.016 36.8683L176.944 38.8843L178.942 38.9557L179.014 36.9397L177.016 36.8683ZM177.683 37.9543C170.974 39.758 166.208 41.538 163.108 43.6359C161.546 44.6936 160.369 45.8561 159.586 47.1789C158.798 48.5108 158.439 49.9543 158.439 51.52H160.439C160.439 50.2777 160.719 49.1922 161.307 48.1976C161.902 47.1939 162.84 46.2324 164.229 45.2921C167.034 43.394 171.52 41.682 178.203 39.8857L177.683 37.9543ZM158.439 51.52C158.439 56.243 162.484 59.864 167.287 59.864V57.864C163.45 57.864 160.439 55.005 160.439 51.52H158.439ZM167.287 59.864C171.832 59.864 175.128 56.676 178.493 52.6669L176.961 51.3811C173.558 55.436 170.806 57.864 167.287 57.864V59.864ZM177.411 52.9727L177.627 53.0447L178.259 51.1473L178.043 51.0753L177.411 52.9727ZM176.949 52.2064C177.219 54.6388 178.063 56.5836 179.417 57.9269C180.78 59.2794 182.575 59.936 184.567 59.936V57.936C183.031 57.936 181.766 57.4406 180.825 56.5071C179.875 55.5644 179.171 54.0892 178.937 51.9856L176.949 52.2064ZM226.113 47.92L227.054 48.2587L227.344 47.4524L226.591 47.0421L226.113 47.92ZM225.321 47.488L225.799 46.6101L224.924 46.1326L224.444 47.0067L225.321 47.488ZM217.113 28.696H218.113V28.6544L218.109 28.613L217.113 28.696ZM215.601 32.008L216.596 32.1006L216.601 32.0544V32.008H215.601ZM210.921 60.152C214.818 60.152 218.185 59.0891 220.925 57.0363C223.66 54.9878 225.706 52.0023 227.054 48.2587L225.172 47.5813C223.927 51.0377 222.086 53.6682 219.726 55.4357C217.372 57.1989 214.439 58.152 210.921 58.152V60.152ZM226.591 47.0421L225.799 46.6101L224.842 48.3659L225.634 48.7979L226.591 47.0421ZM224.444 47.0067C222.581 50.3994 219.944 52.032 216.537 52.032V54.032C220.762 54.032 224.028 51.9206 226.197 47.9693L224.444 47.0067ZM216.537 52.032C213.62 52.032 211.468 50.936 210.009 48.9407C208.516 46.8996 207.673 43.8089 207.673 39.712H205.673C205.673 44.0391 206.557 47.6084 208.394 50.1213C210.265 52.68 213.045 54.032 216.537 54.032V52.032ZM207.673 39.712C207.673 35.6693 208.397 32.7237 209.545 30.8242C210.666 28.9686 212.179 28.112 213.945 28.112V26.112C211.39 26.112 209.267 27.4154 207.833 29.7898C206.425 32.1203 205.673 35.4747 205.673 39.712H207.673ZM213.945 28.112C214.64 28.112 215.257 28.2652 215.675 28.4744C216.154 28.714 216.125 28.8813 216.116 28.779L218.109 28.613C218.029 27.6467 217.243 27.022 216.57 26.6856C215.836 26.3188 214.906 26.112 213.945 26.112V28.112ZM216.113 28.696C216.113 28.4703 216.204 28.3379 216.163 28.4171C216.146 28.4493 216.11 28.509 216.042 28.6122C215.926 28.7879 215.704 29.1059 215.509 29.4159C215.123 30.0324 214.601 30.9813 214.601 32.008H216.601C216.601 31.5947 216.834 31.0676 217.204 30.4781C217.388 30.1851 217.543 29.9676 217.711 29.7135C217.785 29.6019 217.867 29.4731 217.933 29.3481C217.974 29.2701 218.113 29.0117 218.113 28.696H216.113ZM214.605 31.9154C214.272 35.4902 216.709 38.912 220.641 38.912V36.912C218.092 36.912 216.353 34.7178 216.596 32.1006L214.605 31.9154ZM220.641 38.912C222.278 38.912 223.78 38.3423 224.877 37.2673C225.979 36.1881 226.609 34.6618 226.609 32.872H224.609C224.609 34.1782 224.158 35.1719 223.478 35.8387C222.793 36.5097 221.811 36.912 220.641 36.912V38.912ZM226.609 32.872C226.609 30.2155 225.114 28.0379 222.763 26.5698C220.429 25.1121 217.207 24.312 213.513 24.312V26.312C216.947 26.312 219.772 27.0599 221.704 28.2662C223.619 29.4621 224.609 31.0645 224.609 32.872H226.609ZM213.513 24.312C202.307 24.312 194.369 32.3891 194.369 43.24H196.369C196.369 33.4989 203.406 26.312 213.513 26.312V24.312ZM194.369 43.24C194.369 53.1432 201.503 60.152 210.921 60.152V58.152C202.626 58.152 196.369 52.0568 196.369 43.24H194.369ZM253.833 52.672L254.569 53.3497L254.958 52.9271L254.789 52.3779L253.833 52.672ZM253.545 51.736L254.501 51.4419L254.072 50.0464L252.926 50.9511L253.545 51.736ZM242.097 46.192L241.097 46.1777L241.097 46.1793L242.097 46.192ZM242.313 31.072V30.072H241.327L241.313 31.0577L242.313 31.072ZM252.465 31.072V32.072H253.277L253.444 31.2772L252.465 31.072ZM253.401 26.608L254.38 26.8132L254.633 25.608H253.401V26.608ZM242.385 26.608L241.385 26.5995L241.377 27.608H242.385V26.608ZM242.457 18.184L243.457 18.1925L243.465 17.2288L242.503 17.185L242.457 18.184ZM240.873 18.112L240.919 17.113L240.554 17.0964L240.264 17.319L240.873 18.112ZM234.969 22.648L235.571 23.447L235.578 23.441L234.969 22.648ZM228.561 27.472L227.96 26.6731L227.779 26.8095L227.674 27.0106L228.561 27.472ZM226.689 31.072L225.802 30.6106L225.073 32.0128L226.652 32.0713L226.689 31.072ZM232.521 31.288L233.521 31.3049L233.538 30.325L232.558 30.2887L232.521 31.288ZM232.233 48.28L233.233 48.3004L233.233 48.2969L232.233 48.28ZM241.809 59.864C247.178 59.864 251.097 57.1164 254.569 53.3497L253.098 51.9943C249.801 55.5716 246.376 57.864 241.809 57.864V59.864ZM254.789 52.3779L254.501 51.4419L252.589 52.0301L252.877 52.9661L254.789 52.3779ZM252.926 50.9511C251.717 51.9055 250.059 52.68 247.713 52.68V54.68C250.551 54.68 252.638 53.7265 254.165 52.5209L252.926 50.9511ZM247.713 52.68C245.947 52.68 244.89 52.2654 244.226 51.4414C243.515 50.56 243.062 48.9856 243.097 46.2047L241.097 46.1793C241.06 49.0864 241.507 51.256 242.669 52.6966C243.876 54.1946 245.663 54.68 247.713 54.68V52.68ZM243.097 46.2063L243.313 31.0863L241.313 31.0577L241.097 46.1777L243.097 46.2063ZM242.313 32.072H252.465V30.072H242.313V32.072ZM253.444 31.2772L254.38 26.8132L252.422 26.4028L251.486 30.8668L253.444 31.2772ZM253.401 25.608H242.385V27.608H253.401V25.608ZM243.385 26.6165L243.457 18.1925L241.457 18.1755L241.385 26.5995L243.385 26.6165ZM242.503 17.185L240.919 17.113L240.828 19.111L242.412 19.183L242.503 17.185ZM240.264 17.319L234.36 21.855L235.578 23.441L241.482 18.905L240.264 17.319ZM234.368 21.8491L227.96 26.6731L229.163 28.2709L235.571 23.4469L234.368 21.8491ZM227.674 27.0106L225.802 30.6106L227.576 31.5334L229.448 27.9334L227.674 27.0106ZM226.652 32.0713L232.484 32.2873L232.558 30.2887L226.726 30.0727L226.652 32.0713ZM231.521 31.2711L231.233 48.2631L233.233 48.2969L233.521 31.3049L231.521 31.2711ZM231.233 48.2596C231.159 51.9195 231.937 54.8605 233.768 56.8882C235.614 58.9322 238.361 59.864 241.809 59.864V57.864C238.706 57.864 236.593 57.0318 235.252 55.5478C233.898 54.0475 233.164 51.6965 233.233 48.3004L231.233 48.2596ZM264.961 56.776L264.851 55.7821L264.106 55.8648L263.976 56.6022L264.961 56.776ZM264.745 58L263.76 57.8262L263.553 59H264.745V58ZM281.089 58V59H282.281L282.074 57.8262L281.089 58ZM280.873 56.776L281.858 56.6022L281.727 55.859L280.976 55.7813L280.873 56.776ZM278.785 56.56L278.888 55.5653L278.877 55.5642L278.867 55.5633L278.785 56.56ZM273.745 50.584L274.744 50.6308L274.745 50.6186L274.745 50.6063L273.745 50.584ZM274.465 18.328V17.328H273.487L273.465 18.3057L274.465 18.328ZM274.753 18.328L275.696 17.9942L275.46 17.328H274.753V18.328ZM288.649 57.568L287.706 57.9018L287.942 58.568H288.649V57.568ZM291.961 57.568V58.568H292.664L292.902 57.9065L291.961 57.568ZM306.649 16.744V15.744H305.946L305.708 16.4055L306.649 16.744ZM306.937 16.744L307.937 16.7172L307.911 15.744H306.937V16.744ZM307.873 51.664L308.873 51.6444L308.873 51.6372L307.873 51.664ZM305.353 56.416L305.457 57.4106L305.46 57.4103L305.353 56.416ZM301.897 56.776L301.794 55.7814L301.043 55.8595L300.912 56.6022L301.897 56.776ZM301.681 58L300.696 57.8262L300.489 59H301.681V58ZM326.377 58V59H327.569L327.362 57.8262L326.377 58ZM326.161 56.776L327.146 56.6022L327.02 55.8885L326.303 55.7861L326.161 56.776ZM323.641 56.416L323.783 55.4261L323.775 55.425L323.768 55.4241L323.641 56.416ZM320.113 51.808H321.113V51.7969L321.113 51.7858L320.113 51.808ZM319.321 16.168H318.321V16.1791L318.321 16.1902L319.321 16.168ZM322.201 14.584L322.124 13.5869L322.109 13.5881L322.095 13.5897L322.201 14.584ZM325.945 14.296L326.022 15.2931L326.803 15.233L326.932 14.4604L325.945 14.296ZM326.161 13L327.148 13.1644L327.342 12H326.161V13ZM305.929 13V12H305.218L304.985 12.6714L305.929 13ZM295.633 42.592V43.592H296.344L296.578 42.9206L295.633 42.592ZM295.345 42.592L294.399 42.9165L294.631 43.592H295.345V42.592ZM285.193 13L286.139 12.6755L285.907 12H285.193V13ZM265.033 13V12H263.853L264.047 13.1644L265.033 13ZM265.249 14.296L264.263 14.4604L264.387 15.2039L265.136 15.2895L265.249 14.296ZM267.769 14.584L267.906 13.5934L267.894 13.5918L267.883 13.5905L267.769 14.584ZM272.737 17.68L273.737 17.709L273.746 17.3854L273.564 17.1177L272.737 17.68ZM271.801 49.936L272.8 49.9788L272.801 49.965L271.801 49.936ZM266.905 56.56L266.813 55.5643L266.804 55.5651L266.795 55.5661L266.905 56.56ZM263.976 56.6022L263.76 57.8262L265.73 58.1738L265.946 56.9498L263.976 56.6022ZM264.745 59H281.089V57H264.745V59ZM282.074 57.8262L281.858 56.6022L279.888 56.9498L280.104 58.1738L282.074 57.8262ZM280.976 55.7813L278.888 55.5653L278.682 57.5547L280.77 57.7707L280.976 55.7813ZM278.867 55.5633C276.637 55.3806 275.74 55.0394 275.301 54.5194C275.087 54.2669 274.913 53.8899 274.811 53.2537C274.708 52.608 274.691 51.7624 274.744 50.6308L272.746 50.5372C272.691 51.7096 272.701 52.718 272.836 53.5685C272.973 54.4286 273.249 55.1901 273.773 55.8106C274.81 57.0366 276.541 57.3794 278.703 57.5567L278.867 55.5633ZM274.745 50.6063L275.465 18.3503L273.465 18.3057L272.745 50.5617L274.745 50.6063ZM274.465 19.328H274.753V17.328H274.465V19.328ZM273.81 18.6618L287.706 57.9018L289.592 57.2342L275.696 17.9942L273.81 18.6618ZM288.649 58.568H291.961V56.568H288.649V58.568ZM292.902 57.9065L307.59 17.0825L305.708 16.4055L291.02 57.2295L292.902 57.9065ZM306.649 17.744H306.937V15.744H306.649V17.744ZM305.937 16.7708L306.873 51.6908L308.873 51.6372L307.937 16.7172L305.937 16.7708ZM306.873 51.6836C306.91 53.5411 306.762 54.4153 306.52 54.8532C306.369 55.1281 306.133 55.3267 305.247 55.4217L305.46 57.4103C306.589 57.2893 307.649 56.9479 308.272 55.8188C308.804 54.8526 308.909 53.4589 308.873 51.6444L306.873 51.6836ZM305.25 55.4214L301.794 55.7814L302.001 57.7706L305.457 57.4106L305.25 55.4214ZM300.912 56.6022L300.696 57.8262L302.666 58.1738L302.882 56.9498L300.912 56.6022ZM301.681 59H326.377V57H301.681V59ZM327.362 57.8262L327.146 56.6022L325.176 56.9498L325.392 58.1738L327.362 57.8262ZM326.303 55.7861L323.783 55.4261L323.5 57.4059L326.02 57.7659L326.303 55.7861ZM323.768 55.4241C323.064 55.3338 322.573 55.2523 322.205 55.1368C321.856 55.0274 321.69 54.9087 321.584 54.7851C321.472 54.6535 321.345 54.4182 321.252 53.9309C321.158 53.4379 321.113 52.7608 321.113 51.808H319.113C319.113 52.7992 319.158 53.6251 319.287 54.3043C319.417 54.9893 319.646 55.5955 320.064 56.0849C320.489 56.5823 321.03 56.8641 321.606 57.045C322.162 57.2197 322.814 57.3182 323.514 57.4079L323.768 55.4241ZM321.113 51.7858L320.321 16.1458L318.321 16.1902L319.113 51.8302L321.113 51.7858ZM320.321 16.168C320.321 16.3269 320.219 16.2563 320.529 16.0657C320.827 15.8825 321.387 15.677 322.308 15.5783L322.095 13.5897C321 13.707 320.119 13.9695 319.481 14.3623C318.855 14.7477 318.321 15.3611 318.321 16.168H320.321ZM322.278 15.5811L326.022 15.2931L325.868 13.2989L322.124 13.5869L322.278 15.5811ZM326.932 14.4604L327.148 13.1644L325.175 12.8356L324.959 14.1316L326.932 14.4604ZM326.161 12H305.929V14H326.161V12ZM304.985 12.6714L294.689 42.2634L296.578 42.9206L306.874 13.3286L304.985 12.6714ZM295.633 41.592H295.345V43.592H295.633V41.592ZM296.291 42.2675L286.139 12.6755L284.247 13.3245L294.399 42.9165L296.291 42.2675ZM285.193 12H265.033V14H285.193V12ZM264.047 13.1644L264.263 14.4604L266.236 14.1316L266.02 12.8356L264.047 13.1644ZM265.136 15.2895L267.656 15.5775L267.883 13.5905L265.363 13.3025L265.136 15.2895ZM267.632 15.5746C269.441 15.8241 270.846 16.6771 271.91 18.2423L273.564 17.1177C272.18 15.0829 270.273 13.9199 267.906 13.5934L267.632 15.5746ZM271.738 17.651L270.802 49.907L272.801 49.965L273.737 17.709L271.738 17.651ZM270.802 49.8932C270.749 51.138 270.661 52.0984 270.511 52.851C270.361 53.6024 270.16 54.0852 269.92 54.4162C269.483 55.0198 268.715 55.3882 266.813 55.5643L266.997 57.5557C268.983 57.3718 270.555 56.9482 271.54 55.5898C272.011 54.9398 272.292 54.1491 272.472 53.2422C272.653 52.3366 272.746 51.254 272.8 49.9788L270.802 49.8932ZM266.795 55.5661L264.851 55.7821L265.072 57.7699L267.016 57.5539L266.795 55.5661ZM348.301 36.4L348.308 37.4L349.301 37.3928V36.4H348.301ZM338.293 36.472L337.296 36.3918L337.208 37.4798L338.3 37.472L338.293 36.472ZM358.237 47.92L359.18 48.2504L359.471 47.4193L358.684 47.0256L358.237 47.92ZM357.373 47.488L357.82 46.5936L356.959 46.1632L356.496 47.0067L357.373 47.488ZM338.293 37.768V36.768H337.398L337.299 37.6576L338.293 37.768ZM349.093 37.984L349.12 36.9844L349.106 36.984H349.093V37.984ZM357.733 38.128L357.709 39.1277L358.531 39.1468L358.709 38.3449L357.733 38.128ZM348.293 35.4L338.285 35.472L338.3 37.472L348.308 37.4L348.293 35.4ZM339.289 36.5522C339.533 33.5198 340.242 31.3211 341.149 29.9125C342.049 28.5151 343.083 27.968 344.053 27.968V25.968C342.214 25.968 340.62 27.0409 339.468 28.8295C338.323 30.6069 337.556 33.1602 337.296 36.3918L339.289 36.5522ZM344.053 27.968C345.094 27.968 345.895 28.637 346.48 30.2214C347.067 31.8092 347.301 34.0258 347.301 36.4H349.301C349.301 33.9502 349.066 31.4508 348.357 29.5286C347.646 27.603 346.323 25.968 344.053 25.968V27.968ZM342.757 60.152C346.927 60.152 350.388 59.097 353.147 57.0374C355.9 54.9819 357.872 51.9878 359.18 48.2504L357.293 47.5896C356.081 51.0522 354.309 53.6741 351.95 55.4346C349.597 57.191 346.578 58.152 342.757 58.152V60.152ZM358.684 47.0256L357.82 46.5936L356.925 48.3824L357.789 48.8144L358.684 47.0256ZM356.496 47.0067C354.635 50.3955 352 52.032 348.517 52.032V54.032C352.81 54.032 356.078 51.9245 358.249 47.9693L356.496 47.0067ZM348.517 52.032C345.654 52.032 343.369 50.8574 341.778 48.8397C340.168 46.7993 339.221 43.8317 339.221 40.216H337.221C337.221 44.1603 338.253 47.6007 340.207 50.0783C342.18 52.5786 345.043 54.032 348.517 54.032V52.032ZM339.221 40.216C339.221 39.5427 339.222 38.4578 339.286 37.8784L337.299 37.6576C337.219 38.3742 337.221 39.5933 337.221 40.216H339.221ZM338.293 38.768C339.066 38.768 340.586 38.8211 342.531 38.8756C344.459 38.9297 346.774 38.984 349.093 38.984V36.984C346.803 36.984 344.51 36.9303 342.587 36.8764C340.679 36.8229 339.103 36.768 338.293 36.768V38.768ZM349.066 38.9836C351.691 39.0546 354.685 39.0574 357.709 39.1277L357.756 37.1283C354.588 37.0546 351.822 37.0574 349.12 36.9844L349.066 38.9836ZM358.709 38.3449C358.871 37.6136 358.949 36.8194 358.949 35.968H356.949C356.949 36.7006 356.882 37.3464 356.756 37.9111L358.709 38.3449ZM358.949 35.968C358.949 29.9521 353.971 24.168 345.061 24.168V26.168C352.998 26.168 356.949 31.1839 356.949 35.968H358.949ZM345.061 24.168C334.434 24.168 326.205 32.3144 326.205 42.952H328.205C328.205 33.4296 335.528 26.168 345.061 26.168V24.168ZM326.205 42.952C326.205 52.981 333.321 60.152 342.757 60.152V58.152C334.48 58.152 328.205 51.931 328.205 42.952H326.205Z" fill="#DAD7CD" fill-opacity="0.39"/>
<path d="M79.1018 72.576C82.3658 72.576 86.4938 71.664 88.2698 70.896L90.5258 70.944L91.8698 61.296H90.2378C89.8538 62.208 89.5178 63.024 89.1818 63.744C88.6538 64.944 88.1258 66.144 88.1258 66.192C86.3498 69.456 83.5178 71.424 79.4378 71.424C73.9658 71.424 70.0778 66 70.0778 57.024C70.0778 48.432 73.5338 42.576 79.8218 42.576C81.9338 42.576 83.9498 43.152 85.0538 43.728L89.5178 52.416H91.0538L90.7178 42L86.9258 42.912C85.3418 42.096 82.5578 41.376 79.5338 41.376C68.0618 41.376 61.5818 48.576 61.5818 57.408C61.5818 66.096 68.2538 72.576 79.1018 72.576ZM106.525 71.664C105.613 71.664 104.845 71.424 104.269 70.848C103.069 69.504 102.109 66.72 102.109 60.96C102.109 55.008 103.645 51.312 106.669 51.312C107.581 51.312 108.205 51.504 108.829 52.128C110.125 53.424 111.037 56.16 111.037 61.872C111.037 67.632 109.453 71.664 106.525 71.664ZM106.333 72.672C113.677 72.672 118.621 67.632 118.621 61.296C118.621 55.296 114.301 50.208 106.909 50.208C99.6128 50.208 94.6208 55.248 94.6208 61.488C94.6208 67.584 98.8928 72.672 106.333 72.672ZM120.87 71.184L120.726 72H133.158L133.062 71.184L132.294 71.136C130.614 70.992 130.422 70.8 130.422 70.368V63.312V55.536C131.19 55.008 132.246 54.576 133.734 54.576C135.99 54.576 137.526 55.488 137.526 59.136V70.32C137.526 70.704 137.574 70.992 135.894 71.136L135.126 71.184L134.982 72H147.462L147.318 71.184L146.79 71.136C144.678 70.8 144.438 70.656 144.438 70.32V57.648C144.438 55.296 143.958 53.088 142.806 51.936C141.702 50.832 140.454 50.208 138.87 50.208C135.846 50.208 132.966 52.32 130.518 54.384H130.422L130.518 50.256L120.534 53.04L120.486 53.664L121.446 53.904C123.078 54.384 123.462 54.768 123.462 57.744V70.32C123.462 70.896 122.934 70.992 121.542 71.136L120.87 71.184ZM157.691 72.576C161.003 72.576 163.451 70.896 165.707 68.448L165.515 67.824C164.603 68.544 163.355 69.12 161.627 69.12C159.083 69.12 157.835 67.92 157.883 64.128L158.027 54.048H164.795L165.419 51.072H158.075L158.123 45.456L157.067 45.408L153.131 48.432L148.859 51.648L147.611 54.048L151.499 54.192L151.307 65.52C151.211 70.224 153.323 72.576 157.691 72.576ZM175.701 68.496C173.973 68.496 172.917 67.296 172.917 65.376C172.917 63.072 174.261 61.44 178.677 60.24L178.389 67.008C177.765 67.728 176.853 68.496 175.701 68.496ZM183.045 72.624C185.637 72.624 188.085 69.888 189.477 68.112L188.997 67.584C188.373 68.304 187.653 69.072 186.933 69.072C185.829 69.072 185.109 68.352 185.253 66.48L185.637 58.032C185.829 52.512 183.477 50.208 177.909 50.208C173.109 50.208 166.437 52.752 166.437 56.304C166.437 57.984 167.877 58.896 169.605 58.896C171.477 58.896 172.821 57.552 172.821 56.064C172.821 54.672 171.285 53.424 171.285 53.088C171.285 52.56 172.053 52.128 173.829 52.128C177.093 52.128 178.821 54.672 178.677 57.936L178.629 59.28C169.701 61.68 166.293 63.936 166.293 67.68C166.293 70.416 168.645 72.576 171.525 72.576C174.213 72.576 176.229 70.704 178.485 68.016L178.629 68.064C178.965 71.088 180.693 72.624 183.045 72.624ZM200.614 72.768C205.558 72.768 209.014 70.08 210.742 65.28L210.214 64.992C208.87 67.44 206.902 68.688 204.358 68.688C200.086 68.688 197.782 65.424 197.782 59.808C197.782 54.288 199.75 51.408 202.63 51.408C203.734 51.408 204.694 51.888 204.742 52.464C204.742 52.704 203.734 53.712 203.734 54.672C203.542 56.736 204.934 58.608 207.094 58.608C208.966 58.608 210.406 57.312 210.406 55.248C210.406 52.272 207.094 50.208 202.342 50.208C195.238 50.208 190.246 55.296 190.246 62.16C190.246 68.4 194.71 72.768 200.614 72.768ZM221.206 72.576C224.518 72.576 226.966 70.896 229.222 68.448L229.03 67.824C228.118 68.544 226.87 69.12 225.142 69.12C222.598 69.12 221.35 67.92 221.398 64.128L221.542 54.048H228.31L228.934 51.072H221.59L221.638 45.456L220.582 45.408L216.646 48.432L212.374 51.648L211.126 54.048L215.014 54.192L214.822 65.52C214.726 70.224 216.838 72.576 221.206 72.576ZM236.641 71.184L236.497 72H247.393L247.249 71.184L245.857 71.04C242.929 70.8 242.353 70.128 242.497 67.056L242.977 45.552H243.169L252.433 71.712H254.641L264.433 44.496H264.625L265.249 67.776C265.297 70.224 264.913 70.8 263.569 70.944L261.265 71.184L261.121 72H277.585L277.441 71.184L275.761 70.944C273.889 70.704 273.409 70.464 273.409 67.872L272.881 44.112C272.881 43.68 273.457 43.2 274.801 43.056L277.297 42.864L277.441 42H263.953L257.089 61.728H256.897L250.129 42H236.689L236.833 42.864L238.513 43.056C239.905 43.248 241.009 43.92 241.825 45.12L241.201 66.624C241.057 69.984 240.529 70.8 237.937 71.04L236.641 71.184ZM292.2 57.6L285.528 57.648C285.864 53.472 287.496 51.312 289.368 51.312C291.576 51.312 292.2 54.384 292.2 57.6ZM288.504 72.768C293.832 72.768 297.144 70.08 298.824 65.28L298.248 64.992C296.904 67.44 294.936 68.688 292.344 68.688C288.12 68.688 285.48 65.184 285.48 60.144C285.48 59.712 285.48 58.944 285.528 58.512C286.584 58.512 289.656 58.656 292.728 58.656C294.504 58.704 296.424 58.704 298.488 58.752C298.584 58.32 298.632 57.84 298.632 57.312C298.632 53.712 295.656 50.112 290.04 50.112C283.32 50.112 278.136 55.248 278.136 61.968C278.136 68.304 282.6 72.768 288.504 72.768Z" fill="#DAD7CD"/>
</svg>
