<svg width="260" height="100" viewBox="0 0 260 100" fill="none" xmlns="http://www.w3.org/2000/svg">
<path d="M45.3499 56.344L45.3712 55.3442L45.1532 55.3396L44.953 55.4261L45.3499 56.344ZM48.7339 56.416L48.7127 57.4158L49.6017 57.4347L49.7244 56.554L48.7339 56.416ZM50.7499 41.944L51.7404 42.082L51.8989 40.944H50.7499V41.944ZM48.3019 41.944V40.944H47.638L47.3803 41.5559L48.3019 41.944ZM46.7179 45.616L45.8118 45.1931L45.8071 45.2031L45.8026 45.2133L46.7179 45.616ZM45.1339 49.288L46.0123 49.7659L46.1339 49.5424V49.288H45.1339ZM40.5259 15.592L41.4154 15.135L41.2702 14.8524L40.9885 14.7054L40.5259 15.592ZM47.2219 28.624L46.3325 29.081L46.6115 29.624H47.2219V28.624ZM49.5259 28.624V29.624H50.5587L50.5254 28.5918L49.5259 28.624ZM49.0219 13L50.0214 12.9678L49.9818 11.7406L48.7881 12.0277L49.0219 13ZM43.3339 14.368L42.876 15.257L43.2064 15.4272L43.5678 15.3403L43.3339 14.368ZM31.5979 59.864C36.6143 59.864 42.9435 58.4741 45.7468 57.2619L44.953 55.4261C42.4284 56.5179 36.3736 57.864 31.5979 57.864V59.864ZM45.3287 57.3438L48.7127 57.4158L48.7552 55.4162L45.3712 55.3442L45.3287 57.3438ZM49.7244 56.554L51.7404 42.082L49.7595 41.806L47.7435 56.278L49.7244 56.554ZM50.7499 40.944H48.3019V42.944H50.7499V40.944ZM47.3803 41.5559C46.7989 42.9368 46.3053 44.1355 45.8118 45.1931L47.6241 46.0389C48.1386 44.9365 48.653 43.6872 49.2236 42.3321L47.3803 41.5559ZM45.8026 45.2133C45.407 46.1124 45.0099 47.015 44.7117 47.7017C44.5628 48.0445 44.4369 48.3376 44.3476 48.551C44.3033 48.6567 44.2654 48.7492 44.2376 48.8207C44.2242 48.8553 44.2093 48.8945 44.1965 48.9319C44.1905 48.9497 44.1809 48.9787 44.1716 49.0126C44.167 49.0295 44.1598 49.0573 44.1531 49.0915C44.1484 49.1154 44.1339 49.1909 44.1339 49.288H46.1339C46.1339 49.3829 46.1199 49.4552 46.1159 49.4753C46.11 49.5055 46.104 49.5286 46.1009 49.5398C46.0947 49.5626 46.0896 49.5772 46.0895 49.5774C46.0887 49.5797 46.0917 49.5711 46.1014 49.546C46.12 49.4983 46.1502 49.4243 46.1925 49.323C46.2765 49.1224 46.3981 48.8395 46.5462 48.4983C46.842 47.817 47.2369 46.9196 47.6333 46.0187L45.8026 45.2133ZM44.2556 48.8101C41.7497 53.4153 37.8216 56.136 32.1019 56.136V58.136C38.6223 58.136 43.1901 54.9527 46.0123 49.7659L44.2556 48.8101ZM32.1019 56.136C28.3743 56.136 25.1587 54.3059 22.8354 50.8294C20.494 47.3258 19.0619 42.1386 19.0619 35.536H17.0619C17.0619 42.3974 18.5459 48.0102 21.1725 51.9406C23.8172 55.8981 27.6216 58.136 32.1019 58.136V56.136ZM19.0619 35.536C19.0619 29.2062 20.338 24.0012 22.6713 20.4121C24.9766 16.8662 28.3265 14.864 32.6779 14.864V12.864C27.5974 12.864 23.6393 15.2538 20.9945 19.3219C18.3779 23.3468 17.0619 28.9778 17.0619 35.536H19.0619ZM32.6779 14.864C35.6938 14.864 38.5579 15.6931 40.0634 16.4786L40.9885 14.7054C39.182 13.7629 35.9981 12.864 32.6779 12.864V14.864ZM39.6365 16.049L46.3325 29.081L48.1114 28.167L41.4154 15.135L39.6365 16.049ZM47.2219 29.624H49.5259V27.624H47.2219V29.624ZM50.5254 28.5918L50.0214 12.9678L48.0225 13.0322L48.5265 28.6562L50.5254 28.5918ZM48.7881 12.0277L43.1001 13.3957L43.5678 15.3403L49.2558 13.9723L48.7881 12.0277ZM43.7919 13.479C41.2512 12.1702 36.9132 11.064 32.2459 11.064V13.064C36.6507 13.064 40.6646 14.1178 42.876 15.257L43.7919 13.479ZM32.2459 11.064C23.4288 11.064 16.436 13.8348 11.6399 18.3953C6.84398 22.9556 4.31794 29.2375 4.31794 36.112H6.31794C6.31794 29.7385 8.65189 23.9964 13.018 19.8447C17.3839 15.6932 23.855 13.064 32.2459 13.064V11.064ZM4.31794 36.112C4.31794 42.8971 6.92987 48.8614 11.6891 53.1202C16.4413 57.3727 23.2639 59.864 31.5979 59.864V57.864C23.66 57.864 17.3425 55.4953 13.0228 51.6298C8.71 47.7705 6.31794 42.3589 6.31794 36.112H4.31794ZM69.3484 56.272L68.6025 56.938L68.6213 56.9591L68.6413 56.9791L69.3484 56.272ZM76.1884 28.192L76.8955 27.4849V27.4849L76.1884 28.192ZM72.7324 56.496C71.5422 56.496 70.6781 56.1875 70.0555 55.5649L68.6413 56.9791C69.7468 58.0845 71.1867 58.496 72.7324 58.496V56.496ZM70.0944 55.606C68.5558 53.8828 67.1084 50.0377 67.1084 41.44H65.1084C65.1084 50.1223 66.5411 54.6292 68.6025 56.938L70.0944 55.606ZM67.1084 41.44C67.1084 37.0365 67.6804 33.5844 68.737 31.2715C69.778 28.9929 71.1994 27.968 72.9484 27.968V25.968C70.1615 25.968 68.1629 27.7151 66.9179 30.4405C65.6884 33.1316 65.1084 36.9155 65.1084 41.44H67.1084ZM72.9484 27.968C73.5659 27.968 74.0156 28.0337 74.39 28.1693C74.7541 28.3011 75.1008 28.5185 75.4813 28.8991L76.8955 27.4849C76.3401 26.9295 75.7508 26.5349 75.0709 26.2887C74.4013 26.0463 73.699 25.968 72.9484 25.968V27.968ZM75.4813 28.8991C77.1144 30.5322 78.5004 34.2549 78.5004 42.808H80.5004C80.5004 34.2251 79.1505 29.7398 76.8955 27.4849L75.4813 28.8991ZM78.5004 42.808C78.5004 47.0579 77.913 50.5743 76.8484 52.9885C75.7827 55.4053 74.3616 56.496 72.7324 56.496V58.496C75.4953 58.496 77.4581 56.5627 78.6784 53.7955C79.8998 51.0257 80.5004 47.1981 80.5004 42.808H78.5004ZM72.4444 60.008C83.9665 60.008 91.8764 52.0454 91.8764 41.944H89.8764C89.8764 50.8506 82.9544 58.008 72.4444 58.008V60.008ZM91.8764 41.944C91.8764 37.2024 90.1673 32.7845 86.9607 29.5491C83.7484 26.3079 79.0917 24.312 73.3084 24.312V26.312C78.6132 26.312 82.7405 28.1321 85.5402 30.9569C88.3456 33.7875 89.8764 37.6856 89.8764 41.944H91.8764ZM73.3084 24.312C61.8668 24.312 53.8764 32.2666 53.8764 42.232H55.8764C55.8764 33.4774 62.8621 26.312 73.3084 26.312V24.312ZM53.8764 42.232C53.8764 47.0385 55.5629 51.493 58.762 54.7498C61.9673 58.0128 66.6265 60.008 72.4444 60.008V58.008C67.1024 58.008 62.9775 56.1872 60.1888 53.3482C57.394 50.503 55.8764 46.5695 55.8764 42.232H53.8764ZM94.2497 56.776L94.1785 55.7785L93.4005 55.8341L93.265 56.6022L94.2497 56.776ZM94.0338 58L93.049 57.8262L92.8418 59H94.0338V58ZM112.682 58V59H113.806L113.675 57.8832L112.682 58ZM112.538 56.776L113.531 56.6592L113.433 55.83L112.6 55.7779L112.538 56.776ZM111.386 56.704L111.3 57.7003L111.312 57.7013L111.323 57.7021L111.386 56.704ZM108.578 33.304L108.011 32.48L107.578 32.778V33.304H108.578ZM116.786 56.704L116.848 57.7021L116.86 57.7013L116.871 57.7003L116.786 56.704ZM115.634 56.776L115.571 55.7779L114.786 55.827L114.649 56.6022L115.634 56.776ZM115.418 58L114.433 57.8262L114.226 59H115.418V58ZM134.138 58V59H135.33L135.123 57.8262L134.138 58ZM133.922 56.776L134.907 56.6022L134.774 55.8493L134.012 55.7801L133.922 56.776ZM133.13 56.704L132.973 57.6916L133.006 57.6969L133.039 57.6999L133.13 56.704ZM108.722 31.576V32.576H109.087L109.366 32.3405L108.722 31.576ZM108.578 31.576L107.578 31.5527L107.554 32.576H108.578V31.576ZM108.722 25.384L109.721 25.4072L109.753 24.0583L108.453 24.4207L108.722 25.384ZM93.7458 29.56L93.4771 28.5967L92.8024 28.7849L92.7487 29.4833L93.7458 29.56ZM93.6738 30.496L92.6767 30.4193L92.6119 31.2613L93.4312 31.4661L93.6738 30.496ZM95.1137 30.856L95.3959 29.8966L95.3762 29.8908L95.3563 29.8859L95.1137 30.856ZM95.2578 56.704L95.329 57.7015L95.3448 57.7003L95.3606 57.6987L95.2578 56.704ZM93.265 56.6022L93.049 57.8262L95.0185 58.1738L95.2345 56.9498L93.265 56.6022ZM94.0338 59H112.682V57H94.0338V59ZM113.675 57.8832L113.531 56.6592L111.545 56.8928L111.689 58.1168L113.675 57.8832ZM112.6 55.7779L111.448 55.7059L111.323 57.7021L112.475 57.7741L112.6 55.7779ZM111.471 55.7077C110.185 55.5974 109.66 55.4771 109.458 55.3833C109.397 55.3545 109.475 55.3774 109.54 55.4956C109.593 55.594 109.578 55.6559 109.578 55.552H107.578C107.578 55.7721 107.598 56.113 107.785 56.4544C107.982 56.8156 108.29 57.0455 108.615 57.1967C109.187 57.4629 110.066 57.5946 111.3 57.7003L111.471 55.7077ZM109.578 55.552V44.968H107.578V55.552H109.578ZM109.578 44.968V33.304H107.578V44.968H109.578ZM109.144 34.128C110.138 33.4448 111.526 32.864 113.546 32.864V30.864C111.101 30.864 109.321 31.5792 108.011 32.48L109.144 34.128ZM113.546 32.864C115.129 32.864 116.22 33.188 116.942 33.9296C117.675 34.6825 118.234 36.076 118.234 38.704H120.234C120.234 35.86 119.64 33.8335 118.375 32.5344C117.099 31.224 115.346 30.864 113.546 30.864V32.864ZM118.234 38.704V55.48H120.234V38.704H118.234ZM118.234 55.48C118.234 55.6883 118.23 55.6622 118.238 55.6311C118.266 55.5229 118.339 55.4375 118.383 55.4066C118.386 55.4042 118.302 55.4604 118.007 55.528C117.724 55.5932 117.308 55.6556 116.7 55.7077L116.871 57.7003C117.524 57.6444 118.044 57.5718 118.455 57.4772C118.856 57.3851 119.226 57.2568 119.527 57.0474C119.868 56.8095 120.08 56.4946 120.173 56.1367C120.247 55.8558 120.234 55.5597 120.234 55.48H118.234ZM116.723 55.7059L115.571 55.7779L115.696 57.7741L116.848 57.7021L116.723 55.7059ZM114.649 56.6022L114.433 57.8262L116.403 58.1738L116.619 56.9498L114.649 56.6022ZM115.418 59H134.138V57H115.418V59ZM135.123 57.8262L134.907 56.6022L132.937 56.9498L133.153 58.1738L135.123 57.8262ZM134.012 55.7801L133.22 55.7081L133.039 57.6999L133.831 57.7719L134.012 55.7801ZM133.287 55.7164C131.68 55.4608 130.901 55.2935 130.525 55.1543C130.339 55.0852 130.389 55.07 130.473 55.1694C130.523 55.2295 130.562 55.3026 130.584 55.3774C130.603 55.4435 130.602 55.4867 130.602 55.48H128.602C128.602 55.7384 128.652 56.1117 128.942 56.4566C129.192 56.7539 129.531 56.9188 129.83 57.0297C130.426 57.2505 131.412 57.4432 132.973 57.6916L133.287 55.7164ZM130.602 55.48V36.472H128.602V55.48H130.602ZM130.602 36.472C130.602 34.646 130.416 32.8455 129.992 31.2553C129.571 29.6752 128.895 28.2305 127.861 27.1969L126.447 28.6111C127.141 29.3055 127.689 30.3808 128.06 31.7707C128.427 33.1505 128.602 34.77 128.602 36.472H130.602ZM127.861 27.1969C126.053 25.3886 123.937 24.312 121.25 24.312V26.312C123.315 26.312 124.943 27.1074 126.447 28.6111L127.861 27.1969ZM121.25 24.312C118.75 24.312 116.364 25.1839 114.173 26.4104C111.982 27.6371 109.926 29.253 108.077 30.8115L109.366 32.3405C111.19 30.803 113.129 29.2869 115.15 28.1556C117.171 27.0241 119.214 26.312 121.25 26.312V24.312ZM108.722 30.576H108.578V32.576H108.722V30.576ZM109.577 31.5992L109.721 25.4072L107.722 25.3608L107.578 31.5527L109.577 31.5992ZM108.453 24.4207L93.4771 28.5967L94.0144 30.5233L108.99 26.3473L108.453 24.4207ZM92.7487 29.4833L92.6767 30.4193L94.6708 30.5727L94.7428 29.6367L92.7487 29.4833ZM93.4312 31.4661L94.8712 31.8261L95.3563 29.8859L93.9163 29.5259L93.4312 31.4661ZM94.8316 31.8154C96.0624 32.1774 96.4413 32.4159 96.6743 32.826C96.8107 33.0662 96.9346 33.4379 97.0182 34.066C97.1017 34.6927 97.1377 35.5134 97.1377 36.616H99.1377C99.1377 35.4866 99.1018 34.5613 99.0008 33.802C98.8999 33.0441 98.7268 32.3898 98.4132 31.838C97.7462 30.6641 96.6131 30.2546 95.3959 29.8966L94.8316 31.8154ZM97.1377 36.616V55.48H99.1377V36.616H97.1377ZM97.1377 55.48C97.1377 55.5366 97.1281 55.4741 97.1899 55.3941C97.2394 55.3301 97.2647 55.3484 97.1316 55.3979C96.8186 55.5145 96.2446 55.5966 95.1549 55.7093L95.3606 57.6987C96.3589 57.5954 97.2249 57.4975 97.8299 57.2721C98.1558 57.1506 98.5096 56.9574 98.7728 56.6166C99.0484 56.2599 99.1377 55.8554 99.1377 55.48H97.1377ZM95.1865 55.7065L94.1785 55.7785L94.321 57.7735L95.329 57.7015L95.1865 55.7065ZM161.505 52.672L162.24 53.3497L162.63 52.9271L162.461 52.3779L161.505 52.672ZM161.217 51.736L162.173 51.4419L161.743 50.0464L160.597 50.9511L161.217 51.736ZM149.769 46.192L148.769 46.1777L148.769 46.1793L149.769 46.192ZM149.985 31.072V30.072H148.999L148.985 31.0577L149.985 31.072ZM160.137 31.072V32.072H160.949L161.116 31.2772L160.137 31.072ZM161.073 26.608L162.052 26.8132L162.304 25.608H161.073V26.608ZM150.057 26.608L149.057 26.5995L149.048 27.608H150.057V26.608ZM150.129 18.184L151.129 18.1925L151.137 17.2288L150.174 17.185L150.129 18.184ZM148.545 18.112L148.59 17.113L148.226 17.0964L147.936 17.319L148.545 18.112ZM142.641 22.648L143.243 23.447L143.25 23.441L142.641 22.648ZM136.233 27.472L135.632 26.6731L135.45 26.8095L135.346 27.0106L136.233 27.472ZM134.361 31.072L133.474 30.6106L132.745 32.0128L134.324 32.0713L134.361 31.072ZM140.193 31.288L141.193 31.3049L141.21 30.325L140.23 30.2887L140.193 31.288ZM139.905 48.28L140.905 48.3004L140.905 48.2969L139.905 48.28ZM149.481 59.864C154.85 59.864 158.769 57.1164 162.24 53.3497L160.77 51.9943C157.473 55.5716 154.048 57.864 149.481 57.864V59.864ZM162.461 52.3779L162.173 51.4419L160.261 52.0301L160.549 52.9661L162.461 52.3779ZM160.597 50.9511C159.389 51.9055 157.731 52.68 155.385 52.68V54.68C158.223 54.68 160.31 53.7265 161.837 52.5209L160.597 50.9511ZM155.385 52.68C153.619 52.68 152.562 52.2654 151.898 51.4414C151.187 50.56 150.734 48.9856 150.769 46.2047L148.769 46.1793C148.732 49.0864 149.179 51.256 150.341 52.6966C151.548 54.1946 153.335 54.68 155.385 54.68V52.68ZM150.769 46.2063L150.985 31.0863L148.985 31.0577L148.769 46.1777L150.769 46.2063ZM149.985 32.072H160.137V30.072H149.985V32.072ZM161.116 31.2772L162.052 26.8132L160.094 26.4028L159.158 30.8668L161.116 31.2772ZM161.073 25.608H150.057V27.608H161.073V25.608ZM151.057 26.6165L151.129 18.1925L149.129 18.1755L149.057 26.5995L151.057 26.6165ZM150.174 17.185L148.59 17.113L148.5 19.111L150.084 19.183L150.174 17.185ZM147.936 17.319L142.032 21.855L143.25 23.441L149.154 18.905L147.936 17.319ZM142.04 21.8491L135.632 26.6731L136.835 28.2709L143.242 23.4469L142.04 21.8491ZM135.346 27.0106L133.474 30.6106L135.248 31.5334L137.12 27.9334L135.346 27.0106ZM134.324 32.0713L140.156 32.2873L140.23 30.2887L134.398 30.0727L134.324 32.0713ZM139.193 31.2711L138.905 48.2631L140.905 48.2969L141.193 31.3049L139.193 31.2711ZM138.905 48.2596C138.831 51.9195 139.609 54.8605 141.44 56.8882C143.286 58.9322 146.033 59.864 149.481 59.864V57.864C146.377 57.864 144.264 57.0318 142.924 55.5478C141.569 54.0475 140.836 51.6965 140.905 48.3004L138.905 48.2596ZM180.96 40.36L181.959 40.4025L182.017 39.0364L180.698 39.395L180.96 40.36ZM180.528 50.512L181.284 51.1669L181.513 50.9032L181.527 50.5545L180.528 50.512ZM197.16 52.168L197.947 52.7849L198.468 52.1202L197.9 51.4953L197.16 52.168ZM196.44 51.376L197.18 50.7033L196.422 49.8697L195.685 50.7211L196.44 51.376ZM190.824 49.72L191.821 49.7967L191.823 49.7811L191.823 49.7654L190.824 49.72ZM191.4 37.048L192.399 37.0934L192.4 37.0828L191.4 37.048ZM180.96 36.904L179.961 36.8599L179.961 36.8683L180.96 36.904ZM180.888 38.92L181.148 39.8857L181.861 39.6939L181.888 38.9557L180.888 38.92ZM180.672 52.024L180.988 51.0753L180.343 50.8603L179.906 51.3811L180.672 52.024ZM180.888 52.096L181.882 51.9856L181.811 51.3497L181.204 51.1473L180.888 52.096ZM176.496 51.744C175.445 51.744 174.688 51.3872 174.184 50.8196C173.667 50.2379 173.32 49.3272 173.32 48.064H171.32C171.32 49.6808 171.766 51.1101 172.689 52.1484C173.624 53.2007 174.956 53.744 176.496 53.744V51.744ZM173.32 48.064C173.32 46.5645 173.743 45.3663 174.846 44.315C176 43.2155 177.971 42.2086 181.222 41.325L180.698 39.395C177.326 40.3114 174.976 41.4285 173.466 42.867C171.906 44.3537 171.32 46.1075 171.32 48.064H173.32ZM179.961 40.3175L179.529 50.4695L181.527 50.5545L181.959 40.4025L179.961 40.3175ZM179.773 49.8571C178.883 50.884 177.77 51.744 176.496 51.744V53.744C178.679 53.744 180.302 52.3 181.284 51.1669L179.773 49.8571ZM187.512 59.936C189.798 59.936 191.911 58.7396 193.644 57.3257C195.394 55.8969 196.888 54.1367 197.947 52.7849L196.373 51.5511C195.345 52.8633 193.958 54.4871 192.379 55.7763C190.781 57.0804 189.114 57.936 187.512 57.936V59.936ZM197.9 51.4953L197.18 50.7033L195.7 52.0487L196.42 52.8407L197.9 51.4953ZM195.685 50.7211C195.216 51.2612 194.763 51.7583 194.317 52.1201C193.853 52.4956 193.538 52.608 193.344 52.608V54.608C194.231 54.608 194.995 54.1444 195.576 53.6739C196.173 53.1897 196.728 52.5708 197.196 52.0309L195.685 50.7211ZM193.344 52.608C192.744 52.608 192.406 52.425 192.192 52.1302C191.942 51.7854 191.721 51.0942 191.821 49.7967L189.827 49.6433C189.711 51.1538 189.922 52.4066 190.572 53.3038C191.259 54.251 192.288 54.608 193.344 54.608V52.608ZM191.823 49.7654L192.399 37.0934L190.401 37.0026L189.825 49.6746L191.823 49.7654ZM192.4 37.0828C192.548 32.8258 191.727 29.5544 189.553 27.3696C187.386 25.1917 184.088 24.312 179.808 24.312V26.312C183.881 26.312 186.523 27.1602 188.135 28.7804C189.741 30.3936 190.541 32.9902 190.401 37.0132L192.4 37.0828ZM179.808 24.312C176.059 24.312 171.61 25.2993 168.074 26.9831C166.305 27.8258 164.714 28.8665 163.551 30.0911C162.386 31.3187 161.6 32.7902 161.6 34.456H163.6C163.6 33.4578 164.066 32.4543 165.002 31.4679C165.941 30.4785 167.302 29.5662 168.934 28.7889C172.202 27.2327 176.357 26.312 179.808 26.312V24.312ZM161.6 34.456C161.6 36.0375 162.294 37.3004 163.399 38.141C164.477 38.9606 165.893 39.344 167.352 39.344V37.344C166.219 37.344 165.26 37.0434 164.61 36.549C163.987 36.0756 163.6 35.3945 163.6 34.456H161.6ZM167.352 39.344C170.628 39.344 173.176 36.9613 173.176 34.096H171.176C171.176 35.6947 169.693 37.344 167.352 37.344V39.344ZM173.176 34.096C173.176 32.7121 172.427 31.498 171.833 30.6818C171.536 30.2729 171.209 29.8763 171.023 29.6363C170.918 29.5008 170.857 29.4154 170.825 29.3629C170.764 29.2617 170.872 29.3899 170.872 29.632H168.872C168.872 30.0001 169.053 30.2971 169.117 30.4028C169.211 30.5573 169.33 30.7172 169.442 30.8607C169.688 31.1786 169.937 31.4751 170.216 31.8582C170.774 32.626 171.176 33.3919 171.176 34.096H173.176ZM170.872 29.632C170.872 29.8246 170.71 29.7295 171.169 29.5369C171.613 29.3499 172.415 29.192 173.688 29.192V27.192C172.297 27.192 171.191 27.3581 170.394 27.6931C169.61 28.0225 168.872 28.6474 168.872 29.632H170.872ZM173.688 29.192C175.851 29.192 177.425 30.0218 178.456 31.3306C179.506 32.6643 180.061 34.5885 179.961 36.8599L181.959 36.9481C182.075 34.3235 181.443 31.8917 180.027 30.0934C178.591 28.2702 176.421 27.192 173.688 27.192V29.192ZM179.961 36.8683L179.889 38.8843L181.888 38.9557L181.96 36.9397L179.961 36.8683ZM180.629 37.9543C173.919 39.758 169.153 41.538 166.054 43.6359C164.491 44.6936 163.315 45.8561 162.532 47.1789C161.743 48.5108 161.384 49.9543 161.384 51.52H163.384C163.384 50.2777 163.664 49.1922 164.253 48.1976C164.847 47.1939 165.786 46.2324 167.175 45.2921C169.979 43.394 174.466 41.682 181.148 39.8857L180.629 37.9543ZM161.384 51.52C161.384 56.243 165.429 59.864 170.232 59.864V57.864C166.395 57.864 163.384 55.005 163.384 51.52H161.384ZM170.232 59.864C174.777 59.864 178.073 56.676 181.438 52.6669L179.906 51.3811C176.503 55.436 173.752 57.864 170.232 57.864V59.864ZM180.356 52.9727L180.572 53.0447L181.204 51.1473L180.988 51.0753L180.356 52.9727ZM179.894 52.2064C180.165 54.6388 181.008 56.5836 182.362 57.9269C183.725 59.2794 185.52 59.936 187.512 59.936V57.936C185.976 57.936 184.711 57.4406 183.771 56.5071C182.82 55.5644 182.116 54.0892 181.882 51.9856L179.894 52.2064ZM229.058 47.92L229.999 48.2587L230.289 47.4524L229.537 47.0421L229.058 47.92ZM228.266 47.488L228.745 46.6101L227.869 46.1326L227.389 47.0067L228.266 47.488ZM220.058 28.696H221.058V28.6544L221.054 28.613L220.058 28.696ZM218.546 32.008L219.542 32.1006L219.546 32.0544V32.008H218.546ZM213.866 60.152C217.763 60.152 221.13 59.0891 223.87 57.0363C226.605 54.9878 228.651 52.0023 229.999 48.2587L228.117 47.5813C226.873 51.0377 225.031 53.6682 222.671 55.4357C220.318 57.1989 217.385 58.152 213.866 58.152V60.152ZM229.537 47.0421L228.745 46.6101L227.787 48.3659L228.579 48.7979L229.537 47.0421ZM227.389 47.0067C225.527 50.3994 222.889 52.032 219.482 52.032V54.032C223.707 54.032 226.973 51.9206 229.143 47.9693L227.389 47.0067ZM219.482 52.032C216.566 52.032 214.413 50.936 212.954 48.9407C211.462 46.8996 210.618 43.8089 210.618 39.712H208.618C208.618 44.0391 209.502 47.6084 211.34 50.1213C213.211 52.68 215.99 54.032 219.482 54.032V52.032ZM210.618 39.712C210.618 35.6693 211.342 32.7237 212.49 30.8242C213.611 28.9686 215.125 28.112 216.89 28.112V26.112C214.335 26.112 212.213 27.4154 210.778 29.7898C209.37 32.1203 208.618 35.4747 208.618 39.712H210.618ZM216.89 28.112C217.585 28.112 218.202 28.2652 218.621 28.4744C219.1 28.714 219.07 28.8813 219.061 28.779L221.054 28.613C220.974 27.6467 220.188 27.022 219.515 26.6856C218.782 26.3188 217.851 26.112 216.89 26.112V28.112ZM219.058 28.696C219.058 28.4703 219.15 28.3379 219.108 28.4171C219.091 28.4493 219.055 28.509 218.987 28.6122C218.871 28.7879 218.649 29.1059 218.455 29.4159C218.068 30.0324 217.546 30.9813 217.546 32.008H219.546C219.546 31.5947 219.78 31.0676 220.149 30.4781C220.333 30.1851 220.489 29.9676 220.656 29.7135C220.73 29.6019 220.812 29.4731 220.878 29.3481C220.919 29.2701 221.058 29.0117 221.058 28.696H219.058ZM217.55 31.9154C217.218 35.4902 219.654 38.912 223.586 38.912V36.912C221.038 36.912 219.298 34.7178 219.542 32.1006L217.55 31.9154ZM223.586 38.912C225.223 38.912 226.726 38.3423 227.823 37.2673C228.924 36.1881 229.554 34.6618 229.554 32.872H227.554C227.554 34.1782 227.104 35.1719 226.423 35.8387C225.738 36.5097 224.757 36.912 223.586 36.912V38.912ZM229.554 32.872C229.554 30.2155 228.06 28.0379 225.709 26.5698C223.374 25.1121 220.152 24.312 216.458 24.312V26.312C219.892 26.312 222.718 27.0599 224.649 28.2662C226.564 29.462 227.554 31.0645 227.554 32.872H229.554ZM216.458 24.312C205.252 24.312 197.314 32.3891 197.314 43.24H199.314C199.314 33.4989 206.352 26.312 216.458 26.312V24.312ZM197.314 43.24C197.314 53.1432 204.449 60.152 213.866 60.152V58.152C205.571 58.152 199.314 52.0568 199.314 43.24H197.314ZM256.779 52.672L257.514 53.3497L257.903 52.9271L257.734 52.3779L256.779 52.672ZM256.491 51.736L257.446 51.4419L257.017 50.0464L255.871 50.9511L256.491 51.736ZM245.042 46.192L244.043 46.1777L244.043 46.1793L245.042 46.192ZM245.258 31.072V30.072H244.273L244.259 31.0577L245.258 31.072ZM255.411 31.072V32.072H256.223L256.389 31.2772L255.411 31.072ZM256.346 26.608L257.325 26.8132L257.578 25.608H256.346V26.608ZM245.331 26.608L244.331 26.5995L244.322 27.608H245.331V26.608ZM245.402 18.184L246.402 18.1925L246.411 17.2288L245.448 17.185L245.402 18.184ZM243.818 18.112L243.864 17.113L243.499 17.0964L243.209 17.319L243.818 18.112ZM237.915 22.648L238.516 23.447L238.524 23.441L237.915 22.648ZM231.507 27.472L230.905 26.6731L230.724 26.8095L230.619 27.0106L231.507 27.472ZM229.635 31.072L228.747 30.6106L228.018 32.0128L229.597 32.0713L229.635 31.072ZM235.467 31.288L236.466 31.3049L236.483 30.325L235.504 30.2887L235.467 31.288ZM235.178 48.28L236.178 48.3004L236.178 48.2969L235.178 48.28ZM244.755 59.864C250.123 59.864 254.043 57.1164 257.514 53.3497L256.043 51.9943C252.746 55.5716 249.322 57.864 244.755 57.864V59.864ZM257.734 52.3779L257.446 51.4419L255.535 52.0301L255.823 52.9661L257.734 52.3779ZM255.871 50.9511C254.662 51.9055 253.004 52.68 250.659 52.68V54.68C253.497 54.68 255.583 53.7265 257.11 52.5209L255.871 50.9511ZM250.659 52.68C248.893 52.68 247.835 52.2654 247.171 51.4414C246.46 50.56 246.007 48.9856 246.042 46.2047L244.043 46.1793C244.006 49.0864 244.453 51.256 245.614 52.6966C246.822 54.1946 248.608 54.68 250.659 54.68V52.68ZM246.042 46.2063L246.258 31.0863L244.259 31.0577L244.043 46.1777L246.042 46.2063ZM245.258 32.072H255.411V30.072H245.258V32.072ZM256.389 31.2772L257.325 26.8132L255.368 26.4028L254.432 30.8668L256.389 31.2772ZM256.346 25.608H245.331V27.608H256.346V25.608ZM246.33 26.6165L246.402 18.1925L244.403 18.1755L244.331 26.5995L246.33 26.6165ZM245.448 17.185L243.864 17.113L243.773 19.111L245.357 19.183L245.448 17.185ZM243.209 17.319L237.305 21.855L238.524 23.441L244.428 18.905L243.209 17.319ZM237.313 21.8491L230.905 26.6731L232.108 28.2709L238.516 23.4469L237.313 21.8491ZM230.619 27.0106L228.747 30.6106L230.522 31.5334L232.394 27.9334L230.619 27.0106ZM229.597 32.0713L235.429 32.2873L235.504 30.2887L229.672 30.0727L229.597 32.0713ZM234.467 31.2711L234.179 48.2631L236.178 48.2969L236.466 31.3049L234.467 31.2711ZM234.179 48.2596C234.104 51.9195 234.882 54.8605 236.713 56.8882C238.559 58.9322 241.306 59.864 244.755 59.864V57.864C241.651 57.864 239.538 57.0318 238.198 55.5478C236.843 54.0475 236.109 51.6965 236.178 48.3004L234.179 48.2596Z" fill="#DAD7CD" fill-opacity="0.39"/>
<path d="M64.3986 72.576C67.6626 72.576 71.7906 71.664 73.5666 70.896L75.8226 70.944L77.1666 61.296H75.5346C75.1506 62.208 74.8146 63.024 74.4786 63.744C73.9506 64.944 73.4226 66.144 73.4226 66.192C71.6466 69.456 68.8146 71.424 64.7346 71.424C59.2626 71.424 55.3746 66 55.3746 57.024C55.3746 48.432 58.8306 42.576 65.1186 42.576C67.2306 42.576 69.2466 43.152 70.3506 43.728L74.8146 52.416H76.3506L76.0146 42L72.2226 42.912C70.6386 42.096 67.8546 41.376 64.8306 41.376C53.3586 41.376 46.8786 48.576 46.8786 57.408C46.8786 66.096 53.5506 72.576 64.3986 72.576ZM91.8216 71.664C90.9096 71.664 90.1416 71.424 89.5656 70.848C88.3656 69.504 87.4056 66.72 87.4056 60.96C87.4056 55.008 88.9416 51.312 91.9656 51.312C92.8776 51.312 93.5016 51.504 94.1256 52.128C95.4216 53.424 96.3336 56.16 96.3336 61.872C96.3336 67.632 94.7496 71.664 91.8216 71.664ZM91.6296 72.672C98.9736 72.672 103.918 67.632 103.918 61.296C103.918 55.296 99.5976 50.208 92.2056 50.208C84.9096 50.208 79.9176 55.248 79.9176 61.488C79.9176 67.584 84.1896 72.672 91.6296 72.672ZM106.167 71.184L106.023 72H118.455L118.359 71.184L117.591 71.136C115.911 70.992 115.719 70.8 115.719 70.368V63.312V55.536C116.487 55.008 117.543 54.576 119.031 54.576C121.287 54.576 122.823 55.488 122.823 59.136V70.32C122.823 70.704 122.871 70.992 121.191 71.136L120.423 71.184L120.279 72H132.759L132.615 71.184L132.087 71.136C129.975 70.8 129.734 70.656 129.734 70.32V57.648C129.734 55.296 129.255 53.088 128.103 51.936C126.999 50.832 125.751 50.208 124.167 50.208C121.143 50.208 118.263 52.32 115.815 54.384H115.719L115.815 50.256L105.831 53.04L105.783 53.664L106.743 53.904C108.375 54.384 108.759 54.768 108.759 57.744V70.32C108.759 70.896 108.23 70.992 106.839 71.136L106.167 71.184ZM142.987 72.576C146.299 72.576 148.747 70.896 151.003 68.448L150.811 67.824C149.899 68.544 148.651 69.12 146.923 69.12C144.379 69.12 143.131 67.92 143.179 64.128L143.323 54.048H150.091L150.715 51.072H143.371L143.419 45.456L142.363 45.408L138.427 48.432L134.155 51.648L132.907 54.048L136.795 54.192L136.603 65.52C136.507 70.224 138.619 72.576 142.987 72.576ZM160.998 68.496C159.27 68.496 158.214 67.296 158.214 65.376C158.214 63.072 159.558 61.44 163.974 60.24L163.686 67.008C163.062 67.728 162.15 68.496 160.998 68.496ZM168.342 72.624C170.934 72.624 173.382 69.888 174.774 68.112L174.294 67.584C173.67 68.304 172.95 69.072 172.23 69.072C171.126 69.072 170.406 68.352 170.55 66.48L170.934 58.032C171.126 52.512 168.774 50.208 163.206 50.208C158.406 50.208 151.734 52.752 151.734 56.304C151.734 57.984 153.174 58.896 154.902 58.896C156.773 58.896 158.118 57.552 158.118 56.064C158.118 54.672 156.582 53.424 156.582 53.088C156.582 52.56 157.35 52.128 159.126 52.128C162.39 52.128 164.118 54.672 163.974 57.936L163.926 59.28C154.998 61.68 151.59 63.936 151.59 67.68C151.59 70.416 153.942 72.576 156.822 72.576C159.51 72.576 161.526 70.704 163.782 68.016L163.926 68.064C164.262 71.088 165.99 72.624 168.342 72.624ZM185.911 72.768C190.855 72.768 194.311 70.08 196.039 65.28L195.511 64.992C194.167 67.44 192.199 68.688 189.655 68.688C185.383 68.688 183.079 65.424 183.079 59.808C183.079 54.288 185.047 51.408 187.927 51.408C189.031 51.408 189.991 51.888 190.039 52.464C190.039 52.704 189.031 53.712 189.031 54.672C188.839 56.736 190.231 58.608 192.391 58.608C194.263 58.608 195.703 57.312 195.703 55.248C195.703 52.272 192.391 50.208 187.639 50.208C180.535 50.208 175.543 55.296 175.543 62.16C175.543 68.4 180.007 72.768 185.911 72.768ZM206.503 72.576C209.815 72.576 212.263 70.896 214.519 68.448L214.327 67.824C213.415 68.544 212.167 69.12 210.439 69.12C207.895 69.12 206.647 67.92 206.695 64.128L206.839 54.048H213.607L214.231 51.072H206.887L206.935 45.456L205.879 45.408L201.943 48.432L197.671 51.648L196.423 54.048L200.311 54.192L200.119 65.52C200.023 70.224 202.135 72.576 206.503 72.576Z" fill="#DAD7CD"/>
</svg>
