<svg width="126" height="60" viewBox="0 0 126 60" fill="none" xmlns="http://www.w3.org/2000/svg">
<circle cx="92.5" cy="30.5" r="26.5" fill="#3A5A40"/>
<path d="M10.2129 19.2031H27.4043V21.3125L17.0947 38.1875H23.1855C23.4316 38.1875 23.6514 38.0938 23.8447 37.9062C24.0381 37.7129 24.1846 37.4668 24.2842 37.168C24.3896 36.8691 24.4658 36.5674 24.5127 36.2627C24.5654 35.958 24.5918 35.6621 24.5918 35.375V32.5625H27.7559V41H9.82617V39.2422L20.3555 22.0156H14.7832C14.5371 22.0156 14.3174 22.1123 14.124 22.3057C13.9307 22.4932 13.7812 22.7363 13.6758 23.0352C13.5762 23.334 13.5 23.6357 13.4473 23.9404C13.4004 24.2451 13.377 24.541 13.377 24.8281V26.2344H10.2129V19.2031ZM44.6309 30.4092V38.1875H46.3887V41H40.9131L40.1309 39.1719C39.5332 40.0273 38.8389 40.6133 38.0479 40.9297C37.2627 41.2461 36.1641 41.4043 34.752 41.4043C34.0195 41.4043 33.3369 41.2754 32.7041 41.0176C32.0771 40.7656 31.541 40.4199 31.0957 39.9805C30.6562 39.541 30.3105 39.0137 30.0586 38.3984C29.8125 37.7832 29.6895 37.124 29.6895 36.4209C29.6895 35.208 30.1641 34.2031 31.1133 33.4062C32.0625 32.6035 33.2754 32.2021 34.752 32.2021C35.9414 32.2021 36.9258 32.3164 37.7051 32.5449C38.4844 32.7676 39.1523 33.125 39.709 33.6172V29.8906C39.709 29.3633 39.6357 28.9238 39.4893 28.5723C39.3486 28.2148 39.1348 27.9424 38.8477 27.7549C38.5605 27.5615 38.2383 27.4268 37.8809 27.3506C37.5234 27.2744 37.0957 27.2363 36.5977 27.2363C36.1992 27.2363 35.8389 27.3213 35.5166 27.4912C35.6982 27.8721 35.7891 28.2734 35.7891 28.6953C35.7891 29.4746 35.5137 30.1396 34.9629 30.6904C34.418 31.2354 33.7559 31.5078 32.9766 31.5078C32.1973 31.5078 31.5322 31.2354 30.9814 30.6904C30.4365 30.1396 30.1641 29.4746 30.1641 28.6953C30.1641 28.2969 30.2402 27.9219 30.3926 27.5703C30.5508 27.2188 30.7676 26.9111 31.043 26.6475C31.2773 26.4014 31.5205 26.1816 31.7725 25.9883C32.0244 25.7891 32.3408 25.5928 32.7217 25.3994C33.1084 25.2002 33.5273 25.0361 33.9785 24.9072C34.4297 24.7783 34.9688 24.6758 35.5957 24.5996C36.2285 24.5176 36.9199 24.4766 37.6699 24.4766C38.6426 24.4766 39.5566 24.6201 40.4121 24.9072C41.2676 25.1943 42.0059 25.5928 42.627 26.1025C43.248 26.6123 43.7373 27.2393 44.0947 27.9834C44.4521 28.7275 44.6309 29.5361 44.6309 30.4092ZM39.709 37.0977V35.8848C39.3457 35.5391 38.9355 35.249 38.4785 35.0146C38.0273 34.7744 37.6084 34.6543 37.2217 34.6543C36.3896 34.6543 35.8037 34.7949 35.4639 35.0762C35.124 35.3516 34.9541 35.7998 34.9541 36.4209C34.9541 37.165 35.1006 37.7129 35.3936 38.0645C35.6865 38.416 36.2314 38.5918 37.0283 38.5918C37.4795 38.5918 37.9482 38.4482 38.4346 38.1611C38.9268 37.8682 39.3516 37.5137 39.709 37.0977ZM59.5723 24.4766C60.3926 24.4766 61.1104 24.5879 61.7256 24.8105C62.3408 25.0332 62.8447 25.3408 63.2373 25.7334C63.6299 26.1201 63.9463 26.6152 64.1865 27.2188C64.4326 27.8164 64.6025 28.4609 64.6963 29.1523C64.7959 29.8379 64.8457 30.623 64.8457 31.5078V38.1875H66.6035V41H58.166V38.1875H59.9238V31.1562C59.9238 30.2305 59.8389 29.5098 59.6689 28.9941C59.5049 28.4785 59.2646 28.124 58.9482 27.9307C58.6377 27.7373 58.2129 27.6406 57.6738 27.6406C57.1758 27.6406 56.6631 27.8545 56.1357 28.2822C55.6143 28.71 55.1191 29.3076 54.6504 30.0752V38.1875H56.4082V41H47.9707V38.1875H49.7285V22.0156H47.9707V19.2031H54.6504V27.2275C54.8613 26.835 55.1104 26.4805 55.3975 26.1641C55.6846 25.8477 56.0244 25.5605 56.417 25.3027C56.8096 25.0391 57.2725 24.8369 57.8057 24.6963C58.3447 24.5498 58.9336 24.4766 59.5723 24.4766Z" fill="#3A5A40"/>
<path d="M79.6113 24.4766C80.4316 24.4766 81.1494 24.5879 81.7646 24.8105C82.3799 25.0332 82.8838 25.3408 83.2764 25.7334C83.6689 26.1201 83.9854 26.6152 84.2256 27.2188C84.4717 27.8164 84.6416 28.4609 84.7354 29.1523C84.835 29.8379 84.8848 30.623 84.8848 31.5078V38.1875H86.6426V41H78.2051V38.1875H79.9629V31.1562C79.9629 30.2305 79.8779 29.5098 79.708 28.9941C79.5439 28.4785 79.3037 28.124 78.9873 27.9307C78.6768 27.7373 78.252 27.6406 77.7129 27.6406C77.2207 27.6406 76.7168 27.8486 76.2012 28.2646C75.6855 28.6807 75.1963 29.2607 74.7334 30.0049L74.6895 38.1875H76.4473V41H68.0098V38.1875H69.7676V27.6406H68.0098V24.8281H73.4678L74.6982 27.21C74.915 26.8174 75.1641 26.4658 75.4453 26.1553C75.7324 25.8389 76.0723 25.5518 76.4648 25.2939C76.8633 25.0303 77.3291 24.8281 77.8623 24.6875C78.3955 24.5469 78.9785 24.4766 79.6113 24.4766ZM90.2725 22.9561C89.7275 22.4053 89.4551 21.7402 89.4551 20.9609C89.4551 20.1816 89.7275 19.5195 90.2725 18.9746C90.8232 18.4238 91.4883 18.1484 92.2676 18.1484C93.0469 18.1484 93.709 18.4238 94.2539 18.9746C94.8047 19.5195 95.0801 20.1816 95.0801 20.9609C95.0801 21.7402 94.8047 22.4053 94.2539 22.9561C93.709 23.501 93.0469 23.7734 92.2676 23.7734C91.4883 23.7734 90.8232 23.501 90.2725 22.9561ZM88.0488 24.8281H94.7285V38.1875H96.4863V41H88.0488V38.1875H89.8066V27.6406H88.0488V24.8281ZM109.494 24.4766C110.314 24.4766 111.032 24.5879 111.647 24.8105C112.263 25.0332 112.767 25.3408 113.159 25.7334C113.552 26.1201 113.868 26.6152 114.108 27.2188C114.354 27.8164 114.524 28.4609 114.618 29.1523C114.718 29.8379 114.768 30.623 114.768 31.5078V38.1875H116.525V41H108.088V38.1875H109.846V31.1562C109.846 30.2305 109.761 29.5098 109.591 28.9941C109.427 28.4785 109.187 28.124 108.87 27.9307C108.56 27.7373 108.135 27.6406 107.596 27.6406C107.104 27.6406 106.6 27.8486 106.084 28.2646C105.568 28.6807 105.079 29.2607 104.616 30.0049L104.572 38.1875H106.33V41H97.8926V38.1875H99.6504V27.6406H97.8926V24.8281H103.351L104.581 27.21C104.798 26.8174 105.047 26.4658 105.328 26.1553C105.615 25.8389 105.955 25.5518 106.348 25.2939C106.746 25.0303 107.212 24.8281 107.745 24.6875C108.278 24.5469 108.861 24.4766 109.494 24.4766Z" fill="white"/>
</svg>
