<svg width="199" height="138" viewBox="0 0 199 138" fill="none" xmlns="http://www.w3.org/2000/svg">
<path d="M12.252 14.3552L44.844 53.4656H48.6464L48.8792 13.5792C48.8792 8.2248 49.888 6.44 53.8456 6.1296L56.0184 5.8192L56.2512 4.5H38.1704L38.4032 5.8192L40.7312 6.1296C45.3872 6.3624 46.7064 7.7592 46.7064 12.8808L46.784 34.9192H46.4736L21.564 4.5H0.9224L1.1552 5.8192L2.6296 6.44C5.1128 6.828 7.9064 8.5352 10.0792 11.872L9.8464 44.076C9.8464 49.4304 8.9928 50.9824 4.88 51.3704L2.7072 51.6808L2.4744 53H20.7104L20.4776 51.6808L18.072 51.3704C13.4936 50.9824 12.0192 49.9736 12.0192 44.7744V14.3552H12.252ZM83.3378 47.2576L83.1826 54.2416L99.1682 50.3616L99.3234 49.4304L97.1506 48.8872C94.9002 48.2664 94.4346 47.3352 94.4346 43.6104V18.9336H78.061L78.3714 20.2528L79.5354 20.3304C82.717 20.5632 83.2602 20.7184 83.2602 21.572V32.9016V45.4728C82.0186 46.1712 80.389 47.0248 78.2938 47.0248C74.4914 47.0248 72.0858 45.3952 72.1634 39.7304L72.3962 18.9336H55.7898L56.0226 20.2528L57.1866 20.3304C60.6786 20.7184 61.0666 21.0288 61.0666 21.4168L60.9114 41.9032C60.6786 45.9384 61.6098 49.2752 63.4722 51.2152C65.4122 53.0776 66.8866 54.0864 69.6026 54.0864C74.4914 54.0864 78.9922 50.9048 83.105 47.2576H83.3378ZM101.151 51.6808L100.918 53H122.025L121.792 51.6808L120.395 51.6032C117.059 51.3704 116.515 50.9824 116.515 50.284V33.3672C118.3 27.78 120.085 25.1416 122.258 24.5984C123.111 27.0816 124.819 29.4096 128.233 29.4096C131.259 29.4096 133.432 26.6936 133.432 23.9776C133.432 19.9424 130.871 17.7696 127.224 17.7696C122.335 17.7696 119.231 21.96 116.748 29.332H116.515L116.671 17.8472L100.53 22.348L100.452 23.3568L102.004 23.7448C104.643 24.5208 105.263 25.1416 105.263 29.9528V50.284C105.263 51.2152 104.41 51.3704 102.159 51.6032L101.151 51.6808ZM161.089 47.2576L160.934 54.2416L176.92 50.3616L177.075 49.4304L174.902 48.8872C172.652 48.2664 172.186 47.3352 172.186 43.6104V18.9336H155.813L156.123 20.2528L157.287 20.3304C160.469 20.5632 161.012 20.7184 161.012 21.572V32.9016V45.4728C159.77 46.1712 158.141 47.0248 156.045 47.0248C152.243 47.0248 149.837 45.3952 149.915 39.7304L150.148 18.9336H133.541L133.774 20.2528L134.938 20.3304C138.43 20.7184 138.818 21.0288 138.818 21.4168L138.663 41.9032C138.43 45.9384 139.361 49.2752 141.224 51.2152C143.164 53.0776 144.638 54.0864 147.354 54.0864C152.243 54.0864 156.744 50.9048 160.857 47.2576H161.089ZM178.902 51.6808L178.592 53H198.38L198.147 51.6808L197.216 51.6032C194.655 51.3704 194.034 51.06 194.034 50.3616V0.309599L178.126 4.6552L177.971 5.5864L179.989 6.44C182.161 7.0608 182.705 7.9144 182.705 11.6392V50.284C182.705 51.2152 182.239 51.3704 179.989 51.6032L178.902 51.6808ZM3.2504 134.681L3.0176 136H28.8584L28.6256 134.681L26.22 134.37C22.8056 133.982 22.2624 133.75 22.2624 133.129V90.5264C22.2624 89.9832 23.116 89.3624 25.5992 89.1296L28.6256 88.8192L28.8584 87.5H2.94L3.1728 88.8192L5.5784 89.1296C9.148 89.5176 9.6136 89.7504 9.6136 90.3712V132.974C9.6136 133.672 8.5272 134.138 6.2768 134.37L3.2504 134.681ZM31.9569 134.836V136H63.0745L65.6353 121.877H63.8505L62.1433 125.214C60.0481 129.792 55.7025 133.75 48.0977 134.138L44.3729 134.215L64.5489 103.098V101.934H33.1209V115.746H34.9057L37.0785 110.858C38.9409 106.434 41.7345 104.106 48.1753 103.796L51.4345 103.641L31.9569 134.836ZM68.7866 134.836V136H99.9042L102.465 121.877H100.68L98.973 125.214C96.8778 129.792 92.5322 133.75 84.9274 134.138L81.2026 134.215L101.379 103.098V101.934H69.9506V115.746H71.7354L73.9082 110.858C75.7706 106.434 78.5642 104.106 85.005 103.796L88.2642 103.641L68.7866 134.836ZM121.059 130.335C118.265 130.335 116.558 128.395 116.558 125.291C116.558 121.566 118.731 118.928 125.87 116.988L125.404 127.93C124.396 129.094 122.921 130.335 121.059 130.335ZM132.932 137.009C137.122 137.009 141.08 132.586 143.33 129.714L142.554 128.861C141.545 130.025 140.381 131.266 139.217 131.266C137.432 131.266 136.268 130.102 136.501 127.076L137.122 113.418C137.432 104.494 133.63 100.77 124.628 100.77C116.868 100.77 106.082 104.882 106.082 110.625C106.082 113.341 108.41 114.815 111.204 114.815C114.23 114.815 116.403 112.642 116.403 110.237C116.403 107.986 113.92 105.969 113.92 105.426C113.92 104.572 115.161 103.874 118.032 103.874C123.309 103.874 126.103 107.986 125.87 113.263L125.792 115.436C111.359 119.316 105.849 122.963 105.849 129.016C105.849 133.439 109.652 136.931 114.308 136.931C118.653 136.931 121.912 133.905 125.56 129.559L125.792 129.637C126.336 134.526 129.129 137.009 132.932 137.009ZM143.797 134.681L143.565 136H163.741L163.508 134.681L162.266 134.603C159.55 134.37 159.24 134.06 159.24 133.362V121.954V109.383C160.559 108.53 162.421 107.831 164.672 107.831C168.319 107.831 170.725 109.228 170.725 115.048V133.284C170.725 133.905 170.802 134.37 168.241 134.603L166.922 134.681L166.689 136H186.788L186.555 134.681L185.701 134.603C182.287 134.06 181.899 133.827 181.899 133.284V112.798C181.899 108.995 181.123 105.426 179.338 103.563C177.476 101.701 175.303 100.77 172.897 100.77C168.086 100.77 163.43 104.184 159.473 107.521H159.395V83.3096L143.332 87.6552L143.177 88.5864L145.349 89.44C147.522 90.0608 147.988 90.9144 147.988 94.6392V133.284C147.988 134.215 147.289 134.37 144.884 134.603L143.797 134.681Z" fill="#1E2C25"/>
</svg>
