<svg width="370" height="84" viewBox="0 0 370 84" fill="none" xmlns="http://www.w3.org/2000/svg">
<path d="M2.633 56.776L2.52257 55.7821L1.77835 55.8648L1.64822 56.6022L2.633 56.776ZM2.417 58L1.43222 57.8262L1.22508 59H2.417V58ZM18.761 58V59H19.9529L19.7458 57.8262L18.761 58ZM18.545 56.776L19.5298 56.6022L19.3986 55.859L18.6479 55.7813L18.545 56.776ZM16.457 56.56L16.5599 55.5653L16.5493 55.5642L16.5387 55.5633L16.457 56.56ZM11.417 50.584L12.4159 50.6308L12.4165 50.6186L12.4168 50.6063L11.417 50.584ZM12.137 18.328V17.328H11.1591L11.1372 18.3057L12.137 18.328ZM12.425 18.328L13.3676 17.9942L13.1317 17.328H12.425V18.328ZM26.321 57.568L25.3784 57.9018L25.6143 58.568H26.321V57.568ZM29.633 57.568V58.568H30.336L30.574 57.9065L29.633 57.568ZM44.321 16.744V15.744H43.618L43.3801 16.4055L44.321 16.744ZM44.609 16.744L45.6086 16.7172L45.5826 15.744H44.609V16.744ZM45.545 51.664L46.5448 51.6444L46.5446 51.6372L45.545 51.664ZM43.025 56.416L43.1286 57.4106L43.1315 57.4103L43.025 56.416ZM39.569 56.776L39.4654 55.7814L38.7153 55.8595L38.5842 56.6022L39.569 56.776ZM39.353 58L38.3682 57.8262L38.1611 59H39.353V58ZM64.049 58V59H65.2409L65.0338 57.8262L64.049 58ZM63.833 56.776L64.8178 56.6022L64.6918 55.8885L63.9744 55.7861L63.833 56.776ZM61.313 56.416L61.4544 55.4261L61.4473 55.425L61.4402 55.4241L61.313 56.416ZM57.785 51.808H58.785V51.7969L58.7848 51.7858L57.785 51.808ZM56.993 16.168H55.993V16.1791L55.9933 16.1902L56.993 16.168ZM59.873 14.584L59.7963 13.5869L59.7814 13.5881L59.7665 13.5897L59.873 14.584ZM63.617 14.296L63.6937 15.2931L64.4746 15.233L64.6034 14.4604L63.617 14.296ZM63.833 13L64.8194 13.1644L65.0135 12H63.833V13ZM43.601 13V12H42.8901L42.6565 12.6714L43.601 13ZM33.305 42.592V43.592H34.0159L34.2495 42.9206L33.305 42.592ZM33.017 42.592L32.0711 42.9165L32.3029 43.592H33.017V42.592ZM22.865 13L23.8109 12.6755L23.5791 12H22.865V13ZM2.705 13V12H1.52454L1.71861 13.1644L2.705 13ZM2.921 14.296L1.93461 14.4604L2.05853 15.2039L2.80745 15.2895L2.921 14.296ZM5.441 14.584L5.57764 13.5934L5.56611 13.5918L5.55455 13.5905L5.441 14.584ZM10.409 17.68L11.4086 17.709L11.418 17.3854L11.2359 17.1177L10.409 17.68ZM9.473 49.936L10.4722 49.9788L10.4726 49.965L9.473 49.936ZM4.577 56.56L4.4848 55.5643L4.47568 55.5651L4.46657 55.5661L4.577 56.56ZM1.64822 56.6022L1.43222 57.8262L3.40178 58.1738L3.61778 56.9498L1.64822 56.6022ZM2.417 59H18.761V57H2.417V59ZM19.7458 57.8262L19.5298 56.6022L17.5602 56.9498L17.7762 58.1738L19.7458 57.8262ZM18.6479 55.7813L16.5599 55.5653L16.3541 57.5547L18.4421 57.7707L18.6479 55.7813ZM16.5387 55.5633C14.3089 55.3806 13.4123 55.0394 12.9727 54.5194C12.7592 54.2669 12.5847 53.8899 12.4833 53.2537C12.3804 52.608 12.3629 51.7624 12.4159 50.6308L10.4181 50.5372C10.3631 51.7096 10.3726 52.718 10.5082 53.5685C10.6453 54.4286 10.9208 55.1901 11.4453 55.8106C12.4817 57.0366 14.2131 57.3794 16.3753 57.5567L16.5387 55.5633ZM12.4168 50.6063L13.1368 18.3503L11.1372 18.3057L10.4172 50.5617L12.4168 50.6063ZM12.137 19.328H12.425V17.328H12.137V19.328ZM11.4824 18.6618L25.3784 57.9018L27.2636 57.2342L13.3676 17.9942L11.4824 18.6618ZM26.321 58.568H29.633V56.568H26.321V58.568ZM30.574 57.9065L45.262 17.0825L43.3801 16.4055L28.6921 57.2295L30.574 57.9065ZM44.321 17.744H44.609V15.744H44.321V17.744ZM43.6094 16.7708L44.5454 51.6908L46.5446 51.6372L45.6086 16.7172L43.6094 16.7708ZM44.5452 51.6836C44.5816 53.5411 44.4336 54.4153 44.1923 54.8532C44.0407 55.1281 43.805 55.3267 42.9185 55.4217L43.1315 57.4103C44.2611 57.2893 45.3213 56.9479 45.9437 55.8188C46.4764 54.8526 46.5804 53.4589 46.5448 51.6444L44.5452 51.6836ZM42.9214 55.4214L39.4654 55.7814L39.6726 57.7706L43.1286 57.4106L42.9214 55.4214ZM38.5842 56.6022L38.3682 57.8262L40.3378 58.1738L40.5538 56.9498L38.5842 56.6022ZM39.353 59H64.049V57H39.353V59ZM65.0338 57.8262L64.8178 56.6022L62.8482 56.9498L63.0642 58.1738L65.0338 57.8262ZM63.9744 55.7861L61.4544 55.4261L61.1716 57.4059L63.6916 57.7659L63.9744 55.7861ZM61.4402 55.4241C60.7357 55.3338 60.2448 55.2523 59.8766 55.1368C59.5281 55.0274 59.3617 54.9087 59.256 54.7851C59.1435 54.6535 59.0164 54.4182 58.9238 53.9309C58.8301 53.4379 58.785 52.7608 58.785 51.808H56.785C56.785 52.7992 56.8299 53.6251 56.959 54.3043C57.0891 54.9893 57.3175 55.5955 57.736 56.0849C58.1613 56.5823 58.7014 56.8641 59.2777 57.045C59.8342 57.2197 60.4863 57.3182 61.1858 57.4079L61.4402 55.4241ZM58.7848 51.7858L57.9928 16.1458L55.9933 16.1902L56.7852 51.8302L58.7848 51.7858ZM57.993 16.168C57.993 16.3269 57.8913 16.2563 58.2011 16.0657C58.4987 15.8825 59.0586 15.677 59.9795 15.5783L59.7665 13.5897C58.6714 13.707 57.7913 13.9695 57.1529 14.3623C56.5267 14.7477 55.993 15.3611 55.993 16.168H57.993ZM59.9497 15.5811L63.6937 15.2931L63.5403 13.2989L59.7963 13.5869L59.9497 15.5811ZM64.6034 14.4604L64.8194 13.1644L62.8466 12.8356L62.6306 14.1316L64.6034 14.4604ZM63.833 12H43.601V14H63.833V12ZM42.6565 12.6714L32.3605 42.2634L34.2495 42.9206L44.5455 13.3286L42.6565 12.6714ZM33.305 41.592H33.017V43.592H33.305V41.592ZM33.9629 42.2675L23.8109 12.6755L21.9191 13.3245L32.0711 42.9165L33.9629 42.2675ZM22.865 12H2.705V14H22.865V12ZM1.71861 13.1644L1.93461 14.4604L3.90739 14.1316L3.69139 12.8356L1.71861 13.1644ZM2.80745 15.2895L5.32745 15.5775L5.55455 13.5905L3.03455 13.3025L2.80745 15.2895ZM5.30436 15.5746C7.11298 15.8241 8.51774 16.6771 9.58207 18.2423L11.2359 17.1177C9.85226 15.0829 7.94502 13.9199 5.57764 13.5934L5.30436 15.5746ZM9.40942 17.651L8.47342 49.907L10.4726 49.965L11.4086 17.709L9.40942 17.651ZM8.47392 49.8932C8.42057 51.138 8.33306 52.0984 8.18294 52.851C8.03308 53.6024 7.83216 54.0852 7.5923 54.4162C7.1548 55.0198 6.38678 55.3882 4.4848 55.5643L4.6692 57.5557C6.65522 57.3718 8.2272 56.9482 9.2117 55.5898C9.68284 54.9398 9.96342 54.1491 10.1443 53.2422C10.3249 52.3366 10.4174 51.254 10.4721 49.9788L8.47392 49.8932ZM4.46657 55.5661L2.52257 55.7821L2.74343 57.7699L4.68743 57.5539L4.46657 55.5661ZM79.7939 67.144L78.8493 66.8157L78.8463 66.8247L79.7939 67.144ZM83.3219 56.992L82.3857 56.6405L82.3814 56.6521L82.3774 56.6637L83.3219 56.992ZM91.2419 35.896L92.1781 36.2475L92.1799 36.2426L91.2419 35.896ZM97.0019 27.904L97.0828 28.9007L97.1321 28.8967L97.1808 28.8879L97.0019 27.904ZM98.5859 27.616L98.7648 28.5999L99.4497 28.4753L99.5707 27.7898L98.5859 27.616ZM98.8019 26.392L99.7867 26.5658L99.9939 25.392H98.8019V26.392ZM85.4819 26.392V25.392H84.29L84.4972 26.5658L85.4819 26.392ZM85.6979 27.616L84.7132 27.7898L84.8218 28.4057L85.4232 28.5775L85.6979 27.616ZM87.2099 28.048L86.9352 29.0095L86.9971 29.0272L87.0607 29.0368L87.2099 28.048ZM89.4419 35.752L90.3826 36.0915L90.386 36.0818L89.4419 35.752ZM85.0499 47.92L84.1264 48.3035L85.1152 50.6847L85.9905 48.2595L85.0499 47.92ZM77.9939 30.928L78.9175 30.5445L78.9069 30.519L78.8949 30.4942L77.9939 30.928ZM80.0099 27.904L80.1514 28.8939L80.1701 28.8913L80.1888 28.8879L80.0099 27.904ZM81.5939 27.616L81.7728 28.5999L82.4577 28.4753L82.5787 27.7898L81.5939 27.616ZM81.8099 26.392L82.7947 26.5658L83.0019 25.392H81.8099V26.392ZM61.5779 26.392V25.392H60.386L60.5932 26.5658L61.5779 26.392ZM61.7939 27.616L60.8092 27.7898L60.9236 28.4385L61.5649 28.5894L61.7939 27.616ZM63.0179 27.904L62.7889 28.8774L62.8183 28.8843L62.848 28.8895L63.0179 27.904ZM66.9059 31.288L67.8195 30.8812L67.8154 30.8722L66.9059 31.288ZM79.5059 59.584L78.5924 59.9908L78.8566 60.584H79.5059V59.584ZM80.7299 59.584L81.6685 59.9292L82.1633 58.584H80.7299V59.584ZM78.4259 65.848L79.363 66.1971L79.3645 66.1932L78.4259 65.848ZM74.4659 71.32L73.4742 71.448L73.6221 72.5947L74.7356 72.283L74.4659 71.32ZM70.2899 77.576C72.6995 77.576 74.773 76.7797 76.5258 75.0573C78.2433 73.3696 79.6028 70.8428 80.7416 67.4633L78.8463 66.8247C77.753 70.0692 76.5206 72.2584 75.124 73.6307C73.7629 74.9683 72.2004 75.576 70.2899 75.576V77.576ZM80.7385 67.4723L84.2665 57.3203L82.3774 56.6637L78.8494 66.8157L80.7385 67.4723ZM84.2581 57.3435L92.1781 36.2475L90.3057 35.5445L82.3857 56.6405L84.2581 57.3435ZM92.1799 36.2426C93.4214 32.8833 94.1501 31.0837 94.8599 30.0709C95.1906 29.599 95.4819 29.3537 95.7771 29.203C96.085 29.0457 96.4776 28.9498 97.0828 28.9007L96.9211 26.9073C96.1943 26.9662 95.5069 27.0953 94.8675 27.4218C94.2154 27.7548 93.6923 28.252 93.222 28.9231C92.3297 30.1963 91.5104 32.2847 90.3039 35.5493L92.1799 36.2426ZM97.1808 28.8879L98.7648 28.5999L98.4071 26.6321L96.8231 26.9201L97.1808 28.8879ZM99.5707 27.7898L99.7867 26.5658L97.8172 26.2182L97.6012 27.4422L99.5707 27.7898ZM98.8019 25.392H85.4819V27.392H98.8019V25.392ZM84.4972 26.5658L84.7132 27.7898L86.6827 27.4422L86.4667 26.2182L84.4972 26.5658ZM85.4232 28.5775L86.9352 29.0095L87.4847 27.0865L85.9727 26.6545L85.4232 28.5775ZM87.0607 29.0368C87.9939 29.1777 88.6063 29.3395 89.0063 29.5444C89.3581 29.7246 89.5055 29.9145 89.5845 30.1702C89.683 30.489 89.7047 31.0171 89.5292 31.9167C89.3565 32.8019 89.0158 33.9399 88.4979 35.4222L90.386 36.0818C90.9121 34.5761 91.2914 33.3291 91.4922 32.2996C91.6902 31.2844 91.7389 30.368 91.4954 29.5798C91.2324 28.7285 90.6688 28.1489 89.9181 27.7643C89.2155 27.4045 88.3339 27.2063 87.3592 27.0592L87.0607 29.0368ZM88.5013 35.4125L84.1093 47.5805L85.9905 48.2595L90.3825 36.0915L88.5013 35.4125ZM85.9735 47.5365L78.9175 30.5445L77.0704 31.3115L84.1264 48.3035L85.9735 47.5365ZM78.8949 30.4942C78.6774 30.0425 78.5786 29.7385 78.5487 29.5383C78.5219 29.3587 78.5607 29.342 78.5429 29.3692C78.5384 29.3761 78.5871 29.2946 78.864 29.1865C79.1396 29.0788 79.5518 28.9796 80.1514 28.8939L79.8685 26.914C79.2081 27.0084 78.6213 27.1342 78.1364 27.3235C77.6528 27.5124 77.1795 27.7999 76.869 28.2747C76.5452 28.77 76.494 29.3203 76.5707 29.8337C76.6443 30.3265 76.8424 30.8415 77.0929 31.3618L78.8949 30.4942ZM80.1888 28.8879L81.7728 28.5999L81.4151 26.6321L79.8311 26.9201L80.1888 28.8879ZM82.5787 27.7898L82.7947 26.5658L80.8252 26.2182L80.6092 27.4422L82.5787 27.7898ZM81.8099 25.392H61.5779V27.392H81.8099V25.392ZM60.5932 26.5658L60.8092 27.7898L62.7787 27.4422L62.5627 26.2182L60.5932 26.5658ZM61.5649 28.5894L62.7889 28.8774L63.247 26.9306L62.023 26.6426L61.5649 28.5894ZM62.848 28.8895C63.8506 29.0623 64.3086 29.2422 64.6621 29.5453C65.0478 29.8758 65.423 30.4492 65.9965 31.7038L67.8154 30.8722C67.2369 29.6068 66.7121 28.6682 65.9637 28.0267C65.1833 27.3578 64.2733 27.1057 63.1878 26.9185L62.848 28.8895ZM65.9924 31.6948L78.5924 59.9908L80.4195 59.1772L67.8195 30.8812L65.9924 31.6948ZM79.5059 60.584H80.7299V58.584H79.5059V60.584ZM79.7914 59.2388L77.4874 65.5028L79.3645 66.1932L81.6685 59.9292L79.7914 59.2388ZM77.4889 65.4989C76.8025 67.3412 76.3006 68.4694 75.7895 69.1974C75.3235 69.8611 74.8664 70.1694 74.1963 70.357L74.7356 72.283C75.8655 71.9666 76.7043 71.3749 77.4264 70.3466C78.1033 69.3826 78.6814 68.0268 79.363 66.1971L77.4889 65.4989ZM75.4577 71.192C75.1179 68.5584 73.0448 65.856 69.3539 65.856V67.856C71.855 67.856 73.238 69.6176 73.4742 71.448L75.4577 71.192ZM69.3539 65.856C65.8524 65.856 63.6739 68.6796 63.6739 71.536H65.6739C65.6739 69.6404 67.0954 67.856 69.3539 67.856V65.856ZM63.6739 71.536C63.6739 73.5555 64.5696 75.0989 65.8672 76.1129C67.1381 77.1062 68.7674 77.576 70.2899 77.576V75.576C69.1485 75.576 67.9698 75.2178 67.0987 74.5371C66.2542 73.8771 65.6739 72.9005 65.6739 71.536H63.6739ZM127.364 35.68H126.364V36.5932L127.273 36.6759L127.364 35.68ZM127.364 14.656L127.305 13.6577L126.364 13.7131V14.656H127.364ZM129.812 14.512L129.848 13.5126L129.8 13.5109L129.753 13.5137L129.812 14.512ZM109.868 56.776L109.758 55.7821L109.013 55.8648L108.883 56.6022L109.868 56.776ZM109.652 58L108.667 57.8262L108.46 59H109.652V58ZM133.772 58V59H134.964L134.757 57.8262L133.772 58ZM133.556 56.776L134.541 56.6022L134.41 55.8625L133.663 55.7818L133.556 56.776ZM130.892 56.488L130.999 55.4938L130.991 55.4929L130.983 55.4921L130.892 56.488ZM127.364 37.336L127.528 36.3496L126.364 36.1555V37.336H127.364ZM109.724 13V12H108.532L108.739 13.1738L109.724 13ZM109.94 14.224L108.955 14.3978L109.08 15.1034L109.788 15.2124L109.94 14.224ZM111.812 14.512L111.66 15.5004L111.682 15.5037L111.704 15.5061L111.812 14.512ZM112.46 56.488L112.57 57.4819L112.592 57.4794L112.614 57.476L112.46 56.488ZM130.1 35.04C129.648 35.04 129.23 34.9801 128.801 34.9028C128.402 34.831 127.909 34.7254 127.455 34.6841L127.273 36.6759C127.611 36.7066 127.946 36.781 128.447 36.8712C128.918 36.9559 129.472 37.04 130.1 37.04V35.04ZM128.364 35.68V14.656H126.364V35.68H128.364ZM127.423 15.6543L129.871 15.5103L129.753 13.5137L127.305 13.6577L127.423 15.6543ZM129.776 15.5114C132.599 15.6122 134.604 16.5074 135.923 18.0726C137.263 19.6614 138.028 22.0945 138.028 25.528H140.028C140.028 21.8335 139.209 18.8666 137.453 16.7834C135.676 14.6766 133.073 13.6278 129.848 13.5126L129.776 15.5114ZM138.028 25.528C138.028 28.4305 137.168 30.816 135.773 32.4586C134.387 34.0894 132.434 35.04 130.1 35.04V37.04C133.022 37.04 135.533 35.8306 137.297 33.7534C139.052 31.688 140.028 28.8175 140.028 25.528H138.028ZM108.883 56.6022L108.667 57.8262L110.637 58.1738L110.853 56.9498L108.883 56.6022ZM109.652 59H133.772V57H109.652V59ZM134.757 57.8262L134.541 56.6022L132.571 56.9498L132.787 58.1738L134.757 57.8262ZM133.663 55.7818L130.999 55.4938L130.785 57.4822L133.449 57.7702L133.663 55.7818ZM130.983 55.4921C129.379 55.3464 128.629 55.2089 128.287 55.0823C128.13 55.0241 128.192 55.014 128.274 55.1237C128.371 55.2552 128.364 55.377 128.364 55.336H126.364C126.364 55.583 126.402 55.9568 126.666 56.3133C126.914 56.648 127.264 56.8359 127.593 56.9577C128.223 57.1911 129.237 57.3416 130.801 57.4839L130.983 55.4921ZM128.364 55.336V37.336H126.364V55.336H128.364ZM127.2 38.3224C128.133 38.478 129.199 38.552 130.46 38.552V36.552C129.273 36.552 128.323 36.482 127.528 36.3496L127.2 38.3224ZM130.46 38.552C136.898 38.552 142.407 37.3664 146.343 35.0277C150.32 32.6643 152.7 29.1053 152.7 24.52H150.7C150.7 28.2867 148.796 31.2437 145.321 33.3083C141.805 35.3976 136.694 36.552 130.46 36.552V38.552ZM152.7 24.52C152.7 22.4071 152.233 20.5233 151.264 18.8972C150.295 17.2718 148.859 15.9612 147.008 14.9411C143.337 12.9192 137.966 12 131.036 12V14C137.858 14 142.819 14.9168 146.042 16.6929C147.638 17.5718 148.789 18.6507 149.546 19.9211C150.303 21.1907 150.7 22.7089 150.7 24.52H152.7ZM131.036 12H109.724V14H131.036V12ZM108.739 13.1738L108.955 14.3978L110.925 14.0502L110.709 12.8262L108.739 13.1738ZM109.788 15.2124L111.66 15.5004L111.964 13.5236L110.092 13.2356L109.788 15.2124ZM111.704 15.5061C113.385 15.6889 114.211 15.825 114.615 15.9573C114.813 16.0224 114.764 16.043 114.68 15.945C114.558 15.8037 114.556 15.6542 114.556 15.664H116.556C116.556 15.3858 116.5 14.9933 116.194 14.6382C115.925 14.3265 115.561 14.1626 115.237 14.0567C114.597 13.847 113.551 13.6951 111.92 13.5179L111.704 15.5061ZM114.556 15.664V55.192H116.556V15.664H114.556ZM114.556 55.192C114.556 54.8585 114.855 54.8411 114.48 55.001C114.118 55.155 113.453 55.3207 112.306 55.5L112.614 57.476C113.771 57.2953 114.654 57.101 115.264 56.841C115.861 56.5869 116.556 56.1015 116.556 55.192H114.556ZM112.35 55.4941L109.758 55.7821L109.978 57.7699L112.57 57.4819L112.35 55.4941ZM154.173 56.776L154.097 55.7789L153.323 55.8384L153.189 56.6022L154.173 56.776ZM153.957 58L152.973 57.8262L152.765 59H153.957V58ZM173.541 58V59H174.733L174.526 57.8262L173.541 58ZM173.325 56.776L174.31 56.6022L174.172 55.8215L173.381 55.7775L173.325 56.776ZM172.029 56.704L171.96 57.7016L171.967 57.7021L171.974 57.7025L172.029 56.704ZM168.429 39.784L167.477 39.4797L167.429 39.6282V39.784H168.429ZM173.757 31.648L174.703 31.3229L174.405 30.4554L173.515 30.6779L173.757 31.648ZM168.645 36.04V37.04H169.364L169.593 36.3592L168.645 36.04ZM168.429 36.04L167.429 36.0265L167.416 37.04H168.429V36.04ZM168.573 25.384L169.573 25.3975L169.591 24.062L168.305 24.4207L168.573 25.384ZM153.597 29.56L153.329 28.5967L152.654 28.7849L152.6 29.4833L153.597 29.56ZM153.525 30.496L152.528 30.4193L152.463 31.2613L153.283 31.4661L153.525 30.496ZM154.965 30.856L155.247 29.8966L155.228 29.8908L155.208 29.8859L154.965 30.856ZM155.109 56.704L155.186 57.7011L155.199 57.7L155.212 57.6987L155.109 56.704ZM153.189 56.6022L152.973 57.8262L154.942 58.1738L155.158 56.9498L153.189 56.6022ZM153.957 59H173.541V57H153.957V59ZM174.526 57.8262L174.31 56.6022L172.341 56.9498L172.557 58.1738L174.526 57.8262ZM173.381 55.7775L172.085 55.7055L171.974 57.7025L173.27 57.7745L173.381 55.7775ZM172.099 55.7064C170.542 55.5978 169.783 55.4581 169.428 55.3211C169.267 55.2589 169.299 55.2369 169.358 55.3165C169.432 55.4155 169.429 55.5063 169.429 55.48H167.429C167.429 55.7777 167.49 56.1565 167.755 56.512C168.005 56.8481 168.356 57.0511 168.708 57.1869C169.379 57.4459 170.421 57.5942 171.96 57.7016L172.099 55.7064ZM169.429 55.48V39.784H167.429V55.48H169.429ZM169.382 40.0883C170.199 37.5303 170.994 35.7228 171.793 34.5118C172.589 33.3052 173.324 32.787 174 32.6181L173.515 30.6779C172.174 31.013 171.073 31.9708 170.124 33.4102C169.177 34.8452 168.316 36.8536 167.477 39.4797L169.382 40.0883ZM172.812 31.9731C173.239 33.2164 173.905 34.498 174.958 35.4765C176.033 36.4761 177.464 37.112 179.301 37.112V35.112C177.97 35.112 177.025 34.6679 176.319 34.0115C175.59 33.334 175.068 32.3836 174.703 31.3229L172.812 31.9731ZM179.301 37.112C182.753 37.112 185.125 34.0478 185.125 31.072H183.125C183.125 33.1362 181.465 35.112 179.301 35.112V37.112ZM185.125 31.072C185.125 28.9818 184.456 27.2606 183.205 26.0651C181.962 24.8767 180.253 24.312 178.365 24.312V26.312C179.862 26.312 181.033 26.7553 181.823 27.5109C182.607 28.2594 183.125 29.4182 183.125 31.072H185.125ZM178.365 24.312C175.759 24.312 173.643 25.4493 171.911 27.4581C170.211 29.4305 168.865 32.2566 167.698 35.7208L169.593 36.3592C170.73 32.9834 171.976 30.4455 173.426 28.7639C174.844 27.1187 176.436 26.312 178.365 26.312V24.312ZM168.645 35.04H168.429V37.04H168.645V35.04ZM169.429 36.0535L169.573 25.3975L167.573 25.3705L167.429 36.0265L169.429 36.0535ZM168.305 24.4207L153.329 28.5967L153.866 30.5233L168.842 26.3473L168.305 24.4207ZM152.6 29.4833L152.528 30.4193L154.522 30.5727L154.594 29.6367L152.6 29.4833ZM153.283 31.4661L154.723 31.8261L155.208 29.8859L153.768 29.5259L153.283 31.4661ZM154.683 31.8154C155.914 32.1774 156.293 32.4159 156.526 32.826C156.662 33.0662 156.786 33.4379 156.87 34.066C156.953 34.6927 156.989 35.5134 156.989 36.616H158.989C158.989 35.4866 158.953 34.5613 158.852 33.802C158.751 33.0441 158.578 32.3898 158.265 31.838C157.598 30.6641 156.465 30.2546 155.247 29.8966L154.683 31.8154ZM156.989 36.616V55.48H158.989V36.616H156.989ZM156.989 55.48C156.989 55.5366 156.98 55.4741 157.042 55.3941C157.091 55.3301 157.116 55.3484 156.983 55.3979C156.67 55.5145 156.096 55.5966 155.006 55.7093L155.212 57.6987C156.21 57.5954 157.076 57.4975 157.681 57.2721C158.007 57.1506 158.361 56.9574 158.624 56.6166C158.9 56.2599 158.989 55.8554 158.989 55.48H156.989ZM155.033 55.7069L154.097 55.7789L154.25 57.7731L155.186 57.7011L155.033 55.7069ZM199.723 56.272L198.978 56.938L198.996 56.9591L199.016 56.9791L199.723 56.272ZM206.563 28.192L207.271 27.4849L207.271 27.4849L206.563 28.192ZM203.107 56.496C201.917 56.496 201.053 56.1875 200.431 55.5649L199.016 56.9791C200.122 58.0845 201.562 58.496 203.107 58.496V56.496ZM200.469 55.606C198.931 53.8828 197.483 50.0377 197.483 41.44H195.483C195.483 50.1223 196.916 54.6292 198.978 56.938L200.469 55.606ZM197.483 41.44C197.483 37.0365 198.055 33.5844 199.112 31.2715C200.153 28.9929 201.574 27.968 203.323 27.968V25.968C200.537 25.968 198.538 27.7151 197.293 30.4405C196.063 33.1316 195.483 36.9155 195.483 41.44H197.483ZM203.323 27.968C203.941 27.968 204.391 28.0337 204.765 28.1693C205.129 28.3011 205.476 28.5185 205.856 28.8991L207.271 27.4849C206.715 26.9295 206.126 26.5349 205.446 26.2887C204.776 26.0463 204.074 25.968 203.323 25.968V27.968ZM205.856 28.8991C207.489 30.5322 208.875 34.2549 208.875 42.808H210.875C210.875 34.2251 209.525 29.7398 207.271 27.4849L205.856 28.8991ZM208.875 42.808C208.875 47.0579 208.288 50.5743 207.223 52.9885C206.158 55.4053 204.737 56.496 203.107 56.496V58.496C205.87 58.496 207.833 56.5627 209.053 53.7955C210.275 51.0257 210.875 47.1981 210.875 42.808H208.875ZM202.819 60.008C214.341 60.008 222.251 52.0454 222.251 41.944H220.251C220.251 50.8506 213.329 58.008 202.819 58.008V60.008ZM222.251 41.944C222.251 37.2024 220.542 32.7845 217.336 29.5491C214.123 26.3079 209.467 24.312 203.683 24.312V26.312C208.988 26.312 213.115 28.1321 215.915 30.9569C218.721 33.7875 220.251 37.6856 220.251 41.944H222.251ZM203.683 24.312C192.242 24.312 184.251 32.2666 184.251 42.232H186.251C186.251 33.4774 193.237 26.312 203.683 26.312V24.312ZM184.251 42.232C184.251 47.0385 185.938 51.493 189.137 54.7498C192.342 58.0128 197.001 60.008 202.819 60.008V58.008C197.477 58.008 193.353 56.1872 190.564 53.3482C187.769 50.503 186.251 46.5695 186.251 42.232H184.251ZM238.809 59.152L239.808 59.1842L239.809 59.1681V59.152H238.809ZM238.809 25.384H239.809V24.0653L238.539 24.4211L238.809 25.384ZM223.905 29.56L223.635 28.5971L222.961 28.7858L222.908 29.4833L223.905 29.56ZM223.833 30.496L222.836 30.4193L222.77 31.271L223.601 31.4688L223.833 30.496ZM225.345 30.856L225.627 29.8966L225.602 29.8893L225.576 29.8832L225.345 30.856ZM223.617 74.272L222.794 73.7038L221.711 75.272H223.617V74.272ZM233.265 22.64C237.606 22.64 240.457 19.1937 240.457 15.52H238.457C238.457 18.1823 236.411 20.64 233.265 20.64V22.64ZM240.457 15.52C240.457 11.9106 237.599 8.472 233.265 8.472V10.472C236.418 10.472 238.457 12.9374 238.457 15.52H240.457ZM233.265 8.472C228.866 8.472 226.001 11.9026 226.001 15.52H228.001C228.001 12.9454 230.031 10.472 233.265 10.472V8.472ZM226.001 15.52C226.001 19.2017 228.859 22.64 233.265 22.64V20.64C230.039 20.64 228.001 18.1743 228.001 15.52H226.001ZM222.105 77.504C226.376 77.504 230.747 74.5913 234.004 71.0121C237.266 67.4282 239.689 62.8711 239.808 59.1842L237.809 59.1198C237.712 62.1289 235.636 66.2478 232.525 69.6659C229.41 73.0887 225.538 75.504 222.105 75.504V77.504ZM239.809 59.152V25.384H237.809V59.152H239.809ZM238.539 24.4211L223.635 28.5971L224.175 30.5229L239.079 26.3469L238.539 24.4211ZM222.908 29.4833L222.836 30.4193L224.83 30.5727L224.902 29.6367L222.908 29.4833ZM223.601 31.4688L225.113 31.8288L225.576 29.8832L224.064 29.5232L223.601 31.4688ZM225.063 31.8154C226.293 32.1774 226.672 32.4159 226.905 32.826C227.042 33.0662 227.166 33.4379 227.249 34.066C227.333 34.6927 227.369 35.5134 227.369 36.616H229.369C229.369 35.4866 229.333 34.5613 229.232 33.802C229.131 33.0441 228.958 32.3898 228.644 31.838C227.977 30.6641 226.844 30.2546 225.627 29.8966L225.063 31.8154ZM227.369 36.616V60.448H229.369V36.616H227.369ZM227.369 60.448C227.369 64.6145 227.114 67.9441 226.439 70.206C226.102 71.3333 225.685 72.109 225.219 72.5921C224.782 73.045 224.275 73.272 223.617 73.272V75.272C224.831 75.272 225.853 74.815 226.658 73.9809C227.434 73.177 227.971 72.0627 228.355 70.778C229.12 68.2159 229.369 64.6335 229.369 60.448H227.369ZM224.44 74.8402C225.674 73.0524 225.879 70.8039 225.116 68.9734C224.334 67.0975 222.554 65.712 220.017 65.712V67.712C221.728 67.712 222.791 68.5945 223.27 69.7426C223.767 70.9361 223.647 72.4676 222.794 73.7038L224.44 74.8402ZM220.017 65.712C216.903 65.712 214.337 68.1454 214.337 71.248H216.337C216.337 69.3106 217.946 67.712 220.017 67.712V65.712ZM214.337 71.248C214.337 73.0919 215.099 74.6966 216.504 75.8185C217.888 76.9237 219.821 77.504 222.105 77.504V75.504C220.141 75.504 218.689 75.0043 217.752 74.2555C216.835 73.5234 216.337 72.5001 216.337 71.248H214.337ZM266.676 36.4L266.683 37.4L267.676 37.3928V36.4H266.676ZM256.668 36.472L255.671 36.3918L255.583 37.4798L256.675 37.472L256.668 36.472ZM276.612 47.92L277.555 48.2504L277.846 47.4193L277.059 47.0256L276.612 47.92ZM275.748 47.488L276.195 46.5936L275.334 46.1632L274.871 47.0067L275.748 47.488ZM256.668 37.768V36.768H255.773L255.674 37.6576L256.668 37.768ZM267.468 37.984L267.495 36.9844L267.481 36.984H267.468V37.984ZM276.108 38.128L276.084 39.1277L276.906 39.1468L277.084 38.3449L276.108 38.128ZM266.668 35.4L256.66 35.472L256.675 37.472L266.683 37.4L266.668 35.4ZM257.664 36.5522C257.908 33.5198 258.617 31.3211 259.524 29.9125C260.424 28.5151 261.458 27.968 262.428 27.968V25.968C260.589 25.968 258.995 27.0409 257.843 28.8295C256.698 30.6069 255.931 33.1602 255.671 36.3918L257.664 36.5522ZM262.428 27.968C263.469 27.968 264.27 28.637 264.855 30.2214C265.442 31.8092 265.676 34.0258 265.676 36.4H267.676C267.676 33.9502 267.441 31.4508 266.732 29.5286C266.021 27.603 264.698 25.968 262.428 25.968V27.968ZM261.132 60.152C265.302 60.152 268.763 59.097 271.522 57.0374C274.275 54.9819 276.247 51.9878 277.555 48.2504L275.668 47.5896C274.456 51.0522 272.684 53.6741 270.325 55.4346C267.972 57.191 264.953 58.152 261.132 58.152V60.152ZM277.059 47.0256L276.195 46.5936L275.3 48.3824L276.164 48.8144L277.059 47.0256ZM274.871 47.0067C273.01 50.3955 270.375 52.032 266.892 52.032V54.032C271.185 54.032 274.453 51.9245 276.624 47.9693L274.871 47.0067ZM266.892 52.032C264.029 52.032 261.744 50.8574 260.153 48.8397C258.543 46.7993 257.596 43.8317 257.596 40.216H255.596C255.596 44.1603 256.628 47.6007 258.582 50.0783C260.555 52.5786 263.418 54.032 266.892 54.032V52.032ZM257.596 40.216C257.596 39.5427 257.597 38.4578 257.661 37.8784L255.674 37.6576C255.594 38.3742 255.596 39.5933 255.596 40.216H257.596ZM256.668 38.768C257.441 38.768 258.961 38.8211 260.906 38.8756C262.834 38.9297 265.149 38.984 267.468 38.984V36.984C265.178 36.984 262.885 36.9303 260.962 36.8764C259.054 36.8229 257.478 36.768 256.668 36.768V38.768ZM267.441 38.9836C270.066 39.0546 273.06 39.0574 276.084 39.1277L276.131 37.1283C272.963 37.0546 270.197 37.0574 267.495 36.9844L267.441 38.9836ZM277.084 38.3449C277.246 37.6136 277.324 36.8194 277.324 35.968H275.324C275.324 36.7006 275.257 37.3464 275.131 37.9111L277.084 38.3449ZM277.324 35.968C277.324 29.9521 272.346 24.168 263.436 24.168V26.168C271.373 26.168 275.324 31.1839 275.324 35.968H277.324ZM263.436 24.168C252.809 24.168 244.58 32.3144 244.58 42.952H246.58C246.58 33.4296 253.903 26.168 263.436 26.168V24.168ZM244.58 42.952C244.58 52.981 251.696 60.152 261.132 60.152V58.152C252.855 58.152 246.58 51.931 246.58 42.952H244.58ZM310.706 47.92L311.647 48.2587L311.938 47.4524L311.185 47.0421L310.706 47.92ZM309.914 47.488L310.393 46.6101L309.518 46.1326L309.038 47.0067L309.914 47.488ZM301.706 28.696H302.706V28.6544L302.703 28.613L301.706 28.696ZM300.194 32.008L301.19 32.1006L301.194 32.0544V32.008H300.194ZM295.514 60.152C299.412 60.152 302.779 59.0891 305.519 57.0363C308.253 54.9878 310.3 52.0023 311.647 48.2587L309.765 47.5813C308.521 51.0377 306.679 53.6682 304.32 55.4357C301.966 57.1989 299.033 58.152 295.514 58.152V60.152ZM311.185 47.0421L310.393 46.6101L309.436 48.3659L310.228 48.7979L311.185 47.0421ZM309.038 47.0067C307.175 50.3994 304.537 52.032 301.13 52.032V54.032C305.355 54.032 308.622 51.9206 310.791 47.9693L309.038 47.0067ZM301.13 52.032C298.214 52.032 296.062 50.936 294.603 48.9407C293.11 46.8996 292.266 43.8089 292.266 39.712H290.266C290.266 44.0391 291.151 47.6084 292.988 50.1213C294.859 52.68 297.639 54.032 301.13 54.032V52.032ZM292.266 39.712C292.266 35.6693 292.99 32.7237 294.138 30.8242C295.26 28.9686 296.773 28.112 298.538 28.112V26.112C295.984 26.112 293.861 27.4154 292.426 29.7898C291.018 32.1203 290.266 35.4747 290.266 39.712H292.266ZM298.538 28.112C299.233 28.112 299.851 28.2652 300.269 28.4744C300.748 28.714 300.718 28.8813 300.71 28.779L302.703 28.613C302.622 27.6467 301.837 27.022 301.164 26.6856C300.43 26.3188 299.499 26.112 298.538 26.112V28.112ZM300.706 28.696C300.706 28.4703 300.798 28.3379 300.756 28.4171C300.739 28.4493 300.704 28.509 300.635 28.6122C300.52 28.7879 300.297 29.1059 300.103 29.4159C299.717 30.0324 299.194 30.9813 299.194 32.008H301.194C301.194 31.5947 301.428 31.0676 301.798 30.4781C301.981 30.1851 302.137 29.9676 302.305 29.7135C302.378 29.6019 302.461 29.4731 302.526 29.3481C302.567 29.2701 302.706 29.0117 302.706 28.696H300.706ZM299.199 31.9154C298.866 35.4902 301.303 38.912 305.234 38.912V36.912C302.686 36.912 300.947 34.7178 301.19 32.1006L299.199 31.9154ZM305.234 38.912C306.872 38.912 308.374 38.3423 309.471 37.2673C310.573 36.1881 311.202 34.6618 311.202 32.872H309.202C309.202 34.1782 308.752 35.1719 308.072 35.8387C307.387 36.5097 306.405 36.912 305.234 36.912V38.912ZM311.202 32.872C311.202 30.2155 309.708 28.0379 307.357 26.5698C305.023 25.1121 301.8 24.312 298.106 24.312V26.312C301.54 26.312 304.366 27.0599 306.298 28.2662C308.213 29.4621 309.202 31.0645 309.202 32.872H311.202ZM298.106 24.312C286.901 24.312 278.962 32.3891 278.962 43.24H280.962C280.962 33.4989 288 26.312 298.106 26.312V24.312ZM278.962 43.24C278.962 53.1432 286.097 60.152 295.514 60.152V58.152C287.22 58.152 280.962 52.0568 280.962 43.24H278.962ZM338.427 52.672L339.162 53.3497L339.552 52.9271L339.383 52.3779L338.427 52.672ZM338.139 51.736L339.095 51.4419L338.665 50.0464L337.519 50.9511L338.139 51.736ZM326.691 46.192L325.691 46.1777L325.691 46.1793L326.691 46.192ZM326.907 31.072V30.072H325.921L325.907 31.0577L326.907 31.072ZM337.059 31.072V32.072H337.871L338.038 31.2772L337.059 31.072ZM337.995 26.608L338.974 26.8132L339.226 25.608H337.995V26.608ZM326.979 26.608L325.979 26.5995L325.97 27.608H326.979V26.608ZM327.051 18.184L328.051 18.1925L328.059 17.2288L327.096 17.185L327.051 18.184ZM325.467 18.112L325.512 17.113L325.147 17.0964L324.858 17.319L325.467 18.112ZM319.563 22.648L320.164 23.447L320.172 23.441L319.563 22.648ZM313.155 27.472L312.554 26.6731L312.372 26.8095L312.268 27.0106L313.155 27.472ZM311.283 31.072L310.396 30.6106L309.667 32.0128L311.246 32.0713L311.283 31.072ZM317.115 31.288L318.115 31.3049L318.131 30.325L317.152 30.2887L317.115 31.288ZM316.827 48.28L317.827 48.3004L317.827 48.2969L316.827 48.28ZM326.403 59.864C331.772 59.864 335.691 57.1164 339.162 53.3497L337.692 51.9943C334.395 55.5716 330.97 57.864 326.403 57.864V59.864ZM339.383 52.3779L339.095 51.4419L337.183 52.0301L337.471 52.9661L339.383 52.3779ZM337.519 50.9511C336.31 51.9055 334.653 52.68 332.307 52.68V54.68C335.145 54.68 337.232 53.7265 338.759 52.5209L337.519 50.9511ZM332.307 52.68C330.541 52.68 329.484 52.2654 328.819 51.4414C328.109 50.56 327.656 48.9856 327.691 46.2047L325.691 46.1793C325.654 49.0864 326.101 51.256 327.262 52.6966C328.47 54.1946 330.257 54.68 332.307 54.68V52.68ZM327.691 46.2063L327.907 31.0863L325.907 31.0577L325.691 46.1777L327.691 46.2063ZM326.907 32.072H337.059V30.072H326.907V32.072ZM338.038 31.2772L338.974 26.8132L337.016 26.4028L336.08 30.8668L338.038 31.2772ZM337.995 25.608H326.979V27.608H337.995V25.608ZM327.979 26.6165L328.051 18.1925L326.051 18.1755L325.979 26.5995L327.979 26.6165ZM327.096 17.185L325.512 17.113L325.422 19.111L327.006 19.183L327.096 17.185ZM324.858 17.319L318.954 21.855L320.172 23.441L326.076 18.905L324.858 17.319ZM318.962 21.8491L312.554 26.6731L313.756 28.2709L320.164 23.4469L318.962 21.8491ZM312.268 27.0106L310.396 30.6106L312.17 31.5334L314.042 27.9334L312.268 27.0106ZM311.246 32.0713L317.078 32.2873L317.152 30.2887L311.32 30.0727L311.246 32.0713ZM316.115 31.2711L315.827 48.2631L317.827 48.2969L318.115 31.3049L316.115 31.2711ZM315.827 48.2596C315.752 51.9195 316.531 54.8605 318.362 56.8882C320.208 58.9322 322.955 59.864 326.403 59.864V57.864C323.299 57.864 321.186 57.0318 319.846 55.5478C318.491 54.0475 317.757 51.6965 317.827 48.3004L315.827 48.2596ZM356.131 37.84L355.759 38.7685L355.766 38.7712L356.131 37.84ZM357.643 28.12L358.47 27.5585L358.338 27.3638L358.133 27.2484L357.643 28.12ZM363.115 36.184L362.287 36.7455L362.599 37.2046L363.153 37.1833L363.115 36.184ZM364.987 36.112L365.025 37.1113L366.021 37.073L365.986 36.0768L364.987 36.112ZM364.627 25.888L365.626 25.8528L365.585 24.6952L364.446 24.9045L364.627 25.888ZM361.099 26.536L360.782 27.4847L361.026 27.566L361.279 27.5195L361.099 26.536ZM350.587 46.12L350.219 47.0502L350.227 47.0533L350.235 47.0563L350.587 46.12ZM344.467 52.024L343.566 52.4583L343.599 52.527L343.642 52.5898L344.467 52.024ZM342.523 47.992L343.423 47.5577L343.172 47.0358L342.594 46.9945L342.523 47.992ZM340.507 47.848L340.578 46.8505L339.481 46.7722L339.507 47.8714L340.507 47.848ZM340.723 57.064L339.723 57.0874L339.738 57.741L340.343 57.9892L340.723 57.064ZM352.387 60.008C357.386 60.008 361.149 58.6633 363.678 56.48C366.214 54.2905 367.427 51.3262 367.427 48.28H365.427C365.427 50.7778 364.443 53.1775 362.371 54.966C360.292 56.7607 357.035 58.008 352.387 58.008V60.008ZM367.427 48.28C367.427 44.8023 365.922 42.4075 363.771 40.6633C361.678 38.9657 358.956 37.8718 356.495 36.9088L355.766 38.7712C358.273 39.7522 360.699 40.7463 362.512 42.2167C364.267 43.6405 365.427 45.4937 365.427 48.28H367.427ZM356.502 36.9115C354.279 36.0222 352.504 35.3672 351.244 34.5386C350.06 33.7594 349.499 32.9374 349.499 31.72H347.499C347.499 33.8146 348.593 35.1886 350.145 36.2094C351.621 37.1808 353.662 37.9298 355.759 38.7685L356.502 36.9115ZM349.499 31.72C349.499 30.4713 349.903 29.5652 350.542 28.9663C351.188 28.3602 352.181 27.968 353.539 27.968V25.968C351.8 25.968 350.273 26.4758 349.173 27.5077C348.066 28.5468 347.499 30.0166 347.499 31.72H349.499ZM353.539 27.968C355.038 27.968 356.091 28.3946 357.152 28.9916L358.133 27.2484C356.89 26.5494 355.495 25.968 353.539 25.968V27.968ZM356.815 28.6815L362.287 36.7455L363.942 35.6225L358.47 27.5585L356.815 28.6815ZM363.153 37.1833L365.025 37.1113L364.948 35.1127L363.076 35.1847L363.153 37.1833ZM365.986 36.0768L365.626 25.8528L363.627 25.9232L363.987 36.1472L365.986 36.0768ZM364.446 24.9045L360.918 25.5525L361.279 27.5195L364.807 26.8715L364.446 24.9045ZM361.415 25.5873C359.364 24.9038 356.305 24.384 353.611 24.384V26.384C356.1 26.384 358.945 26.8722 360.782 27.4847L361.415 25.5873ZM353.611 24.384C349.556 24.384 346.076 25.4537 343.587 27.4582C341.078 29.4797 339.651 32.3968 339.651 35.896H341.651C341.651 32.9872 342.815 30.6483 344.842 29.0158C346.889 27.3663 349.889 26.384 353.611 26.384V24.384ZM339.651 35.896C339.651 39.1888 340.904 41.4783 342.917 43.1991C344.863 44.8629 347.503 45.9778 350.219 47.0502L350.954 45.1898C348.198 44.1022 345.87 43.0931 344.216 41.6789C342.629 40.3217 341.651 38.5792 341.651 35.896H339.651ZM350.235 47.0563C352.287 47.8257 354.089 48.5053 355.393 49.3804C356.654 50.2264 357.291 51.1441 357.291 52.384H359.291C359.291 50.2399 358.091 48.7816 356.508 47.7196C354.968 46.6867 352.918 45.9263 350.938 45.1837L350.235 47.0563ZM357.291 52.384C357.291 53.7083 356.866 54.6996 356.144 55.367C355.414 56.0426 354.261 56.496 352.603 56.496V58.496C354.616 58.496 356.307 57.9414 357.503 56.835C358.707 55.7204 359.291 54.1557 359.291 52.384H357.291ZM352.603 56.496C350.916 56.496 349.723 56.0983 348.663 55.328C347.56 54.5266 346.543 53.2823 345.291 51.4582L343.642 52.5898C344.91 54.4377 346.089 55.9294 347.488 56.946C348.93 57.9937 350.545 58.496 352.603 58.496V56.496ZM345.367 51.5897L343.423 47.5577L341.622 48.4263L343.566 52.4583L345.367 51.5897ZM342.594 46.9945L340.578 46.8505L340.435 48.8455L342.451 48.9895L342.594 46.9945ZM339.507 47.8714L339.723 57.0874L341.722 57.0406L341.506 47.8246L339.507 47.8714ZM340.343 57.9892C343.303 59.2034 347.903 60.008 352.387 60.008V58.008C348.086 58.008 343.758 57.2286 341.102 56.1388L340.343 57.9892Z" fill="#344E41" fill-opacity="0.52"/>
<path d="M63.922 69.184L63.778 70H74.674L74.53 69.184L73.138 69.04C70.21 68.8 69.634 68.128 69.778 65.056L70.258 43.552H70.45L79.714 69.712H81.922L91.714 42.496H91.906L92.53 65.776C92.578 68.224 92.194 68.8 90.85 68.944L88.546 69.184L88.402 70H104.866L104.722 69.184L103.042 68.944C101.17 68.704 100.69 68.464 100.69 65.872L100.162 42.112C100.162 41.68 100.738 41.2 102.082 41.056L104.578 40.864L104.722 40H91.234L84.37 59.728H84.178L77.41 40H63.97L64.114 40.864L65.794 41.056C67.186 41.248 68.29 41.92 69.106 43.12L68.482 64.624C68.338 67.984 67.81 68.8 65.218 69.04L63.922 69.184ZM109.027 82.384C111.907 82.384 113.875 80.512 115.363 76.096L117.715 69.328L122.995 55.264C124.627 50.848 125.059 50.08 126.835 49.936L127.891 49.744L128.035 48.928H119.155L119.299 49.744L120.307 50.032C122.851 50.416 123.187 51.184 121.795 55.168L118.867 63.28L114.163 51.952C113.539 50.656 113.827 50.176 115.507 49.936L116.563 49.744L116.707 48.928H103.219L103.363 49.744L104.179 49.936C105.571 50.176 106.003 50.512 106.771 52.192L115.171 71.056H115.987L114.451 75.232C113.539 77.68 113.011 78.544 111.811 78.88C111.619 77.392 110.467 75.904 108.403 75.904C106.483 75.904 105.283 77.44 105.283 79.024C105.283 81.28 107.251 82.384 109.027 82.384ZM148.9 55.36C148.18 55.36 147.604 55.168 147.076 55.12V41.104L148.708 41.008C152.74 41.152 154.852 43.6 154.852 48.352C154.852 52.48 152.404 55.36 148.9 55.36ZM135.412 69.184L135.268 70H151.348L151.204 69.184L149.428 68.992C147.316 68.8 147.076 68.608 147.076 68.224V56.224C147.652 56.32 148.324 56.368 149.14 56.368C157.588 56.368 163.3 53.248 163.3 47.68C163.3 42.448 158.692 40 149.524 40H135.316L135.46 40.816L136.708 41.008C138.916 41.248 139.204 41.392 139.204 41.776V68.128C139.204 68.512 138.676 68.752 137.14 68.992L135.412 69.184ZM164.949 69.184L164.805 70H177.861L177.717 69.184L176.853 69.136C174.789 68.992 174.453 68.752 174.453 68.32V57.856C175.557 54.4 176.661 52.768 178.005 52.432C178.533 53.968 179.589 55.408 181.701 55.408C183.573 55.408 184.917 53.728 184.917 52.048C184.917 49.552 183.333 48.208 181.077 48.208C178.053 48.208 176.133 50.8 174.597 55.36H174.453L174.549 48.256L164.565 51.04L164.517 51.664L165.477 51.904C167.109 52.384 167.493 52.768 167.493 55.744V68.32C167.493 68.896 166.965 68.992 165.573 69.136L164.949 69.184ZM197.572 69.664C196.66 69.664 195.892 69.424 195.316 68.848C194.116 67.504 193.156 64.72 193.156 58.96C193.156 53.008 194.692 49.312 197.716 49.312C198.628 49.312 199.252 49.504 199.876 50.128C201.172 51.424 202.084 54.16 202.084 59.872C202.084 65.632 200.5 69.664 197.572 69.664ZM197.38 70.672C204.724 70.672 209.668 65.632 209.668 59.296C209.668 53.296 205.348 48.208 197.956 48.208C190.66 48.208 185.668 53.248 185.668 59.488C185.668 65.584 189.94 70.672 197.38 70.672ZM217.677 45.76C220.173 45.76 221.805 43.792 221.805 41.68C221.805 39.616 220.173 37.648 217.677 37.648C215.133 37.648 213.501 39.616 213.501 41.68C213.501 43.792 215.133 45.76 217.677 45.76ZM210.236 82.336C215.373 82.336 221.229 75.232 221.373 70.768V48.256L211.437 51.04L211.389 51.664L212.396 51.904C214.029 52.384 214.413 52.768 214.413 55.744V71.632C214.413 77.2 213.741 80.848 211.245 80.848C212.637 78.832 211.677 75.808 208.844 75.808C207.116 75.808 205.724 77.152 205.724 78.832C205.724 80.896 207.404 82.336 210.236 82.336ZM239.95 55.6L233.278 55.648C233.614 51.472 235.246 49.312 237.118 49.312C239.326 49.312 239.95 52.384 239.95 55.6ZM236.254 70.768C241.582 70.768 244.894 68.08 246.574 63.28L245.998 62.992C244.654 65.44 242.686 66.688 240.094 66.688C235.87 66.688 233.23 63.184 233.23 58.144C233.23 57.712 233.23 56.944 233.278 56.512C234.334 56.512 237.406 56.656 240.478 56.656C242.254 56.704 244.174 56.704 246.238 56.752C246.334 56.32 246.382 55.84 246.382 55.312C246.382 51.712 243.406 48.112 237.79 48.112C231.07 48.112 225.886 53.248 225.886 59.968C225.886 66.304 230.35 70.768 236.254 70.768ZM259.176 70.768C264.12 70.768 267.576 68.08 269.304 63.28L268.776 62.992C267.432 65.44 265.464 66.688 262.92 66.688C258.648 66.688 256.344 63.424 256.344 57.808C256.344 52.288 258.312 49.408 261.192 49.408C262.296 49.408 263.256 49.888 263.304 50.464C263.304 50.704 262.296 51.712 262.296 52.672C262.104 54.736 263.496 56.608 265.656 56.608C267.528 56.608 268.968 55.312 268.968 53.248C268.968 50.272 265.656 48.208 260.904 48.208C253.8 48.208 248.808 53.296 248.808 60.16C248.808 66.4 253.272 70.768 259.176 70.768ZM279.769 70.576C283.081 70.576 285.529 68.896 287.785 66.448L287.593 65.824C286.681 66.544 285.433 67.12 283.705 67.12C281.161 67.12 279.913 65.92 279.961 62.128L280.105 52.048H286.873L287.497 49.072H280.153L280.201 43.456L279.145 43.408L275.209 46.432L270.937 49.648L269.689 52.048L273.577 52.192L273.385 63.52C273.289 68.224 275.401 70.576 279.769 70.576ZM297.091 70.672C303.523 70.672 306.451 67.216 306.451 63.52C306.451 59.344 302.899 57.856 299.587 56.56C296.707 55.408 294.499 54.688 294.499 52.48C294.499 50.512 295.795 49.312 297.859 49.312C299.011 49.312 299.827 49.648 300.595 50.08L304.243 55.456L305.491 55.408L305.251 48.592L302.899 49.024C301.603 48.592 299.635 48.256 297.907 48.256C292.723 48.256 289.267 50.992 289.267 55.264C289.267 59.248 292.243 60.64 295.891 62.08C298.579 63.088 301.027 64 301.027 66.256C301.027 68.32 299.683 69.664 297.235 69.664C294.739 69.664 293.491 68.464 291.811 66.016L290.515 63.328L289.171 63.232L289.315 69.376C291.187 70.144 294.163 70.672 297.091 70.672Z" fill="#1E2C25"/>
</svg>
