<svg width="240" height="100" viewBox="0 0 240 100" fill="none" xmlns="http://www.w3.org/2000/svg">
<path d="M23.8328 35.68H22.8328V36.5932L23.7422 36.6759L23.8328 35.68ZM23.8328 14.656L23.774 13.6577L22.8328 13.7131V14.656H23.8328ZM26.2808 14.512L26.3164 13.5126L26.2692 13.5109L26.222 13.5137L26.2808 14.512ZM6.33675 56.776L6.22632 55.7821L5.4821 55.8648L5.35197 56.6022L6.33675 56.776ZM6.12075 58L5.13597 57.8262L4.92883 59H6.12075V58ZM30.2408 58V59H31.4327L31.2255 57.8262L30.2408 58ZM30.0248 56.776L31.0095 56.6022L30.879 55.8625L30.1322 55.7818L30.0248 56.776ZM27.3608 56.488L27.4682 55.4938L27.4598 55.4929L27.4513 55.4921L27.3608 56.488ZM23.8328 37.336L23.9971 36.3496L22.8328 36.1555V37.336H23.8328ZM6.19275 13V12H5.00083L5.20797 13.1738L6.19275 13ZM6.40875 14.224L5.42397 14.3978L5.54849 15.1034L6.25669 15.2124L6.40875 14.224ZM8.28075 14.512L8.12869 15.5004L8.15063 15.5037L8.17269 15.5061L8.28075 14.512ZM8.92875 56.488L9.03918 57.4819L9.06122 57.4794L9.08313 57.476L8.92875 56.488ZM26.5688 35.04C26.1171 35.04 25.6992 34.9801 25.2699 34.9028C24.8708 34.831 24.3773 34.7254 23.9233 34.6841L23.7422 36.6759C24.0802 36.7066 24.4147 36.781 24.9156 36.8712C25.3863 36.9559 25.9404 37.04 26.5688 37.04V35.04ZM24.8328 35.68V14.656H22.8328V35.68H24.8328ZM23.8915 15.6543L26.3395 15.5103L26.222 13.5137L23.774 13.6577L23.8915 15.6543ZM26.2451 15.5114C29.0677 15.6122 31.0725 16.5074 32.3922 18.0726C33.7318 19.6614 34.4968 22.0945 34.4968 25.528H36.4968C36.4968 21.8335 35.6777 18.8666 33.9213 16.7834C32.145 14.6766 29.5418 13.6278 26.3164 13.5126L26.2451 15.5114ZM34.4968 25.528C34.4968 28.4305 33.637 30.816 32.2416 32.4586C30.8562 34.0894 28.9026 35.04 26.5688 35.04V37.04C29.4909 37.04 32.0013 35.8306 33.7659 33.7534C35.5205 31.688 36.4968 28.8175 36.4968 25.528H34.4968ZM5.35197 56.6022L5.13597 57.8262L7.10553 58.1738L7.32153 56.9498L5.35197 56.6022ZM6.12075 59H30.2408V57H6.12075V59ZM31.2255 57.8262L31.0095 56.6022L29.04 56.9498L29.256 58.1738L31.2255 57.8262ZM30.1322 55.7818L27.4682 55.4938L27.2533 57.4822L29.9173 57.7702L30.1322 55.7818ZM27.4513 55.4921C25.848 55.3464 25.0979 55.2089 24.7561 55.0823C24.5991 55.0241 24.6612 55.014 24.7423 55.1237C24.8397 55.2552 24.8328 55.377 24.8328 55.336H22.8328C22.8328 55.583 22.8708 55.9568 23.1347 56.3133C23.3823 56.648 23.7324 56.8359 24.0614 56.9577C24.6916 57.1911 25.7055 57.3416 27.2702 57.4839L27.4513 55.4921ZM24.8328 55.336V37.336H22.8328V55.336H24.8328ZM23.6684 38.3224C24.6019 38.478 25.6677 38.552 26.9288 38.552V36.552C25.7418 36.552 24.7916 36.482 23.9971 36.3496L23.6684 38.3224ZM26.9288 38.552C33.367 38.552 38.8757 37.3664 42.8116 35.0277C46.7889 32.6643 49.1688 29.1053 49.1688 24.52H47.1688C47.1688 28.2867 45.2646 31.2437 41.7899 33.3083C38.2738 35.3976 33.1625 36.552 26.9288 36.552V38.552ZM49.1688 24.52C49.1688 22.4071 48.702 20.5233 47.7329 18.8972C46.7642 17.2718 45.3278 15.9612 43.4763 14.9411C39.8061 12.9192 34.435 12 27.5048 12V14C34.3265 14 39.2874 14.9168 42.5112 16.6929C44.1067 17.5718 45.2578 18.6507 46.0149 19.9211C46.7715 21.1907 47.1688 22.7089 47.1688 24.52H49.1688ZM27.5048 12H6.19275V14H27.5048V12ZM5.20797 13.1738L5.42397 14.3978L7.39353 14.0502L7.17753 12.8262L5.20797 13.1738ZM6.25669 15.2124L8.12869 15.5004L8.43281 13.5236L6.56081 13.2356L6.25669 15.2124ZM8.17269 15.5061C9.85405 15.6889 10.6796 15.825 11.0834 15.9573C11.282 16.0224 11.2331 16.043 11.1485 15.945C11.0265 15.8037 11.0248 15.6542 11.0248 15.664H13.0248C13.0248 15.3858 12.969 14.9933 12.6625 14.6382C12.3934 14.3265 12.0295 14.1626 11.7061 14.0567C11.0659 13.847 10.0195 13.6951 8.38881 13.5179L8.17269 15.5061ZM11.0248 15.664V55.192H13.0248V15.664H11.0248ZM11.0248 55.192C11.0248 54.8585 11.3242 54.8411 10.9489 55.001C10.5872 55.155 9.92165 55.3207 8.77437 55.5L9.08313 57.476C10.2399 57.2953 11.1223 57.101 11.7326 56.841C12.3293 56.5869 13.0248 56.1015 13.0248 55.192H11.0248ZM8.81832 55.4941L6.22632 55.7821L6.44718 57.7699L9.03918 57.4819L8.81832 55.4941ZM50.6421 56.776L50.5654 55.7789L49.7921 55.8384L49.6573 56.6022L50.6421 56.776ZM50.4261 58L49.4413 57.8262L49.2341 59H50.4261V58ZM70.0101 58V59H71.202L70.9948 57.8262L70.0101 58ZM69.7941 56.776L70.7788 56.6022L70.6411 55.8215L69.8495 55.7775L69.7941 56.776ZM68.4981 56.704L68.4285 57.7016L68.4355 57.7021L68.4426 57.7025L68.4981 56.704ZM64.8981 39.784L63.9455 39.4797L63.8981 39.6282V39.784H64.8981ZM70.2261 31.648L71.1717 31.3229L70.8735 30.4554L69.9835 30.6779L70.2261 31.648ZM65.1141 36.04V37.04H65.8324L66.0617 36.3592L65.1141 36.04ZM64.8981 36.04L63.8982 36.0265L63.8845 37.04H64.8981V36.04ZM65.0421 25.384L66.042 25.3975L66.06 24.062L64.7735 24.4207L65.0421 25.384ZM50.0661 29.56L49.7975 28.5967L49.1227 28.7849L49.069 29.4833L50.0661 29.56ZM49.9941 30.496L48.997 30.4193L48.9322 31.2613L49.7515 31.4661L49.9941 30.496ZM51.4341 30.856L51.7162 29.8966L51.6965 29.8908L51.6766 29.8859L51.4341 30.856ZM51.5781 56.704L51.6548 57.7011L51.6679 57.7L51.681 57.6987L51.5781 56.704ZM49.6573 56.6022L49.4413 57.8262L51.4108 58.1738L51.6268 56.9498L49.6573 56.6022ZM50.4261 59H70.0101V57H50.4261V59ZM70.9948 57.8262L70.7788 56.6022L68.8093 56.9498L69.0253 58.1738L70.9948 57.8262ZM69.8495 55.7775L68.5535 55.7055L68.4426 57.7025L69.7386 57.7745L69.8495 55.7775ZM68.5677 55.7064C67.0103 55.5978 66.2521 55.4581 65.8971 55.3211C65.7361 55.2589 65.7675 55.2369 65.8269 55.3165C65.9007 55.4155 65.8981 55.5063 65.8981 55.48H63.8981C63.8981 55.7777 63.9585 56.1565 64.2235 56.512C64.4741 56.8481 64.8251 57.0511 65.177 57.1869C65.8481 57.4459 66.8898 57.5942 68.4285 57.7016L68.5677 55.7064ZM65.8981 55.48V39.784H63.8981V55.48H65.8981ZM65.8506 40.0883C66.6678 37.5303 67.4626 35.7228 68.2617 34.5118C69.0579 33.3052 69.7931 32.787 70.4686 32.6181L69.9835 30.6779C68.643 31.013 67.5422 31.9708 66.5924 33.4102C65.6455 34.8452 64.7844 36.8536 63.9455 39.4797L65.8506 40.0883ZM69.2804 31.9731C69.7078 33.2164 70.3734 34.498 71.4263 35.4765C72.502 36.4761 73.933 37.112 75.7701 37.112V35.112C74.4391 35.112 73.4942 34.6679 72.7878 34.0115C72.0588 33.334 71.5364 32.3836 71.1717 31.3229L69.2804 31.9731ZM75.7701 37.112C79.2222 37.112 81.5941 34.0478 81.5941 31.072H79.5941C79.5941 33.1362 77.934 35.112 75.7701 35.112V37.112ZM81.5941 31.072C81.5941 28.9818 80.9248 27.2606 79.674 26.0651C78.4306 24.8767 76.7217 24.312 74.8341 24.312V26.312C76.3304 26.312 77.5015 26.7553 78.2921 27.5109C79.0753 28.2594 79.5941 29.4182 79.5941 31.072H81.5941ZM74.8341 24.312C72.2278 24.312 70.1114 25.4493 68.3797 27.4581C66.6793 29.4305 65.3333 32.2566 64.1664 35.7208L66.0617 36.3592C67.1989 32.9834 68.4448 30.4455 69.8945 28.7639C71.3128 27.1187 72.9043 26.312 74.8341 26.312V24.312ZM65.1141 35.04H64.8981V37.04H65.1141V35.04ZM65.898 36.0535L66.042 25.3975L64.0422 25.3705L63.8982 36.0265L65.898 36.0535ZM64.7735 24.4207L49.7975 28.5967L50.3347 30.5233L65.3107 26.3473L64.7735 24.4207ZM49.069 29.4833L48.997 30.4193L50.9911 30.5727L51.0631 29.6367L49.069 29.4833ZM49.7515 31.4661L51.1915 31.8261L51.6766 29.8859L50.2366 29.5259L49.7515 31.4661ZM51.1519 31.8154C52.3827 32.1774 52.7616 32.4159 52.9946 32.826C53.1311 33.0662 53.255 33.4379 53.3386 34.066C53.422 34.6927 53.4581 35.5134 53.4581 36.616H55.4581C55.4581 35.4866 55.4221 34.5613 55.3211 33.802C55.2202 33.0441 55.0471 32.3898 54.7335 31.838C54.0665 30.6641 52.9335 30.2546 51.7162 29.8966L51.1519 31.8154ZM53.4581 36.616V55.48H55.4581V36.616H53.4581ZM53.4581 55.48C53.4581 55.5366 53.4485 55.4741 53.5103 55.3941C53.5597 55.3301 53.585 55.3484 53.452 55.3979C53.1389 55.5145 52.5649 55.5966 51.4752 55.7093L51.681 57.6987C52.6792 57.5954 53.5452 57.4975 54.1502 57.2721C54.4761 57.1506 54.8299 56.9574 55.0931 56.6166C55.3687 56.2599 55.4581 55.8554 55.4581 55.48H53.4581ZM51.5014 55.7069L50.5654 55.7789L50.7188 57.7731L51.6548 57.7011L51.5014 55.7069ZM96.1922 56.272L95.4463 56.938L95.4651 56.9591L95.4851 56.9791L96.1922 56.272ZM103.032 28.192L103.739 27.4849L103.739 27.4849L103.032 28.192ZM99.5762 56.496C98.386 56.496 97.5219 56.1875 96.8993 55.5649L95.4851 56.9791C96.5905 58.0845 98.0304 58.496 99.5762 58.496V56.496ZM96.9381 55.606C95.3995 53.8828 93.9522 50.0377 93.9522 41.44H91.9522C91.9522 50.1223 93.3848 54.6292 95.4463 56.938L96.9381 55.606ZM93.9522 41.44C93.9522 37.0365 94.5242 33.5844 95.5808 31.2715C96.6217 28.9929 98.0431 27.968 99.7922 27.968V25.968C97.0053 25.968 95.0067 27.7151 93.7616 30.4405C92.5322 33.1316 91.9522 36.9155 91.9522 41.44H93.9522ZM99.7922 27.968C100.41 27.968 100.859 28.0337 101.234 28.1693C101.598 28.3011 101.945 28.5185 102.325 28.8991L103.739 27.4849C103.184 26.9295 102.595 26.5349 101.915 26.2887C101.245 26.0463 100.543 25.968 99.7922 25.968V27.968ZM102.325 28.8991C103.958 30.5322 105.344 34.2549 105.344 42.808H107.344C107.344 34.2251 105.994 29.7398 103.739 27.4849L102.325 28.8991ZM105.344 42.808C105.344 47.0579 104.757 50.5743 103.692 52.9885C102.626 55.4053 101.205 56.496 99.5762 56.496V58.496C102.339 58.496 104.302 56.5627 105.522 53.7955C106.744 51.0257 107.344 47.1981 107.344 42.808H105.344ZM99.2882 60.008C110.81 60.008 118.72 52.0454 118.72 41.944H116.72C116.72 50.8506 109.798 58.008 99.2882 58.008V60.008ZM118.72 41.944C118.72 37.2024 117.011 32.7845 113.804 29.5491C110.592 26.3079 105.935 24.312 100.152 24.312V26.312C105.457 26.312 109.584 28.1321 112.384 30.9569C115.189 33.7875 116.72 37.6856 116.72 41.944H118.72ZM100.152 24.312C88.7105 24.312 80.7202 32.2666 80.7202 42.232H82.7202C82.7202 33.4774 89.7059 26.312 100.152 26.312V24.312ZM80.7202 42.232C80.7202 47.0385 82.4066 51.493 85.6058 54.7498C88.8111 58.0128 93.4702 60.008 99.2882 60.008V58.008C93.9461 58.008 89.8213 56.1872 87.0326 53.3482C84.2377 50.503 82.7202 46.5695 82.7202 42.232H80.7202ZM135.278 59.152L136.277 59.1842L136.278 59.1681V59.152H135.278ZM135.278 25.384H136.278V24.0653L135.008 24.4211L135.278 25.384ZM120.374 29.56L120.104 28.5971L119.43 28.7858L119.376 29.4833L120.374 29.56ZM120.302 30.496L119.304 30.4193L119.239 31.271L120.07 31.4688L120.302 30.496ZM121.813 30.856L122.096 29.8966L122.071 29.8893L122.045 29.8832L121.813 30.856ZM120.086 74.272L119.263 73.7038L118.18 75.272H120.086V74.272ZM129.734 22.64C134.075 22.64 136.926 19.1937 136.926 15.52H134.926C134.926 18.1823 132.88 20.64 129.734 20.64V22.64ZM136.926 15.52C136.926 11.9106 134.068 8.472 129.734 8.472V10.472C132.887 10.472 134.926 12.9374 134.926 15.52H136.926ZM129.734 8.472C125.335 8.472 122.47 11.9026 122.47 15.52H124.47C124.47 12.9454 126.5 10.472 129.734 10.472V8.472ZM122.47 15.52C122.47 19.2017 125.327 22.64 129.734 22.64V20.64C126.508 20.64 124.47 18.1743 124.47 15.52H122.47ZM118.573 77.504C122.845 77.504 127.216 74.5913 130.473 71.0121C133.734 67.4282 136.158 62.8711 136.277 59.1842L134.278 59.1198C134.181 62.1289 132.105 66.2478 128.994 69.6659C125.879 73.0887 122.006 75.504 118.573 75.504V77.504ZM136.278 59.152V25.384H134.278V59.152H136.278ZM135.008 24.4211L120.104 28.5971L120.643 30.5229L135.547 26.3469L135.008 24.4211ZM119.376 29.4833L119.304 30.4193L121.299 30.5727L121.371 29.6367L119.376 29.4833ZM120.07 31.4688L121.582 31.8288L122.045 29.8832L120.533 29.5232L120.07 31.4688ZM121.531 31.8154C122.762 32.1774 123.141 32.4159 123.374 32.826C123.51 33.0662 123.634 33.4379 123.718 34.066C123.801 34.6927 123.838 35.5134 123.838 36.616H125.838C125.838 35.4866 125.802 34.5613 125.701 33.802C125.6 33.0441 125.427 32.3898 125.113 31.838C124.446 30.6641 123.313 30.2546 122.096 29.8966L121.531 31.8154ZM123.838 36.616V60.448H125.838V36.616H123.838ZM123.838 60.448C123.838 64.6145 123.582 67.9441 122.907 70.206C122.571 71.3333 122.154 72.109 121.688 72.5921C121.251 73.045 120.744 73.272 120.086 73.272V75.272C121.299 75.272 122.322 74.815 123.127 73.9809C123.903 73.177 124.44 72.0627 124.824 70.778C125.589 68.2159 125.838 64.6335 125.838 60.448H123.838ZM120.908 74.8402C122.143 73.0524 122.347 70.8039 121.585 68.9734C120.803 67.0975 119.023 65.712 116.485 65.712V67.712C118.196 67.712 119.26 68.5945 119.738 69.7426C120.236 70.9361 120.116 72.4676 119.263 73.7038L120.908 74.8402ZM116.485 65.712C113.372 65.712 110.805 68.1454 110.805 71.248H112.805C112.805 69.3106 114.415 67.712 116.485 67.712V65.712ZM110.805 71.248C110.805 73.0919 111.568 74.6966 112.973 75.8185C114.357 76.9237 116.29 77.504 118.573 77.504V75.504C116.609 75.504 115.158 75.0043 114.22 74.2555C113.303 73.5234 112.805 72.5001 112.805 71.248H110.805ZM163.144 36.4L163.152 37.4L164.144 37.3928V36.4H163.144ZM153.136 36.472L152.14 36.3918L152.052 37.4798L153.144 37.472L153.136 36.472ZM173.08 47.92L174.024 48.2504L174.315 47.4193L173.528 47.0256L173.08 47.92ZM172.216 47.488L172.664 46.5936L171.803 46.1632L171.34 47.0067L172.216 47.488ZM153.136 37.768V36.768H152.241L152.142 37.6576L153.136 37.768ZM163.936 37.984L163.963 36.9844L163.95 36.984H163.936V37.984ZM172.576 38.128L172.553 39.1277L173.374 39.1468L173.553 38.3449L172.576 38.128ZM163.137 35.4L153.129 35.472L153.144 37.472L163.152 37.4L163.137 35.4ZM154.133 36.5522C154.377 33.5198 155.086 31.3211 155.993 29.9125C156.893 28.5151 157.927 27.968 158.896 27.968V25.968C157.057 25.968 155.464 27.0409 154.312 28.8295C153.167 30.6069 152.4 33.1602 152.14 36.3918L154.133 36.5522ZM158.896 27.968C159.938 27.968 160.739 28.637 161.324 30.2214C161.91 31.8092 162.144 34.0258 162.144 36.4H164.144C164.144 33.9502 163.91 31.4508 163.2 29.5286C162.489 27.603 161.166 25.968 158.896 25.968V27.968ZM157.6 60.152C161.771 60.152 165.231 59.097 167.991 57.0374C170.744 54.9819 172.716 51.9878 174.024 48.2504L172.136 47.5896C170.925 51.0522 169.153 53.6741 166.794 55.4346C164.441 57.191 161.422 58.152 157.6 58.152V60.152ZM173.528 47.0256L172.664 46.5936L171.769 48.3824L172.633 48.8144L173.528 47.0256ZM171.34 47.0067C169.479 50.3955 166.843 52.032 163.36 52.032V54.032C167.653 54.032 170.921 51.9245 173.093 47.9693L171.34 47.0067ZM163.36 52.032C160.497 52.032 158.213 50.8574 156.621 48.8397C155.012 46.7993 154.064 43.8317 154.064 40.216H152.064C152.064 44.1603 153.097 47.6007 155.051 50.0783C157.023 52.5786 159.887 54.032 163.36 54.032V52.032ZM154.064 40.216C154.064 39.5427 154.066 38.4578 154.13 37.8784L152.142 37.6576C152.063 38.3742 152.064 39.5933 152.064 40.216H154.064ZM153.136 38.768C153.91 38.768 155.43 38.8211 157.374 38.8756C159.303 38.9297 161.618 38.984 163.936 38.984V36.984C161.647 36.984 159.354 36.9303 157.43 36.8764C155.523 36.8229 153.947 36.768 153.136 36.768V38.768ZM163.909 38.9836C166.535 39.0546 169.529 39.0574 172.553 39.1277L172.6 37.1283C169.432 37.0546 166.666 37.0574 163.963 36.9844L163.909 38.9836ZM173.553 38.3449C173.715 37.6136 173.792 36.8194 173.792 35.968H171.792C171.792 36.7006 171.726 37.3464 171.6 37.9111L173.553 38.3449ZM173.792 35.968C173.792 29.9521 168.815 24.168 159.904 24.168V26.168C167.842 26.168 171.792 31.1839 171.792 35.968H173.792ZM159.904 24.168C149.277 24.168 141.048 32.3144 141.048 42.952H143.048C143.048 33.4296 150.371 26.168 159.904 26.168V24.168ZM141.048 42.952C141.048 52.981 148.165 60.152 157.6 60.152V58.152C149.323 58.152 143.048 51.931 143.048 42.952H141.048ZM207.175 47.92L208.116 48.2587L208.406 47.4524L207.654 47.0421L207.175 47.92ZM206.383 47.488L206.862 46.6101L205.986 46.1326L205.507 47.0067L206.383 47.488ZM198.175 28.696H199.175V28.6544L199.172 28.613L198.175 28.696ZM196.663 32.008L197.659 32.1006L197.663 32.0544V32.008H196.663ZM191.983 60.152C195.881 60.152 199.247 59.0891 201.988 57.0363C204.722 54.9878 206.768 52.0023 208.116 48.2587L206.234 47.5813C204.99 51.0377 203.148 53.6682 200.789 55.4357C198.435 57.1989 195.502 58.152 191.983 58.152V60.152ZM207.654 47.0421L206.862 46.6101L205.904 48.3659L206.696 48.7979L207.654 47.0421ZM205.507 47.0067C203.644 50.3994 201.006 52.032 197.599 52.032V54.032C201.824 54.032 205.09 51.9206 207.26 47.9693L205.507 47.0067ZM197.599 52.032C194.683 52.032 192.53 50.936 191.071 48.9407C189.579 46.8996 188.735 43.8089 188.735 39.712H186.735C186.735 44.0391 187.619 47.6084 189.457 50.1213C191.328 52.68 194.107 54.032 197.599 54.032V52.032ZM188.735 39.712C188.735 35.6693 189.459 32.7237 190.607 30.8242C191.728 28.9686 193.242 28.112 195.007 28.112V26.112C192.452 26.112 190.33 27.4154 188.895 29.7898C187.487 32.1203 186.735 35.4747 186.735 39.712H188.735ZM195.007 28.112C195.702 28.112 196.319 28.2652 196.738 28.4744C197.217 28.714 197.187 28.8813 197.179 28.779L199.172 28.613C199.091 27.6467 198.305 27.022 197.632 26.6856C196.899 26.3188 195.968 26.112 195.007 26.112V28.112ZM197.175 28.696C197.175 28.4703 197.267 28.3379 197.225 28.4171C197.208 28.4493 197.172 28.509 197.104 28.6122C196.988 28.7879 196.766 29.1059 196.572 29.4159C196.185 30.0324 195.663 30.9813 195.663 32.008H197.663C197.663 31.5947 197.897 31.0676 198.266 30.4781C198.45 30.1851 198.606 29.9676 198.774 29.7135C198.847 29.6019 198.929 29.4731 198.995 29.3481C199.036 29.2701 199.175 29.0117 199.175 28.696H197.175ZM195.667 31.9154C195.335 35.4902 197.771 38.912 201.703 38.912V36.912C199.155 36.912 197.415 34.7178 197.659 32.1006L195.667 31.9154ZM201.703 38.912C203.341 38.912 204.843 38.3423 205.94 37.2673C207.041 36.1881 207.671 34.6618 207.671 32.872H205.671C205.671 34.1782 205.221 35.1719 204.54 35.8387C203.855 36.5097 202.874 36.912 201.703 36.912V38.912ZM207.671 32.872C207.671 30.2155 206.177 28.0379 203.826 26.5698C201.492 25.1121 198.269 24.312 194.575 24.312V26.312C198.009 26.312 200.835 27.0599 202.766 28.2662C204.681 29.4621 205.671 31.0645 205.671 32.872H207.671ZM194.575 24.312C183.369 24.312 175.431 32.3891 175.431 43.24H177.431C177.431 33.4989 184.469 26.312 194.575 26.312V24.312ZM175.431 43.24C175.431 53.1432 182.566 60.152 191.983 60.152V58.152C183.688 58.152 177.431 52.0568 177.431 43.24H175.431ZM234.896 52.672L235.631 53.3497L236.02 52.9271L235.851 52.3779L234.896 52.672ZM234.608 51.736L235.563 51.4419L235.134 50.0464L233.988 50.9511L234.608 51.736ZM223.16 46.192L222.16 46.1777L222.16 46.1793L223.16 46.192ZM223.376 31.072V30.072H222.39L222.376 31.0577L223.376 31.072ZM233.528 31.072V32.072H234.34L234.506 31.2772L233.528 31.072ZM234.464 26.608L235.442 26.8132L235.695 25.608H234.464V26.608ZM223.448 26.608L222.448 26.5995L222.439 27.608H223.448V26.608ZM223.52 18.184L224.52 18.1925L224.528 17.2288L223.565 17.185L223.52 18.184ZM221.936 18.112L221.981 17.113L221.616 17.0964L221.326 17.319L221.936 18.112ZM216.032 22.648L216.633 23.447L216.641 23.441L216.032 22.648ZM209.624 27.472L209.022 26.6731L208.841 26.8095L208.736 27.0106L209.624 27.472ZM207.752 31.072L206.864 30.6106L206.135 32.0128L207.715 32.0713L207.752 31.072ZM213.584 31.288L214.584 31.3049L214.6 30.325L213.621 30.2887L213.584 31.288ZM213.296 48.28L214.295 48.3004L214.296 48.2969L213.296 48.28ZM222.872 59.864C228.241 59.864 232.16 57.1164 235.631 53.3497L234.16 51.9943C230.864 55.5716 227.439 57.864 222.872 57.864V59.864ZM235.851 52.3779L235.563 51.4419L233.652 52.0301L233.94 52.9661L235.851 52.3779ZM233.988 50.9511C232.779 51.9055 231.122 52.68 228.776 52.68V54.68C231.614 54.68 233.7 53.7265 235.227 52.5209L233.988 50.9511ZM228.776 52.68C227.01 52.68 225.953 52.2654 225.288 51.4414C224.578 50.56 224.124 48.9856 224.16 46.2047L222.16 46.1793C222.123 49.0864 222.57 51.256 223.731 52.6966C224.939 54.1946 226.726 54.68 228.776 54.68V52.68ZM224.16 46.2063L224.376 31.0863L222.376 31.0577L222.16 46.1777L224.16 46.2063ZM223.376 32.072H233.528V30.072H223.376V32.072ZM234.506 31.2772L235.442 26.8132L233.485 26.4028L232.549 30.8668L234.506 31.2772ZM234.464 25.608H223.448V27.608H234.464V25.608ZM224.448 26.6165L224.52 18.1925L222.52 18.1755L222.448 26.5995L224.448 26.6165ZM223.565 17.185L221.981 17.113L221.89 19.111L223.474 19.183L223.565 17.185ZM221.326 17.319L215.422 21.855L216.641 23.441L222.545 18.905L221.326 17.319ZM215.43 21.8491L209.022 26.6731L210.225 28.2709L216.633 23.4469L215.43 21.8491ZM208.736 27.0106L206.864 30.6106L208.639 31.5334L210.511 27.9334L208.736 27.0106ZM207.715 32.0713L213.547 32.2873L213.621 30.2887L207.789 30.0727L207.715 32.0713ZM212.584 31.2711L212.296 48.2631L214.296 48.2969L214.584 31.3049L212.584 31.2711ZM212.296 48.2596C212.221 51.9195 212.999 54.8605 214.831 56.8882C216.676 58.9322 219.423 59.864 222.872 59.864V57.864C219.768 57.864 217.655 57.0318 216.315 55.5478C214.96 54.0475 214.226 51.6965 214.295 48.3004L212.296 48.2596Z" fill="#344E41" fill-opacity="0.52"/>
<path d="M57.7125 57.36C56.9925 57.36 56.4165 57.168 55.8885 57.12V43.104L57.5205 43.008C61.5525 43.152 63.6645 45.6 63.6645 50.352C63.6645 54.48 61.2165 57.36 57.7125 57.36ZM44.2245 71.184L44.0805 72H60.1605L60.0165 71.184L58.2405 70.992C56.1285 70.8 55.8885 70.608 55.8885 70.224V58.224C56.4645 58.32 57.1365 58.368 57.9525 58.368C66.4005 58.368 72.1125 55.248 72.1125 49.68C72.1125 44.448 67.5045 42 58.3365 42H44.1285L44.2725 42.816L45.5205 43.008C47.7285 43.248 48.0165 43.392 48.0165 43.776V70.128C48.0165 70.512 47.4885 70.752 45.9525 70.992L44.2245 71.184ZM73.7614 71.184L73.6174 72H86.6734L86.5294 71.184L85.6654 71.136C83.6014 70.992 83.2654 70.752 83.2654 70.32V59.856C84.3694 56.4 85.4734 54.768 86.8174 54.432C87.3454 55.968 88.4014 57.408 90.5134 57.408C92.3854 57.408 93.7294 55.728 93.7294 54.048C93.7294 51.552 92.1454 50.208 89.8894 50.208C86.8654 50.208 84.9454 52.8 83.4094 57.36H83.2654L83.3614 50.256L73.3774 53.04L73.3294 53.664L74.2894 53.904C75.9214 54.384 76.3054 54.768 76.3054 57.744V70.32C76.3054 70.896 75.7774 70.992 74.3854 71.136L73.7614 71.184ZM106.384 71.664C105.472 71.664 104.704 71.424 104.128 70.848C102.928 69.504 101.968 66.72 101.968 60.96C101.968 55.008 103.504 51.312 106.528 51.312C107.44 51.312 108.064 51.504 108.688 52.128C109.984 53.424 110.896 56.16 110.896 61.872C110.896 67.632 109.312 71.664 106.384 71.664ZM106.192 72.672C113.536 72.672 118.48 67.632 118.48 61.296C118.48 55.296 114.16 50.208 106.768 50.208C99.4721 50.208 94.4801 55.248 94.4801 61.488C94.4801 67.584 98.7521 72.672 106.192 72.672ZM126.489 47.76C128.985 47.76 130.617 45.792 130.617 43.68C130.617 41.616 128.985 39.648 126.489 39.648C123.945 39.648 122.313 41.616 122.313 43.68C122.313 45.792 123.945 47.76 126.489 47.76ZM119.049 84.336C124.185 84.336 130.041 77.232 130.185 72.768V50.256L120.249 53.04L120.201 53.664L121.209 53.904C122.841 54.384 123.225 54.768 123.225 57.744V73.632C123.225 79.2 122.553 82.848 120.057 82.848C121.449 80.832 120.489 77.808 117.657 77.808C115.929 77.808 114.537 79.152 114.537 80.832C114.537 82.896 116.217 84.336 119.049 84.336ZM148.763 57.6L142.091 57.648C142.427 53.472 144.059 51.312 145.931 51.312C148.139 51.312 148.763 54.384 148.763 57.6ZM145.067 72.768C150.395 72.768 153.707 70.08 155.387 65.28L154.811 64.992C153.467 67.44 151.499 68.688 148.907 68.688C144.683 68.688 142.043 65.184 142.043 60.144C142.043 59.712 142.043 58.944 142.091 58.512C143.147 58.512 146.219 58.656 149.291 58.656C151.067 58.704 152.987 58.704 155.051 58.752C155.147 58.32 155.195 57.84 155.195 57.312C155.195 53.712 152.219 50.112 146.603 50.112C139.883 50.112 134.699 55.248 134.699 61.968C134.699 68.304 139.163 72.768 145.067 72.768ZM167.989 72.768C172.933 72.768 176.389 70.08 178.117 65.28L177.589 64.992C176.245 67.44 174.277 68.688 171.733 68.688C167.461 68.688 165.157 65.424 165.157 59.808C165.157 54.288 167.125 51.408 170.005 51.408C171.109 51.408 172.069 51.888 172.117 52.464C172.117 52.704 171.109 53.712 171.109 54.672C170.917 56.736 172.309 58.608 174.469 58.608C176.341 58.608 177.781 57.312 177.781 55.248C177.781 52.272 174.469 50.208 169.717 50.208C162.613 50.208 157.621 55.296 157.621 62.16C157.621 68.4 162.085 72.768 167.989 72.768ZM188.581 72.576C191.893 72.576 194.341 70.896 196.597 68.448L196.405 67.824C195.493 68.544 194.245 69.12 192.517 69.12C189.973 69.12 188.725 67.92 188.773 64.128L188.917 54.048H195.685L196.309 51.072H188.965L189.013 45.456L187.957 45.408L184.021 48.432L179.749 51.648L178.501 54.048L182.389 54.192L182.197 65.52C182.101 70.224 184.213 72.576 188.581 72.576Z" fill="#1E2C25"/>
</svg>
